<svg width="136" height="170" viewBox="0 0 136 170" fill="none" xmlns="http://www.w3.org/2000/svg">
<rect width="136" height="170" fill="#DDDDDD"/>
<path d="M68 76.6667C69.9151 76.6667 71.8115 76.2895 73.5808 75.5566C75.3501 74.8237 76.9578 73.7495 78.312 72.3953C79.6662 71.0411 80.7404 69.4335 81.4732 67.6641C82.2061 65.8948 82.5833 63.9984 82.5833 62.0833C82.5833 60.1682 82.2061 58.2719 81.4732 56.5025C80.7404 54.7332 79.6662 53.1255 78.312 51.7714C76.9578 50.4172 75.3501 49.343 73.5808 48.6101C71.8115 47.8772 69.9151 47.5 68 47.5C64.1323 47.5 60.4229 49.0365 57.688 51.7714C54.9531 54.5063 53.4167 58.2156 53.4167 62.0833C53.4167 65.9511 54.9531 69.6604 57.688 72.3953C60.4229 75.1302 64.1323 76.6667 68 76.6667ZM30.5 120V122.5H105.5V120C105.5 110.667 105.5 106 103.683 102.433C102.085 99.2974 99.5359 96.7479 96.4 95.15C92.8333 93.3333 88.1667 93.3333 78.8333 93.3333H57.1667C47.8333 93.3333 43.1667 93.3333 39.6 95.15C36.4641 96.7479 33.9145 99.2974 32.3167 102.433C30.5 106 30.5 110.667 30.5 120Z" fill="white" stroke="white" stroke-width="2" stroke-linecap="round" stroke-linejoin="round"/>
</svg>
