<svg width="167" height="40" viewBox="0 0 167 40" fill="none" xmlns="http://www.w3.org/2000/svg">
<g clip-path="url(#clip0_2705_65201)">
<path d="M14.1308 21.8939C14.1308 17.803 16.7756 14.3182 20.4783 13.1818C21.6118 10.7576 22.5186 8.0303 23.1987 5C23.4254 4.09091 23.2742 3.78788 23.2742 3.78788C23.2742 3.78788 23.2742 3.78788 23.1987 3.78788C13.2996 3.71212 5.21405 11.8939 5.21405 21.8939C5.21405 26.8182 7.17876 31.2879 10.3525 34.5455L18.0602 29.3939C15.7177 27.7273 14.1308 25 14.1308 21.8939Z" fill="#8BC53F"/>
<path d="M28.9417 4.62122L26.6747 13.3333C30.0751 14.697 32.4932 17.9545 32.4932 21.8939C32.4932 26.9697 28.4127 31.0606 23.3498 31.0606C23.0475 31.0606 22.7453 31.0606 22.5186 30.9849C19.0426 34.0152 15.6421 35.7576 13.1484 36.8182C16.0955 38.7879 19.5715 40 23.3498 40C33.3245 40 41.41 31.8939 41.41 21.8939C41.41 13.8636 36.1959 7.04546 28.9417 4.62122Z" fill="#8BC53F"/>
<path d="M32.7199 0H23.0475L22.6697 1.59091C24.7855 1.89394 25.5412 2.95455 25.0122 5.37879C20.8561 23.6364 7.40543 32.5758 7.40543 32.5758L7.02761 32.8788C7.2543 32.803 7.32987 32.9545 7.10317 33.1061L6.80091 33.2576L6.64978 33.1818C6.64978 33.2576 6.64978 33.3333 6.64978 33.3333L6.72534 33.4091L6.42308 33.4848L6.34752 33.3333C6.34752 33.7879 5.81856 33.7879 5.51629 33.8636C4.38281 34.4697 3.02263 34.8485 1.73801 35C2.19141 35.1515 2.6448 34.7727 3.09819 34.9242C3.17376 35.1515 3.02263 35.2273 3.02263 35.3788C2.6448 35.2273 2.49367 36.2879 2.11584 35.5303V35.6818C1.20905 35.6818 0.604529 36.1364 -0.0755615 36.2121C1.05792 36.1364 2.19141 36.2121 3.24933 35.9848C3.85385 35.9848 4.38281 35.9091 4.91177 35.8333C4.98733 35.9848 4.8362 36.1364 4.8362 36.2121C4.45838 36.0606 4.30724 37.1212 3.92942 36.3636V36.5152C3.02263 36.5152 2.49367 36.8939 1.73801 37.0455C2.8715 36.9697 4.00498 37.0455 5.0629 36.8182C6.27195 36.8182 7.481 36.7424 8.53892 36.1364C8.61448 36.1364 8.84118 36.0606 8.84118 36.0606C10.5792 35.6818 26.5991 31.5909 33.3244 9.77273C33.6267 8.78788 34.6091 5.37879 35.0624 2.19697C35.2136 2.34848 35.667 0 32.7199 0Z" fill="url(#paint0_linear_2705_65201)"/>
<path d="M56.8254 7.80302H50.7802V9.39393H56.8254V7.80302Z" fill="#005AA9"/>
<path d="M59.0924 10.6818H48.5132V12.3485H50.8557C50.4779 12.7273 50.1756 13.1061 49.9489 13.5606C49.7222 14.0151 49.6467 14.4697 49.6467 14.9242C49.6467 15.3788 49.7222 15.8333 49.9489 16.2879C50.1756 16.7424 50.4779 17.1212 50.7802 17.5C51.158 17.8788 51.6114 18.1061 52.0648 18.3333C52.5937 18.5606 53.1227 18.6364 53.7272 18.6364C54.3317 18.6364 54.8607 18.5606 55.3897 18.3333C55.9186 18.1061 56.2964 17.8788 56.6743 17.5C57.0521 17.1212 57.3544 16.7424 57.5811 16.2879C57.8078 15.8333 57.8833 15.3788 57.8833 14.9242C57.8833 14.4697 57.8078 14.0151 57.5811 13.5606C57.3544 13.1061 57.0521 12.7273 56.6743 12.3485H59.0168V10.6818H59.0924ZM55.163 16.2879C54.7851 16.7424 54.3317 16.9697 53.8028 16.9697C53.2738 16.9697 52.8204 16.7424 52.4426 16.2879C52.0648 15.8333 51.9136 15.303 51.9136 14.697C51.9136 14.0909 52.1403 13.5606 52.4426 13.1061C52.8204 12.6515 53.2738 12.4242 53.8028 12.4242C54.3317 12.4242 54.7851 12.6515 55.163 13.1061C55.5408 13.5606 55.7675 14.0909 55.7675 14.697C55.7675 15.303 55.5408 15.8333 55.163 16.2879Z" fill="#005AA9"/>
<path d="M51.6869 25V19.8485H53.8783V23.3333H63.1729V25H51.6869Z" fill="#005AA9"/>
<path d="M62.7195 20.6061H60.6036V7.42424H62.7195V11.6667H65.3643V13.4091H62.7195V20.6061Z" fill="#005AA9"/>
<path d="M80.4774 7.87878C80.4774 8.33333 80.4019 8.86363 80.4019 9.39394C80.3263 9.92424 80.3263 10.4545 80.2507 11.0606C80.1752 11.5909 80.0996 12.1212 80.0241 12.6515C79.9485 13.1818 79.8729 13.6364 79.7974 14.0909H82.7444V15.8333H75.9435V18.7879H80.2507V25.303H78.0593V20.4545H68.3869V18.7879H73.601V15.8333H66.3467V14.0909H77.606C77.7571 13.4091 77.8326 12.6515 77.9838 11.8939C78.0593 11.0606 78.1349 10.3788 78.2105 9.62121H68.5381V7.87878H80.4774Z" fill="#005AA9"/>
<path d="M90.6789 21.8939V17.7273H92.9458V21.8939H99.9734V23.6364H83.5757V21.8939H90.6789Z" fill="#005AA9"/>
<path d="M92.9458 8.10606V10.303C92.9458 10.9091 93.0969 11.5152 93.3992 12.1212C93.7014 12.7273 94.1548 13.3333 94.6838 13.8636C95.2127 14.3939 95.8928 14.9242 96.6485 15.3788C97.4041 15.8333 98.1598 16.1364 98.991 16.4394L97.6308 17.803C96.1951 17.3485 94.986 16.6667 94.0792 15.9091C93.0969 15.1515 92.3412 14.2424 91.8123 13.2576C91.2833 14.2424 90.4521 15.0758 89.4697 15.9091C88.4874 16.6667 87.2783 17.2727 85.9182 17.803L84.558 16.4394C85.3892 16.2121 86.1449 15.8333 86.9005 15.3788C87.6562 14.9242 88.2607 14.4697 88.8652 13.8636C89.3942 13.3333 89.8476 12.7273 90.2254 12.1212C90.5277 11.5152 90.7544 10.9091 90.7544 10.303V8.10606H92.9458Z" fill="#005AA9"/>
<path d="M107.228 7.87878V10.9091H103.223V7.87878H101.031V16.8182H109.343V7.87878H107.228ZM107.228 15.0758H103.223V12.6515H107.228V15.0758Z" fill="#005AA9"/>
<path d="M113.197 20.4545C112.971 19.9242 112.593 19.5455 112.215 19.1667C111.837 18.7879 111.308 18.4848 110.779 18.2576C110.25 18.0303 109.646 17.9545 108.966 17.9545C108.286 17.9545 107.681 18.0303 107.152 18.2576C106.623 18.4848 106.094 18.7879 105.641 19.1667C105.263 19.5455 104.885 20 104.658 20.4545C104.432 20.9848 104.281 21.5152 104.281 22.0455C104.281 22.5758 104.432 23.1061 104.658 23.6364C104.885 24.0909 105.187 24.5455 105.641 24.9242C106.094 25.303 106.548 25.6061 107.152 25.8333C107.681 26.0606 108.361 26.1364 108.966 26.1364C109.57 26.1364 110.175 26.0606 110.779 25.8333C111.308 25.6061 111.837 25.303 112.215 24.9242C112.668 24.5455 112.971 24.0909 113.197 23.6364C113.424 23.1818 113.575 22.6515 113.575 22.0455C113.575 21.5152 113.5 20.9848 113.197 20.4545ZM110.704 23.7121C110.25 24.1667 109.646 24.3939 108.966 24.3939C108.286 24.3939 107.757 24.1667 107.228 23.7121C106.774 23.2576 106.548 22.6515 106.548 21.9697C106.548 21.3636 106.774 20.7576 107.228 20.303C107.681 19.8485 108.286 19.5455 108.966 19.5455C109.646 19.5455 110.25 19.7727 110.704 20.303C111.157 20.7576 111.384 21.3636 111.384 21.9697C111.384 22.7273 111.157 23.2576 110.704 23.7121Z" fill="#005AA9"/>
<path d="M113.953 17.9545H111.837V7.42424H113.953V11.0606H116.522V12.8788H113.953V17.9545Z" fill="#005AA9"/>
<path d="M126.724 10.6061C126.497 10.0758 126.119 9.62121 125.741 9.24242C125.288 8.86363 124.834 8.5606 124.306 8.25757C123.777 8.0303 123.172 7.87878 122.492 7.87878C121.812 7.87878 121.207 8.0303 120.678 8.25757C120.149 8.48484 119.62 8.78788 119.243 9.24242C118.865 9.62121 118.487 10.0758 118.26 10.6061C118.034 11.1364 117.882 11.6667 117.882 12.2727C117.882 12.8788 118.034 13.4091 118.26 13.9394C118.487 14.4697 118.789 14.9242 119.243 15.303C119.62 15.6818 120.149 15.9848 120.678 16.2121C121.207 16.4394 121.887 16.5909 122.492 16.5909C123.096 16.5909 123.701 16.4394 124.306 16.2121C124.834 15.9848 125.363 15.6818 125.741 15.303C126.119 14.9242 126.497 14.4697 126.724 13.9394C126.95 13.4091 127.101 12.8788 127.101 12.2727C127.101 11.6667 126.95 11.1364 126.724 10.6061ZM124.608 13.3333C124.457 13.6364 124.306 13.9394 124.154 14.1667C123.928 14.3939 123.701 14.6212 123.399 14.7727C123.096 14.9242 122.794 15 122.492 15C121.812 15 121.283 14.7727 120.83 14.2424C120.376 13.7121 120.149 13.1061 120.149 12.3485C120.149 11.5909 120.376 10.9848 120.83 10.4545C121.283 9.92424 121.812 9.69697 122.492 9.69697C123.096 9.69697 123.701 10 124.154 10.4545C124.608 10.9848 124.834 11.5909 124.834 12.3485C124.834 12.6515 124.759 12.9545 124.608 13.3333Z" fill="#005AA9"/>
<path d="M120.603 25V19.3939H122.794V23.3333H132.089V25H120.603Z" fill="#005AA9"/>
<path d="M138.739 25V19.3939H140.93V23.3333H150.224V25H138.739Z" fill="#005AA9"/>
<path d="M155.363 25V20.8333H157.554V23.3333H167V25H155.363Z" fill="#005AA9"/>
<path d="M131.635 7.42424V11.1364H134.28V12.803H131.635V20.1515H129.52V7.42424H131.635Z" fill="#005AA9"/>
<path d="M145.313 9.84848H141.837V11.5909C141.837 12.197 141.988 12.803 142.214 13.4091C142.441 13.9394 142.743 14.4697 143.197 15C143.575 15.4545 144.028 15.9091 144.557 16.3636C145.086 16.7424 145.615 17.1212 146.219 17.4242L144.633 18.7121C143.726 18.1818 142.97 17.5757 142.29 16.9697C141.61 16.3636 141.081 15.6818 140.779 15C140.401 15.8333 139.796 16.5909 139.116 17.2727C138.361 17.9545 137.529 18.5606 136.698 19.0909L135.036 17.803C135.716 17.5 136.32 17.1212 136.849 16.6667C137.454 16.2121 137.907 15.7576 138.361 15.2273C138.814 14.697 139.116 14.1667 139.343 13.5606C139.57 12.9545 139.721 12.3485 139.721 11.6667V9.84848H136.245V8.18181H145.313V9.84848Z" fill="#005AA9"/>
<path d="M147.806 13.4091H144.482V11.6667H147.806V7.42424H149.922V20.3788H147.806V13.4091Z" fill="#005AA9"/>
<path d="M156.345 20V17.4242H152.34V15.7576H156.27C156.723 15.7576 157.252 15.7576 157.857 15.6818C158.461 15.6818 159.141 15.6061 159.746 15.5303C160.426 15.4545 161.03 15.3788 161.71 15.303C162.391 15.2273 162.995 15.1515 163.524 15V16.6667C162.768 16.8182 162.013 16.9697 161.106 17.0455C160.275 17.1212 159.368 17.197 158.461 17.2727V20H156.345Z" fill="#005AA9"/>
<path d="M161.786 9.69697C161.559 9.24242 161.257 8.86363 160.879 8.48484C160.501 8.18181 160.048 7.87878 159.519 7.65151C158.99 7.42424 158.461 7.34848 157.857 7.34848C157.252 7.34848 156.648 7.42424 156.119 7.65151C155.59 7.87878 155.136 8.10606 154.758 8.48484C154.381 8.86363 154.078 9.24242 153.852 9.69697C153.625 10.1515 153.549 10.6061 153.549 11.1364C153.549 11.6667 153.625 12.1212 153.852 12.5758C154.078 13.0303 154.381 13.4091 154.758 13.7121C155.136 14.0909 155.59 14.3182 156.119 14.5455C156.648 14.7727 157.177 14.8485 157.857 14.8485C158.461 14.8485 158.99 14.7727 159.519 14.5455C160.048 14.3182 160.501 14.0909 160.879 13.7121C161.257 13.4091 161.559 12.9545 161.786 12.5758C162.013 12.1212 162.164 11.6667 162.164 11.1364C162.088 10.6818 162.013 10.1515 161.786 9.69697ZM159.292 12.5758C158.839 13.0303 158.386 13.1818 157.781 13.1818C157.177 13.1818 156.723 12.9545 156.27 12.5758C155.892 12.1212 155.665 11.6667 155.665 11.1364C155.665 10.6061 155.892 10.0758 156.27 9.69697C156.648 9.24242 157.177 9.0909 157.781 9.0909C158.386 9.0909 158.839 9.31818 159.292 9.69697C159.746 10.1515 159.897 10.6061 159.897 11.1364C159.897 11.6667 159.67 12.197 159.292 12.5758Z" fill="#005AA9"/>
<path d="M164.582 19.5455H160.577V17.8788H164.582V7.42424H166.698V21.1364H164.582V19.5455Z" fill="#005AA9"/>
<path d="M55.5408 36.2879H54.1806L52.7448 33.9394L52.2159 34.3182V36.3636H51.0068V30.7576H52.2159V33.3333L52.6693 32.6515L54.1806 30.7576H55.4652L53.5005 33.2576L55.5408 36.2879Z" fill="#005AA9"/>
<path d="M61.2837 33.4091C61.2837 34.3182 61.057 35.0758 60.6036 35.5303C60.1502 36.0606 59.4702 36.2879 58.6389 36.2879C57.8077 36.2879 57.1276 36.0606 56.6742 35.5303C56.2208 35 55.9941 34.3182 55.9941 33.3333C55.9941 32.4242 56.2208 31.6667 56.6742 31.2121C57.1276 30.6818 57.8077 30.4545 58.6389 30.4545C59.4702 30.4545 60.1502 30.6818 60.6036 31.2121C61.057 31.8182 61.2837 32.5 61.2837 33.4091ZM57.2788 33.4091C57.2788 34.0151 57.4299 34.5455 57.6566 34.8485C57.8833 35.1515 58.2611 35.303 58.7145 35.303C59.6213 35.303 60.1502 34.697 60.1502 33.4091C60.1502 32.1212 59.6969 31.5151 58.7145 31.5151C58.2611 31.5151 57.8833 31.6667 57.6566 31.9697C57.3543 32.3485 57.2788 32.803 57.2788 33.4091Z" fill="#005AA9"/>
<path d="M63.6263 34.0909V36.2879H62.4172V30.6818H64.0041C64.7598 30.6818 65.2887 30.8333 65.6666 31.1364C66.0444 31.4394 66.1955 31.8182 66.1955 32.4242C66.1955 32.7273 66.12 33.0303 65.8933 33.3333C65.7421 33.5606 65.4399 33.7879 65.1376 33.9394C65.9688 35.2273 66.4978 36.0606 66.8 36.3636H65.5154L64.3064 34.0909H63.6263ZM63.6263 33.1061H64.0041C64.3819 33.1061 64.6842 33.0303 64.8353 32.8788C64.9865 32.7273 65.1376 32.5758 65.1376 32.2727C65.1376 31.9697 65.062 31.8182 64.8353 31.6667C64.6842 31.5909 64.3819 31.5152 64.0041 31.5152H63.6263V33.1061Z" fill="#005AA9"/>
<path d="M70.805 36.2879H67.6312V30.6818H70.805V31.6667H68.7647V32.8788H70.6539V33.8636H68.7647V35.303H70.805V36.2879Z" fill="#005AA9"/>
<path d="M75.4145 36.2879L75.0367 34.9242H72.9964L72.543 36.2879H71.2584L73.2231 30.6061H74.6589L76.6236 36.2879H75.4145ZM74.7344 33.9394C74.3566 32.7273 74.1299 32.0455 74.1299 31.8939C74.0543 31.7424 74.0543 31.5909 74.0543 31.5152C73.9788 31.8182 73.7521 32.6515 73.2987 33.9394H74.7344Z" fill="#005AA9"/>
<path d="M80.553 36.2879H79.4196V30.6818H82.5933V31.6667H80.553V33.1061H82.4422V34.0909H80.553V36.2879Z" fill="#005AA9"/>
<path d="M83.6511 36.2879V30.6818H84.8602V36.2879H83.6511Z" fill="#005AA9"/>
<path d="M87.4295 34.0909V36.2879H86.2205V30.6818H87.8073C88.563 30.6818 89.092 30.8333 89.4698 31.1364C89.8476 31.4394 89.9987 31.8182 89.9987 32.4242C89.9987 32.7273 89.9232 33.0303 89.6965 33.3333C89.5453 33.5606 89.2431 33.7879 88.9408 33.9394C89.772 35.2273 90.301 36.0606 90.6033 36.3636H89.3186L87.9585 34.1667H87.4295V34.0909ZM87.4295 33.1061H87.8073C88.1852 33.1061 88.4874 33.0303 88.6386 32.8788C88.7897 32.7273 88.9408 32.5758 88.9408 32.2727C88.9408 31.9697 88.8653 31.8182 88.6386 31.6667C88.4874 31.5909 88.1852 31.5152 87.8073 31.5152H87.4295V33.1061Z" fill="#005AA9"/>
<path d="M94.6082 36.2879H91.4344V30.6818H94.6082V31.6667H92.5679V32.8788H94.4571V33.8636H92.5679V35.303H94.6082V36.2879Z" fill="#005AA9"/>
<path d="M101.107 34.697C101.107 35.2273 100.956 35.6061 100.578 35.9091C100.2 36.2121 99.7467 36.3636 99.0666 36.3636C98.4621 36.3636 97.9331 36.2879 97.4797 36.0606V34.9242C97.8576 35.0758 98.1598 35.2273 98.4621 35.303C98.6888 35.3788 98.991 35.3788 99.1422 35.3788C99.3689 35.3788 99.5956 35.303 99.7467 35.2273C99.8978 35.1515 99.9734 35 99.9734 34.7727C99.9734 34.697 99.9734 34.5455 99.8978 34.4697C99.8223 34.3939 99.7467 34.3182 99.5956 34.2424C99.4444 34.1667 99.2177 34.0152 98.8399 33.8636C98.4621 33.7121 98.2354 33.5606 98.0843 33.4091C97.9331 33.2576 97.782 33.1061 97.7064 32.8788C97.6309 32.6515 97.5553 32.4242 97.5553 32.197C97.5553 31.6667 97.7064 31.2879 98.0843 30.9849C98.3865 30.6818 98.9155 30.5303 99.4444 30.5303C99.7467 30.5303 99.9734 30.5303 100.276 30.6061C100.502 30.6818 100.805 30.7576 101.107 30.9091L100.729 31.8182C100.427 31.6667 100.2 31.5909 99.9734 31.5909C99.7467 31.5152 99.5956 31.5152 99.3689 31.5152C99.1422 31.5152 98.9911 31.5909 98.8399 31.6667C98.6888 31.7424 98.6888 31.8939 98.6888 32.0455C98.6888 32.1212 98.6888 32.2727 98.7643 32.3485C98.8399 32.4242 98.9155 32.5 98.991 32.5758C99.0666 32.6515 99.3689 32.803 99.7467 32.9545C100.276 33.1818 100.653 33.4848 100.805 33.7121C100.956 34.0152 101.107 34.3182 101.107 34.697Z" fill="#005AA9"/>
<path d="M105.49 36.2879L105.112 34.9242H103.071L102.694 36.2879H101.409L103.374 30.6061H104.81L106.774 36.2879H105.49ZM104.81 33.9394C104.432 32.7273 104.205 32.0455 104.205 31.8939C104.129 31.7424 104.129 31.5909 104.129 31.5152C104.054 31.8182 103.827 32.6515 103.374 33.9394H104.81Z" fill="#005AA9"/>
<path d="M108.588 36.2879H107.454V30.6818H110.628V31.6667H108.588V33.1061H110.477V34.0909H108.588V36.2879Z" fill="#005AA9"/>
<path d="M114.935 36.2879H111.762V30.6818H114.935V31.6667H112.895V32.8788H114.784V33.8636H112.895V35.303H114.935V36.2879Z" fill="#005AA9"/>
<path d="M118.26 36.2879H117.051V31.6667H115.54V30.6818H119.772V31.6667H118.26V36.2879Z" fill="#005AA9"/>
<path d="M122.341 32.9545L123.474 30.6061H124.759L122.945 34.0152V36.2121H121.736V34.0909L119.923 30.6061H121.207L122.341 32.9545Z" fill="#005AA9"/>
<path d="M127.479 36.2879V30.6818H128.688V36.2879H127.479Z" fill="#005AA9"/>
<path d="M135.036 36.2879H133.524L131.106 32.0455C131.182 32.803 131.182 33.3333 131.182 33.6364V36.2879H130.124V30.6818H131.635L134.053 34.9242C133.978 34.1667 133.978 33.7121 133.978 33.4091V30.7576H135.036V36.2879Z" fill="#005AA9"/>
<path d="M139.721 34.697C139.721 35.2273 139.57 35.6061 139.192 35.9091C138.814 36.2121 138.361 36.3636 137.681 36.3636C137.076 36.3636 136.547 36.2879 136.094 36.0606V34.9242C136.472 35.0758 136.774 35.2273 137.076 35.303C137.303 35.3788 137.605 35.3788 137.756 35.3788C137.983 35.3788 138.21 35.303 138.361 35.2273C138.512 35.1515 138.587 35 138.587 34.7727C138.587 34.697 138.587 34.5455 138.512 34.4697C138.436 34.3939 138.361 34.3182 138.21 34.2424C138.058 34.1667 137.832 34.0152 137.454 33.8636C137.076 33.7121 136.849 33.5606 136.698 33.4091C136.547 33.2576 136.396 33.1061 136.32 32.8788C136.245 32.6515 136.169 32.4242 136.169 32.197C136.169 31.6667 136.32 31.2879 136.698 30.9849C137.001 30.6818 137.529 30.5303 138.058 30.5303C138.361 30.5303 138.587 30.5303 138.89 30.6061C139.116 30.6818 139.419 30.7576 139.721 30.9091L139.343 31.8182C139.041 31.6667 138.814 31.5909 138.587 31.5909C138.361 31.5152 138.21 31.5152 137.983 31.5152C137.756 31.5152 137.605 31.5909 137.454 31.6667C137.303 31.7424 137.303 31.8939 137.303 32.0455C137.303 32.1212 137.303 32.2727 137.378 32.3485C137.454 32.4242 137.529 32.5 137.605 32.5758C137.681 32.6515 137.983 32.803 138.361 32.9545C138.89 33.1818 139.268 33.4848 139.419 33.7121C139.645 34.0152 139.721 34.3182 139.721 34.697Z" fill="#005AA9"/>
<path d="M142.895 36.2879H141.686V31.6667H140.174V30.6818H144.406V31.6667H142.895V36.2879Z" fill="#005AA9"/>
<path d="M145.237 36.2879V30.6818H146.446V36.2879H145.237Z" fill="#005AA9"/>
<path d="M149.998 36.2879H148.789V31.6667H147.277V30.6818H151.509V31.6667H149.998V36.2879Z" fill="#005AA9"/>
<path d="M156.874 30.6061V34.2424C156.874 34.6212 156.799 35 156.572 35.303C156.421 35.6061 156.119 35.8333 155.741 36.0606C155.363 36.2121 154.985 36.2879 154.532 36.2879C153.852 36.2879 153.247 36.1364 152.869 35.7576C152.491 35.3788 152.265 34.8485 152.265 34.2424V30.6061H153.474V34.0909C153.474 34.5455 153.549 34.8485 153.701 35.0758C153.852 35.303 154.154 35.3788 154.532 35.3788C154.91 35.3788 155.212 35.303 155.363 35.0758C155.514 34.8485 155.59 34.5455 155.59 34.0909V30.6818H156.874V30.6061Z" fill="#005AA9"/>
<path d="M160.35 36.2879H159.141V31.6667H157.63V30.6818H161.862V31.6667H160.35V36.2879Z" fill="#005AA9"/>
<path d="M165.942 36.2879H162.768V30.6818H165.942V31.6667H163.902V32.8788H165.791V33.8636H163.902V35.303H165.942V36.2879Z" fill="#005AA9"/>
</g>
<defs>
<linearGradient id="paint0_linear_2705_65201" x1="11.1771" y1="32.2069" x2="27.4751" y2="8.14147" gradientUnits="userSpaceOnUse">
<stop stop-color="#0094D0"/>
<stop offset="1" stop-color="#0071BB"/>
</linearGradient>
<clipPath id="clip0_2705_65201">
<rect width="167" height="40" fill="white"/>
</clipPath>
</defs>
</svg>
