<svg width="176" height="40" viewBox="0 0 176 40" fill="none" xmlns="http://www.w3.org/2000/svg">
<path d="M14.1464 21.8724C14.1464 17.777 16.8215 14.3099 20.5242 13.1366C21.6274 10.6763 22.5796 7.96626 23.2672 4.98367C23.4637 4.10555 23.3654 3.79518 23.3428 3.74219H23.305C13.3152 3.74219 5.20703 11.8648 5.20703 21.8724C5.20703 26.7778 7.15662 31.2289 10.3228 34.4916L18.0532 29.3819C15.6955 27.724 14.1464 24.9837 14.1464 21.8724Z" fill="#8BC53F"/>
<path d="M28.943 4.64819L26.676 13.3462C30.0614 14.6936 32.4568 18.0017 32.4568 21.87V21.9078C32.4341 26.9571 28.346 31.0373 23.3058 31.0373C23.0187 31.0373 22.7315 31.0222 22.4519 30.9994C18.9608 34.0199 15.5679 35.7988 13.0742 36.8208C15.9835 38.8268 19.5049 40.0002 23.3058 40.0002C33.2805 40.0002 41.366 31.8927 41.3887 21.9078V21.87C41.3887 13.8382 36.1671 7.02518 28.9354 4.64062L28.943 4.64819Z" fill="#8BC53F"/>
<path d="M32.7348 0H23.0775L22.7072 1.61998C24.8004 1.9455 25.6165 2.94474 25.0649 5.405C20.8332 23.6109 7.37495 32.5284 7.37495 32.5284L6.97445 32.8312C7.19359 32.7858 7.30694 32.9069 7.0878 33.0734L6.80065 33.2324L6.64952 33.134C6.64952 33.2021 6.64196 33.2551 6.62685 33.293L6.70241 33.3914L6.42282 33.4519L6.36237 33.293C6.36993 33.7093 5.86364 33.7396 5.5387 33.8304C4.38255 34.4436 3.07526 34.8372 1.73775 34.9811C2.18359 35.1098 2.62943 34.7388 3.1206 34.9281C3.2264 35.1249 3.06771 35.2309 3.03748 35.3747C2.69744 35.1855 2.50852 36.2907 2.15336 35.5488L2.18359 35.7154C1.29947 35.7229 0.710061 36.1393 -0.0078125 36.2604C1.08789 36.2074 2.22137 36.2528 3.28685 36.0484C3.85359 36.0333 4.42033 35.9955 4.97196 35.9198C5.03241 36.1014 4.8964 36.1998 4.87373 36.3285C4.53368 36.1469 4.34477 37.2294 3.98961 36.5102L4.02739 36.6768C3.13572 36.6843 2.55386 37.0855 1.83599 37.2142C2.93925 37.1612 4.07273 37.2067 5.13821 37.0023C6.36237 36.972 7.57897 36.8963 8.64445 36.3285C8.75024 36.3134 8.93916 36.2226 8.93916 36.2226C10.7074 35.8213 26.7273 31.7335 33.4602 9.93944C33.7625 8.94777 34.7448 5.58668 35.1906 2.38456C35.1906 2.38456 35.6969 0.00757002 32.7499 0.00757002L32.7348 0Z" fill="url(#paint0_linear_5089_67683)"/>
<path d="M71.543 28.2109V30.6016H52.0195V28.2109H60.1758V23.3828H63.1523V28.2109H71.543ZM63.2461 14.5703C63.2461 17.6172 65.9883 20.8281 70.8633 21.5781L69.5977 24.0625C65.8477 23.3828 63.0586 21.3789 61.6523 18.7188C60.2461 21.3672 57.4805 23.3945 53.7539 24.0625L52.4883 21.5781C57.3164 20.8281 60.0352 17.5938 60.0586 14.5703V13.0469H63.2461V14.5703ZM82.6992 24.8828C87.1289 24.8828 89.8945 26.4062 89.8945 29.0078C89.8945 31.6562 87.1289 33.1797 82.6992 33.1797C78.1758 33.1797 75.3867 31.6562 75.3867 29.0078C75.3867 26.4062 78.1758 24.8828 82.6992 24.8828ZM82.6992 27.2031C79.8867 27.2031 78.3633 27.7891 78.3867 29.0078C78.3633 30.2266 79.8867 30.8594 82.6992 30.8594C85.4648 30.8594 86.9414 30.2266 86.9414 29.0078C86.9414 27.7891 85.4648 27.2031 82.6992 27.2031ZM89.6836 11.8281V16.7734H92.5664V19.2812H89.6836V24.4141H86.6836V11.8281H89.6836ZM76.3711 13.1641V15.8594H80.7305V13.1641H83.7305V23.1953H73.3945V13.1641H76.3711ZM76.3711 20.8281H80.7305V18.1797H76.3711V20.8281ZM110.426 11.8281V17.9453H113.309V20.4297H110.426V27.3672H107.426V11.8281H110.426ZM111.199 30.3906V32.7812H96.5977V25.7266H99.5742V30.3906H111.199ZM99.5039 13.2109C102.762 13.2109 105.316 15.4609 105.316 18.625C105.316 21.7422 102.762 24.0391 99.5039 24.0391C96.2227 24.0391 93.6445 21.7422 93.6445 18.625C93.6445 15.4609 96.2227 13.2109 99.5039 13.2109ZM99.5039 15.8125C97.8867 15.7891 96.5742 16.8438 96.5977 18.625C96.5742 20.3594 97.8867 21.4375 99.5039 21.4375C101.145 21.4375 102.387 20.3594 102.41 18.625C102.387 16.8438 101.145 15.7891 99.5039 15.8125ZM132.223 11.8516V27.4141H129.246V19.7734H125.754V17.3594H129.246V11.8516H132.223ZM132.738 30.3906V32.7812H118.066V26.0547H121.066V30.3906H132.738ZM122.309 16.0234C122.309 18.4844 123.809 21.1328 127.207 22.2344L125.73 24.6016C123.363 23.8398 121.746 22.2812 120.809 20.3359C119.871 22.4922 118.172 24.2031 115.652 25.0469L114.129 22.6094C117.645 21.5078 119.238 18.7188 119.262 16V15.6719H114.973V13.2812H126.551V15.6719H122.309V16.0234Z" fill="#005AA9"/>
<path d="M136.857 31L136.825 27.5938L144.95 20.125C147.075 18.0938 148.2 16.8438 148.2 15.0625C148.2 13.0625 146.669 11.8125 144.607 11.8125C142.482 11.8125 141.107 13.1562 141.107 15.3125H136.638C136.607 10.875 139.888 8.0625 144.669 8.0625C149.513 8.0625 152.732 10.8125 152.732 14.75C152.732 17.3125 151.482 19.4375 146.825 23.6562L143.388 27V27.125H153.044V31H136.857ZM155.513 27V23.2812L165.075 8.375H170.982V23.2188H173.857V27H170.982V31H166.513V27H155.513ZM160.263 23.2188H166.575V13.5312H166.357L160.263 23.0312V23.2188Z" fill="#8BC53F"/>
<defs>
<linearGradient id="paint0_linear_5089_67683" x1="11.1759" y1="32.1877" x2="27.4622" y2="8.12682" gradientUnits="userSpaceOnUse">
<stop stop-color="#0094D0"/>
<stop offset="1" stop-color="#0071BB"/>
</linearGradient>
</defs>
</svg>
