<svg width="167" height="40" viewBox="0 0 167 40" fill="none" xmlns="http://www.w3.org/2000/svg">
<g clip-path="url(#clip0_506_32376)">
<path d="M14.1425 21.8724C14.1425 17.777 16.8176 14.3099 20.5203 13.1366C21.6235 10.6763 22.5757 7.96626 23.2633 4.98367C23.4598 4.10555 23.3615 3.79518 23.3389 3.74219H23.3011C13.3113 3.74219 5.20312 11.8648 5.20312 21.8724C5.20312 26.7778 7.15272 31.2289 10.3189 34.4916L18.0493 29.3819C15.6916 27.724 14.1425 24.9837 14.1425 21.8724Z" fill="#8BC53F"/>
<path d="M28.9391 4.64819L26.6721 13.3462C30.0575 14.6936 32.4529 18.0017 32.4529 21.87V21.9078C32.4302 26.9571 28.3421 31.0373 23.3019 31.0373C23.0147 31.0373 22.7276 31.0222 22.448 30.9994C18.9569 34.0199 15.564 35.7988 13.0703 36.8208C15.9796 38.8268 19.5009 40.0002 23.3019 40.0002C33.2766 40.0002 41.3621 31.8927 41.3847 21.9078V21.87C41.3847 13.8382 36.1632 7.02518 28.9315 4.64062L28.9391 4.64819Z" fill="#8BC53F"/>
<path d="M56.7806 14.6328H50.7656V16.2452H56.7806V14.6328Z" fill="white"/>
<path d="M59.0643 17.5078H48.5078V19.1581H50.8277C50.4423 19.5139 50.1476 19.9151 49.9436 20.3541C49.7395 20.7932 49.6337 21.2323 49.6337 21.6865C49.6337 22.1634 49.732 22.6327 49.9436 23.0793C50.1476 23.5335 50.4347 23.9272 50.805 24.2754C51.1753 24.6236 51.6136 24.8962 52.1123 25.1005C52.611 25.3049 53.1627 25.4109 53.7596 25.4109C54.3566 25.4109 54.8855 25.3125 55.3843 25.1005C55.883 24.8962 56.3213 24.6161 56.6916 24.2754C57.0618 23.9348 57.3565 23.5411 57.5757 23.0793C57.7948 22.6327 57.9082 22.1634 57.9082 21.6865C57.9082 21.2323 57.7948 20.7932 57.5681 20.3541C57.3414 19.9151 57.0543 19.5214 56.6991 19.1581H59.0568V17.5078H59.0643ZM55.1576 23.0869C54.7722 23.526 54.3188 23.7455 53.7898 23.7455C53.2609 23.7455 52.7848 23.526 52.407 23.0869C52.0292 22.6479 51.8403 22.1255 51.8403 21.5199C51.8403 20.9143 52.0292 20.3996 52.407 19.9529C52.7848 19.5139 53.2458 19.2868 53.7898 19.2868C54.3339 19.2868 54.7722 19.5139 55.1576 19.9529C55.543 20.3996 55.7319 20.9143 55.7319 21.5199C55.7319 22.1255 55.543 22.6479 55.1576 23.0869Z" fill="white"/>
<path d="M51.6875 31.8571V26.6641H53.8713V30.1236H63.1735V31.8571H51.6875Z" fill="white"/>
<path d="M62.7242 27.4448H60.5781V14.2578H62.7242V18.497H65.301V20.2154H62.7242V27.4448Z" fill="white"/>
<path d="M80.4357 14.7341C80.4206 15.211 80.3979 15.7182 80.3526 16.2557C80.3148 16.7932 80.2619 17.3382 80.1939 17.8908C80.141 18.4359 80.0806 18.9658 80.005 19.4805C79.9294 19.9953 79.8539 20.4722 79.7783 20.9113H82.6951V22.6448H75.8716V25.5668H80.1561V32.0846H77.9723V27.2549H68.3301V25.5668H73.5668V22.6448H66.3125V20.9113H77.534C77.6625 20.2375 77.7834 19.4957 77.8892 18.6933C77.9949 17.8908 78.0705 17.149 78.1083 16.4601H68.5115V14.7266H80.4357V14.7341Z" fill="white"/>
<path d="M90.6274 28.7343V24.5859H92.9321V28.7343H99.9597V30.4678H83.5469V28.7343H90.6274Z" fill="white"/>
<path d="M92.9032 14.9375V17.1252C92.9032 17.7157 93.0618 18.3213 93.3792 18.9269C93.6966 19.5325 94.1349 20.1003 94.6865 20.6453C95.2457 21.2055 95.888 21.7051 96.6285 22.1442C97.3691 22.5908 98.155 22.939 98.9937 23.1888L97.6033 24.5817C96.1827 24.1048 94.9963 23.4689 94.0291 22.6816C93.0618 21.8944 92.3137 21.0238 91.7697 20.07C91.218 21.0465 90.4246 21.9246 89.4045 22.6968C88.3843 23.4689 87.2131 24.0972 85.8755 24.5817L84.5078 23.1888C85.3315 22.939 86.1098 22.5908 86.8503 22.1442C87.5909 21.7051 88.2483 21.2055 88.8151 20.668C89.3742 20.123 89.8125 19.5476 90.145 18.9345C90.4775 18.3289 90.6437 17.7233 90.6437 17.1252V14.9375H92.9107H92.9032Z" fill="white"/>
<path d="M107.158 14.6953V17.7158H103.183V14.6953H100.984V23.6128H109.281V14.6953H107.158ZM107.158 21.8868H103.183V19.4266H107.158V21.8868Z" fill="white"/>
<path d="M113.199 27.316C112.957 26.8164 112.624 26.3773 112.194 26.0064C111.786 25.6203 111.295 25.3099 110.735 25.0828C110.176 24.8557 109.579 24.7422 108.944 24.7422C108.31 24.7422 107.667 24.8557 107.108 25.0828C106.549 25.3099 106.05 25.6203 105.635 26.0064C105.227 26.3773 104.902 26.8164 104.66 27.316C104.426 27.8232 104.305 28.3379 104.305 28.8754C104.305 29.4129 104.426 29.9504 104.66 30.4348C104.902 30.9269 105.219 31.3584 105.635 31.7293C106.058 32.1002 106.549 32.3955 107.108 32.615C107.667 32.8345 108.279 32.9481 108.944 32.9481C109.609 32.9481 110.176 32.8345 110.735 32.615C111.302 32.3955 111.786 32.1002 112.194 31.7293C112.617 31.3584 112.949 30.9269 113.199 30.4348C113.441 29.9504 113.569 29.428 113.569 28.8754C113.569 28.3228 113.448 27.8232 113.199 27.316ZM110.637 30.5635C110.169 31.0404 109.594 31.2751 108.922 31.2751C108.249 31.2751 107.675 31.0404 107.206 30.5635C106.738 30.0866 106.504 29.5189 106.504 28.8603C106.504 28.2017 106.738 27.6642 107.206 27.1873C107.675 26.7028 108.249 26.4606 108.922 26.4606C109.594 26.4606 110.169 26.7028 110.637 27.1873C111.106 27.6718 111.34 28.232 111.34 28.8603C111.34 29.4886 111.106 30.0866 110.637 30.5635Z" fill="white"/>
<path d="M113.927 24.8029H111.781V14.2578H113.927V17.9368H116.504V19.6855H113.927V24.8029Z" fill="white"/>
<path d="M126.709 17.4369C126.46 16.907 126.135 16.4452 125.727 16.044C125.304 15.6428 124.812 15.3248 124.261 15.0902C123.702 14.8555 123.112 14.7344 122.477 14.7344C121.843 14.7344 121.2 14.8555 120.641 15.0902C120.082 15.3248 119.598 15.6428 119.205 16.044C118.797 16.4376 118.472 16.907 118.238 17.4369C118.012 17.9668 117.891 18.527 117.891 19.125C117.891 19.723 118.004 20.2605 118.238 20.7828C118.472 21.3127 118.79 21.7669 119.205 22.1681C119.598 22.5693 120.082 22.8797 120.641 23.1144C121.2 23.3415 121.812 23.4626 122.477 23.4626C123.142 23.4626 123.709 23.3491 124.261 23.1144C124.812 22.8797 125.304 22.5693 125.727 22.1681C126.135 21.7745 126.467 21.3127 126.709 20.7828C126.951 20.2605 127.079 19.7079 127.079 19.125C127.079 18.5421 126.958 17.9668 126.709 17.4369ZM124.601 20.1469C124.472 20.4725 124.314 20.7525 124.117 20.9948C123.906 21.2446 123.664 21.4414 123.384 21.5777C123.105 21.7139 122.81 21.7821 122.493 21.7821C121.828 21.7821 121.276 21.5171 120.823 20.9872C120.377 20.4573 120.15 19.829 120.15 19.1023C120.15 18.3756 120.377 17.7397 120.823 17.2173C121.276 16.6874 121.828 16.4225 122.493 16.4225C123.158 16.4225 123.671 16.6874 124.117 17.2173C124.563 17.7472 124.79 18.3756 124.79 19.1023C124.79 19.4732 124.729 19.8214 124.601 20.1469Z" fill="white"/>
<path d="M120.602 31.8574V26.1875H122.785V30.1239H132.08V31.8574H120.602Z" fill="white"/>
<path d="M138.734 31.8574V26.1875H140.918V30.1239H150.22V31.8574H138.734Z" fill="white"/>
<path d="M155.336 31.8581V27.6719H157.52V30.1246H167.003V31.8581H155.336Z" fill="white"/>
<path d="M131.63 14.2578V17.952H134.222V19.6628H131.63V26.9679H129.484V14.2578H131.63Z" fill="white"/>
<path d="M145.314 16.7116H141.868V18.4829C141.868 19.1037 141.989 19.6941 142.223 20.2619C142.458 20.8221 142.775 21.3444 143.175 21.8213C143.576 22.2982 144.037 22.7449 144.566 23.1461C145.095 23.5473 145.654 23.8955 146.236 24.1907L144.626 25.5003C143.742 24.9856 142.964 24.4027 142.291 23.7592C141.626 23.1158 141.12 22.4496 140.772 21.7608C140.372 22.5935 139.813 23.3505 139.072 24.0318C138.339 24.7055 137.523 25.3035 136.624 25.8183L134.977 24.5692C135.626 24.2362 136.231 23.8577 136.805 23.4337C137.372 23.0098 137.871 22.5405 138.294 22.0181C138.717 21.5034 139.057 20.9508 139.306 20.3679C139.556 19.7774 139.684 19.1567 139.684 18.4981V16.7116H136.231V15.0234H145.314V16.7116Z" fill="white"/>
<path d="M147.748 20.2154H144.461V18.497H147.748V14.2578H149.894V27.2026H147.748V20.2154Z" fill="white"/>
<path d="M156.349 26.8558V24.2215H152.359V22.5485H156.289C156.75 22.5485 157.294 22.5333 157.906 22.5106C158.526 22.4804 159.16 22.4425 159.825 22.3895C160.475 22.3365 161.125 22.2684 161.782 22.1776C162.44 22.0867 163.037 21.9883 163.581 21.8672V23.5553C162.84 23.7067 162.039 23.8203 161.193 23.9111C160.339 24.0019 159.455 24.0701 158.541 24.1079V26.8407H156.357L156.349 26.8558Z" fill="white"/>
<path d="M161.736 16.5667C161.502 16.1125 161.199 15.7188 160.814 15.3706C160.429 15.0375 159.975 14.7726 159.454 14.5682C158.932 14.3638 158.373 14.2578 157.776 14.2578C157.179 14.2578 156.582 14.3638 156.061 14.5682C155.54 14.7726 155.086 15.0451 154.701 15.3933C154.315 15.734 154.021 16.1352 153.801 16.5742C153.582 17.0209 153.477 17.4826 153.477 17.9747C153.477 18.4667 153.582 18.9512 153.801 19.4054C154.021 19.8521 154.323 20.2457 154.701 20.5788C155.086 20.927 155.54 21.192 156.061 21.3963C156.582 21.6007 157.157 21.6991 157.776 21.6991C158.396 21.6991 158.932 21.6007 159.454 21.3963C159.975 21.1995 160.429 20.927 160.814 20.5788C161.199 20.2457 161.509 19.8596 161.736 19.4054C161.97 18.9512 162.083 18.4743 162.083 17.9747C162.083 17.4751 161.97 17.0133 161.736 16.5667ZM159.25 19.4433C158.834 19.8596 158.343 20.0716 157.769 20.0716C157.194 20.0716 156.688 19.8596 156.28 19.4433C155.872 19.0269 155.66 18.5424 155.66 17.9823C155.66 17.4221 155.864 16.9527 156.28 16.5288C156.688 16.1049 157.187 15.8929 157.769 15.8929C158.351 15.8929 158.834 16.1049 159.25 16.5288C159.665 16.9527 159.877 17.4372 159.877 17.9823C159.877 18.5273 159.665 19.0269 159.25 19.4433Z" fill="white"/>
<path d="M164.56 26.3699H160.555V24.7044H164.56V14.2578H166.683V27.9974H164.56V26.3699Z" fill="white"/>
<path d="M32.7348 0H23.0775L22.7072 1.61998C24.8004 1.9455 25.6165 2.94474 25.0649 5.405C20.8332 23.6109 7.37495 32.5284 7.37495 32.5284L6.97445 32.8312C7.19359 32.7858 7.30694 32.9069 7.0878 33.0734L6.80065 33.2324L6.64952 33.134C6.64952 33.2021 6.64196 33.2551 6.62685 33.293L6.70241 33.3914L6.42282 33.4519L6.36237 33.293C6.36993 33.7093 5.86364 33.7396 5.5387 33.8304C4.38255 34.4436 3.07526 34.8372 1.73775 34.9811C2.18359 35.1098 2.62943 34.7388 3.1206 34.9281C3.2264 35.1249 3.06771 35.2309 3.03748 35.3747C2.69744 35.1855 2.50852 36.2907 2.15336 35.5488L2.18359 35.7154C1.29947 35.7229 0.710061 36.1393 -0.0078125 36.2604C1.08789 36.2074 2.22137 36.2528 3.28685 36.0484C3.85359 36.0333 4.42033 35.9955 4.97196 35.9198C5.03241 36.1014 4.8964 36.1998 4.87373 36.3285C4.53368 36.1469 4.34477 37.2294 3.98961 36.5102L4.02739 36.6768C3.13572 36.6843 2.55386 37.0855 1.83599 37.2142C2.93925 37.1612 4.07273 37.2067 5.13821 37.0023C6.36237 36.972 7.57897 36.8963 8.64445 36.3285C8.75024 36.3134 8.93916 36.2226 8.93916 36.2226C10.7074 35.8213 26.7273 31.7335 33.4602 9.93944C33.7625 8.94777 34.7448 5.58668 35.1906 2.38456C35.1906 2.38456 35.6969 0.00757002 32.7499 0.00757002L32.7348 0Z" fill="url(#paint0_linear_506_32376)"/>
</g>
<defs>
<linearGradient id="paint0_linear_506_32376" x1="11.1759" y1="32.1877" x2="27.4622" y2="8.12682" gradientUnits="userSpaceOnUse">
<stop stop-color="#0094D0"/>
<stop offset="1" stop-color="#0071BB"/>
</linearGradient>
<clipPath id="clip0_506_32376">
<rect width="167" height="40" fill="white"/>
</clipPath>
</defs>
</svg>
