<svg width="32" height="30" viewBox="0 0 32 30" fill="none" xmlns="http://www.w3.org/2000/svg">
<path d="M10.6811 16.4198C10.6811 13.3516 12.6697 10.738 15.4538 9.88569C16.3061 8.06751 16.9879 6.02205 17.4993 3.74933C17.6697 3.06751 17.5561 2.84024 17.5561 2.84024C17.5561 2.84024 17.5561 2.84024 17.4993 2.84024C10.0561 2.78342 3.97656 8.91978 3.97656 16.4198C3.97656 20.113 5.45384 23.4652 7.8402 25.9084L13.6357 22.0448C11.8743 20.7948 10.6811 18.7493 10.6811 16.4198Z" fill="#8BC53F"/>
<path d="M21.8184 3.4668L20.1138 10.0009C22.6706 11.0236 24.4888 13.4668 24.4888 16.4213C24.4888 20.2282 21.4206 23.2963 17.6138 23.2963C17.3865 23.2963 17.1593 23.2963 16.9888 23.2395C14.3752 25.5123 11.8184 26.8191 9.94336 27.6145C12.1593 29.0918 14.7729 30.0009 17.6138 30.0009C25.1138 30.0009 31.1934 23.9213 31.1934 16.4213C31.1934 10.3986 27.2729 5.28498 21.8184 3.4668Z" fill="#8BC53F"/>
<path d="M24.6591 0H17.3864L17.1023 1.19318C18.6932 1.42045 19.2614 2.21591 18.8636 4.03409C15.7386 17.7273 5.625 24.4318 5.625 24.4318L5.34091 24.6591C5.51136 24.6023 5.56818 24.7159 5.39773 24.8295L5.17045 24.9432L5.05682 24.8864C5.05682 24.9432 5.05682 25 5.05682 25L5.11364 25.0568L4.88636 25.1136L4.82955 25C4.82955 25.3409 4.43182 25.3409 4.20455 25.3977C3.35227 25.8523 2.32955 26.1364 1.36364 26.25C1.70455 26.3636 2.04545 26.0795 2.38636 26.1932C2.44318 26.3636 2.32955 26.4205 2.32955 26.5341C2.04545 26.4205 1.93182 27.2159 1.64773 26.6477V26.7614C0.965909 26.7614 0.511364 27.1023 0 27.1591C0.852273 27.1023 1.70455 27.1591 2.5 26.9886C2.95455 26.9886 3.35227 26.9318 3.75 26.875C3.80682 26.9886 3.69318 27.1023 3.69318 27.1591C3.40909 27.0455 3.29545 27.8409 3.01136 27.2727V27.3864C2.32955 27.3864 1.93182 27.6705 1.36364 27.7841C2.21591 27.7273 3.06818 27.7841 3.86364 27.6136C4.77273 27.6136 5.68182 27.5568 6.47727 27.1023C6.53409 27.1023 6.70455 27.0455 6.70455 27.0455C8.01136 26.7614 20.0568 23.6932 25.1136 7.32955C25.3409 6.59091 26.0795 4.03409 26.4205 1.64773C26.5341 1.76136 26.875 0 24.6591 0Z" fill="url(#paint0_linear_1444_2836)"/>
<defs>
<linearGradient id="paint0_linear_1444_2836" x1="8.46091" y1="24.1552" x2="20.6729" y2="6.07733" gradientUnits="userSpaceOnUse">
<stop stop-color="#0094D0"/>
<stop offset="1" stop-color="#0071BB"/>
</linearGradient>
</defs>
</svg>
