<svg width="175" height="48" viewBox="0 0 175 48" fill="none" xmlns="http://www.w3.org/2000/svg">
<g clip-path="url(#clip0_506_26985)" filter="url(#filter0_d_506_26985)">
<path d="M18.1425 21.8724C18.1425 17.777 20.8176 14.3099 24.5203 13.1366C25.6235 10.6763 26.5757 7.96626 27.2633 4.98367C27.4598 4.10555 27.3615 3.79518 27.3389 3.74219H27.3011C17.3113 3.74219 9.20312 11.8648 9.20312 21.8724C9.20312 26.7778 11.1527 31.2289 14.3189 34.4916L22.0493 29.3819C19.6916 27.724 18.1425 24.9837 18.1425 21.8724Z" fill="#8BC53F"/>
<path d="M32.9391 4.64819L30.6721 13.3462C34.0575 14.6936 36.4529 18.0017 36.4529 21.87V21.9078C36.4302 26.9571 32.3421 31.0373 27.3019 31.0373C27.0147 31.0373 26.7276 31.0222 26.448 30.9994C22.9569 34.0199 19.564 35.7988 17.0703 36.8208C19.9796 38.8268 23.5009 40.0002 27.3019 40.0002C37.2766 40.0002 45.3621 31.8927 45.3847 21.9078V21.87C45.3847 13.8382 40.1632 7.02518 32.9315 4.64062L32.9391 4.64819Z" fill="#8BC53F"/>
<path d="M60.7806 14.6328H54.7656V16.2452H60.7806V14.6328Z" fill="#005AA9"/>
<path d="M63.0643 17.5078H52.5078V19.1581H54.8277C54.4423 19.5139 54.1476 19.9151 53.9436 20.3541C53.7395 20.7932 53.6337 21.2323 53.6337 21.6865C53.6337 22.1634 53.732 22.6327 53.9436 23.0793C54.1476 23.5335 54.4347 23.9272 54.805 24.2754C55.1753 24.6236 55.6136 24.8962 56.1123 25.1005C56.611 25.3049 57.1627 25.4109 57.7596 25.4109C58.3566 25.4109 58.8855 25.3125 59.3843 25.1005C59.883 24.8962 60.3213 24.6161 60.6916 24.2754C61.0618 23.9348 61.3565 23.5411 61.5757 23.0793C61.7948 22.6327 61.9082 22.1634 61.9082 21.6865C61.9082 21.2323 61.7948 20.7932 61.5681 20.3541C61.3414 19.9151 61.0543 19.5214 60.6991 19.1581H63.0568V17.5078H63.0643ZM59.1576 23.0869C58.7722 23.526 58.3188 23.7455 57.7898 23.7455C57.2609 23.7455 56.7848 23.526 56.407 23.0869C56.0292 22.6479 55.8403 22.1255 55.8403 21.5199C55.8403 20.9143 56.0292 20.3996 56.407 19.9529C56.7848 19.5139 57.2458 19.2868 57.7898 19.2868C58.3339 19.2868 58.7722 19.5139 59.1576 19.9529C59.543 20.3996 59.7319 20.9143 59.7319 21.5199C59.7319 22.1255 59.543 22.6479 59.1576 23.0869Z" fill="#005AA9"/>
<path d="M55.6875 31.8571V26.6641H57.8713V30.1236H67.1735V31.8571H55.6875Z" fill="#005AA9"/>
<path d="M66.7242 27.4448H64.5781V14.2578H66.7242V18.497H69.301V20.2154H66.7242V27.4448Z" fill="#005AA9"/>
<path d="M84.4357 14.7341C84.4206 15.211 84.3979 15.7182 84.3526 16.2557C84.3148 16.7932 84.2619 17.3382 84.1939 17.8908C84.141 18.4359 84.0806 18.9658 84.005 19.4805C83.9294 19.9953 83.8539 20.4722 83.7783 20.9113H86.6951V22.6448H79.8716V25.5668H84.1561V32.0846H81.9723V27.2549H72.3301V25.5668H77.5668V22.6448H70.3125V20.9113H81.534C81.6625 20.2375 81.7834 19.4957 81.8892 18.6933C81.9949 17.8908 82.0705 17.149 82.1083 16.4601H72.5115V14.7266H84.4357V14.7341Z" fill="#005AA9"/>
<path d="M94.6274 28.7343V24.5859H96.9321V28.7343H103.96V30.4678H87.5469V28.7343H94.6274Z" fill="#005AA9"/>
<path d="M96.9032 14.9375V17.1252C96.9032 17.7157 97.0618 18.3213 97.3792 18.9269C97.6966 19.5325 98.1349 20.1003 98.6865 20.6453C99.2457 21.2055 99.888 21.7051 100.629 22.1442C101.369 22.5908 102.155 22.939 102.994 23.1888L101.603 24.5817C100.183 24.1048 98.9963 23.4689 98.0291 22.6816C97.0618 21.8944 96.3137 21.0238 95.7697 20.07C95.218 21.0465 94.4246 21.9246 93.4045 22.6968C92.3843 23.4689 91.2131 24.0972 89.8755 24.5817L88.5078 23.1888C89.3315 22.939 90.1098 22.5908 90.8503 22.1442C91.5909 21.7051 92.2483 21.2055 92.8151 20.668C93.3742 20.123 93.8125 19.5476 94.145 18.9345C94.4775 18.3289 94.6437 17.7233 94.6437 17.1252V14.9375H96.9107H96.9032Z" fill="#005AA9"/>
<path d="M111.158 14.6953V17.7158H107.183V14.6953H104.984V23.6128H113.281V14.6953H111.158ZM111.158 21.8868H107.183V19.4266H111.158V21.8868Z" fill="#005AA9"/>
<path d="M117.199 27.316C116.957 26.8164 116.624 26.3773 116.194 26.0064C115.786 25.6203 115.295 25.3099 114.735 25.0828C114.176 24.8557 113.579 24.7422 112.944 24.7422C112.31 24.7422 111.667 24.8557 111.108 25.0828C110.549 25.3099 110.05 25.6203 109.635 26.0064C109.227 26.3773 108.902 26.8164 108.66 27.316C108.426 27.8232 108.305 28.3379 108.305 28.8754C108.305 29.4129 108.426 29.9504 108.66 30.4348C108.902 30.9269 109.219 31.3584 109.635 31.7293C110.058 32.1002 110.549 32.3955 111.108 32.615C111.667 32.8345 112.279 32.9481 112.944 32.9481C113.609 32.9481 114.176 32.8345 114.735 32.615C115.302 32.3955 115.786 32.1002 116.194 31.7293C116.617 31.3584 116.949 30.9269 117.199 30.4348C117.441 29.9504 117.569 29.428 117.569 28.8754C117.569 28.3228 117.448 27.8232 117.199 27.316ZM114.637 30.5635C114.169 31.0404 113.594 31.2751 112.922 31.2751C112.249 31.2751 111.675 31.0404 111.206 30.5635C110.738 30.0866 110.504 29.5189 110.504 28.8603C110.504 28.2017 110.738 27.6642 111.206 27.1873C111.675 26.7028 112.249 26.4606 112.922 26.4606C113.594 26.4606 114.169 26.7028 114.637 27.1873C115.106 27.6718 115.34 28.232 115.34 28.8603C115.34 29.4886 115.106 30.0866 114.637 30.5635Z" fill="#005AA9"/>
<path d="M117.927 24.8029H115.781V14.2578H117.927V17.9368H120.504V19.6855H117.927V24.8029Z" fill="#005AA9"/>
<path d="M130.709 17.4369C130.46 16.907 130.135 16.4452 129.727 16.044C129.304 15.6428 128.812 15.3248 128.261 15.0902C127.702 14.8555 127.112 14.7344 126.477 14.7344C125.843 14.7344 125.2 14.8555 124.641 15.0902C124.082 15.3248 123.598 15.6428 123.205 16.044C122.797 16.4376 122.472 16.907 122.238 17.4369C122.012 17.9668 121.891 18.527 121.891 19.125C121.891 19.723 122.004 20.2605 122.238 20.7828C122.472 21.3127 122.79 21.7669 123.205 22.1681C123.598 22.5693 124.082 22.8797 124.641 23.1144C125.2 23.3415 125.812 23.4626 126.477 23.4626C127.142 23.4626 127.709 23.3491 128.261 23.1144C128.812 22.8797 129.304 22.5693 129.727 22.1681C130.135 21.7745 130.467 21.3127 130.709 20.7828C130.951 20.2605 131.079 19.7079 131.079 19.125C131.079 18.5421 130.958 17.9668 130.709 17.4369ZM128.601 20.1469C128.472 20.4725 128.314 20.7525 128.117 20.9948C127.906 21.2446 127.664 21.4414 127.384 21.5777C127.105 21.7139 126.81 21.7821 126.493 21.7821C125.828 21.7821 125.276 21.5171 124.823 20.9872C124.377 20.4573 124.15 19.829 124.15 19.1023C124.15 18.3756 124.377 17.7397 124.823 17.2173C125.276 16.6874 125.828 16.4225 126.493 16.4225C127.158 16.4225 127.671 16.6874 128.117 17.2173C128.563 17.7472 128.79 18.3756 128.79 19.1023C128.79 19.4732 128.729 19.8214 128.601 20.1469Z" fill="#005AA9"/>
<path d="M124.602 31.8574V26.1875H126.785V30.1239H136.08V31.8574H124.602Z" fill="#005AA9"/>
<path d="M142.734 31.8574V26.1875H144.918V30.1239H154.22V31.8574H142.734Z" fill="#005AA9"/>
<path d="M159.336 31.8581V27.6719H161.52V30.1246H171.003V31.8581H159.336Z" fill="#005AA9"/>
<path d="M135.63 14.2578V17.952H138.222V19.6628H135.63V26.9679H133.484V14.2578H135.63Z" fill="#005AA9"/>
<path d="M149.314 16.7116H145.868V18.4829C145.868 19.1037 145.989 19.6941 146.223 20.2619C146.458 20.8221 146.775 21.3444 147.175 21.8213C147.576 22.2982 148.037 22.7449 148.566 23.1461C149.095 23.5473 149.654 23.8955 150.236 24.1907L148.626 25.5003C147.742 24.9856 146.964 24.4027 146.291 23.7592C145.626 23.1158 145.12 22.4496 144.772 21.7608C144.372 22.5935 143.813 23.3505 143.072 24.0318C142.339 24.7055 141.523 25.3035 140.624 25.8183L138.977 24.5692C139.626 24.2362 140.231 23.8577 140.805 23.4337C141.372 23.0098 141.871 22.5405 142.294 22.0181C142.717 21.5034 143.057 20.9508 143.306 20.3679C143.556 19.7774 143.684 19.1567 143.684 18.4981V16.7116H140.231V15.0234H149.314V16.7116Z" fill="#005AA9"/>
<path d="M151.748 20.2154H148.461V18.497H151.748V14.2578H153.894V27.2026H151.748V20.2154Z" fill="#005AA9"/>
<path d="M160.349 26.8558V24.2215H156.359V22.5485H160.289C160.75 22.5485 161.294 22.5333 161.906 22.5106C162.526 22.4804 163.16 22.4425 163.825 22.3895C164.475 22.3365 165.125 22.2684 165.782 22.1776C166.44 22.0867 167.037 21.9883 167.581 21.8672V23.5553C166.84 23.7067 166.039 23.8203 165.193 23.9111C164.339 24.0019 163.455 24.0701 162.541 24.1079V26.8407H160.357L160.349 26.8558Z" fill="#005AA9"/>
<path d="M165.736 16.5667C165.502 16.1125 165.199 15.7188 164.814 15.3706C164.429 15.0375 163.975 14.7726 163.454 14.5682C162.932 14.3638 162.373 14.2578 161.776 14.2578C161.179 14.2578 160.582 14.3638 160.061 14.5682C159.54 14.7726 159.086 15.0451 158.701 15.3933C158.315 15.734 158.021 16.1352 157.801 16.5742C157.582 17.0209 157.477 17.4826 157.477 17.9747C157.477 18.4667 157.582 18.9512 157.801 19.4054C158.021 19.8521 158.323 20.2457 158.701 20.5788C159.086 20.927 159.54 21.192 160.061 21.3963C160.582 21.6007 161.157 21.6991 161.776 21.6991C162.396 21.6991 162.932 21.6007 163.454 21.3963C163.975 21.1995 164.429 20.927 164.814 20.5788C165.199 20.2457 165.509 19.8596 165.736 19.4054C165.97 18.9512 166.083 18.4743 166.083 17.9747C166.083 17.4751 165.97 17.0133 165.736 16.5667ZM163.25 19.4433C162.834 19.8596 162.343 20.0716 161.769 20.0716C161.194 20.0716 160.688 19.8596 160.28 19.4433C159.872 19.0269 159.66 18.5424 159.66 17.9823C159.66 17.4221 159.864 16.9527 160.28 16.5288C160.688 16.1049 161.187 15.8929 161.769 15.8929C162.351 15.8929 162.834 16.1049 163.25 16.5288C163.665 16.9527 163.877 17.4372 163.877 17.9823C163.877 18.5273 163.665 19.0269 163.25 19.4433Z" fill="#005AA9"/>
<path d="M168.56 26.3699H164.555V24.7044H168.56V14.2578H170.683V27.9974H168.56V26.3699Z" fill="#005AA9"/>
<path d="M36.7348 0H27.0775L26.7072 1.61998C28.8004 1.9455 29.6165 2.94474 29.0649 5.405C24.8332 23.6109 11.3749 32.5284 11.3749 32.5284L10.9745 32.8312C11.1936 32.7858 11.3069 32.9069 11.0878 33.0734L10.8006 33.2324L10.6495 33.134C10.6495 33.2021 10.642 33.2551 10.6268 33.293L10.7024 33.3914L10.4228 33.4519L10.3624 33.293C10.3699 33.7093 9.86364 33.7396 9.5387 33.8304C8.38255 34.4436 7.07526 34.8372 5.73775 34.9811C6.18359 35.1098 6.62943 34.7388 7.1206 34.9281C7.2264 35.1249 7.06771 35.2309 7.03748 35.3747C6.69744 35.1855 6.50852 36.2907 6.15336 35.5488L6.18359 35.7154C5.29947 35.7229 4.71006 36.1393 3.99219 36.2604C5.08789 36.2074 6.22137 36.2528 7.28685 36.0484C7.85359 36.0333 8.42033 35.9955 8.97196 35.9198C9.03241 36.1014 8.8964 36.1998 8.87373 36.3285C8.53368 36.1469 8.34477 37.2294 7.98961 36.5102L8.02739 36.6768C7.13572 36.6843 6.55386 37.0855 5.83599 37.2142C6.93925 37.1612 8.07273 37.2067 9.13821 37.0023C10.3624 36.972 11.579 36.8963 12.6445 36.3285C12.7502 36.3134 12.9392 36.2226 12.9392 36.2226C14.7074 35.8213 30.7273 31.7335 37.4602 9.93944C37.7625 8.94777 38.7448 5.58668 39.1906 2.38456C39.1906 2.38456 39.6969 0.00757002 36.7499 0.00757002L36.7348 0Z" fill="url(#paint0_linear_506_26985)"/>
</g>
<defs>
<filter id="filter0_d_506_26985" x="0" y="0" width="175" height="48" filterUnits="userSpaceOnUse" color-interpolation-filters="sRGB">
<feFlood flood-opacity="0" result="BackgroundImageFix"/>
<feColorMatrix in="SourceAlpha" type="matrix" values="0 0 0 0 0 0 0 0 0 0 0 0 0 0 0 0 0 0 127 0" result="hardAlpha"/>
<feOffset dy="4"/>
<feGaussianBlur stdDeviation="2"/>
<feComposite in2="hardAlpha" operator="out"/>
<feColorMatrix type="matrix" values="0 0 0 0 0 0 0 0 0 0 0 0 0 0 0 0 0 0 0.25 0"/>
<feBlend mode="normal" in2="BackgroundImageFix" result="effect1_dropShadow_506_26985"/>
<feBlend mode="normal" in="SourceGraphic" in2="effect1_dropShadow_506_26985" result="shape"/>
</filter>
<linearGradient id="paint0_linear_506_26985" x1="15.1759" y1="32.1877" x2="31.4622" y2="8.12682" gradientUnits="userSpaceOnUse">
<stop stop-color="#0094D0"/>
<stop offset="1" stop-color="#0071BB"/>
</linearGradient>
<clipPath id="clip0_506_26985">
<rect width="167" height="40" fill="white" transform="translate(4)"/>
</clipPath>
</defs>
</svg>
