<svg width="940" height="145" viewBox="0 0 940 145" fill="none" xmlns="http://www.w3.org/2000/svg">
<g clip-path="url(#clip0_406_3411)">
<path d="M248.357 0.5L329.251 72.502L249.746 144.5H1.30762L80.8496 73.2227L81.2637 72.8525L80.8516 72.4795L1.29883 0.5H248.357Z" fill="#E7F0EA" fill-opacity="0.5" stroke="#E7F0EA"/>
<path d="M180.058 50.6387V62.3105H177.808V50.6387H180.058ZM166.611 58.3555C169.292 57.459 170.46 55.2354 170.46 53.0645V51.5176H172.798V53.0645C172.781 55.1826 173.915 57.248 176.542 58.0918L175.4 59.8496C173.589 59.252 172.35 58.0566 171.638 56.5361C170.917 58.1709 169.643 59.4893 167.771 60.1309L166.611 58.3555ZM169.335 66.3359V61.1855H171.603V64.543H180.48V66.3359H169.335ZM191.883 52.291V54.0488H188.649C188.675 55.6924 189.871 57.3623 192.446 58.0215L191.409 59.7441C189.581 59.2871 188.306 58.2764 187.577 56.9756C186.882 58.4521 185.599 59.6211 183.709 60.166L182.655 58.4258C185.212 57.6875 186.399 55.8594 186.416 54.0488H183.2V52.291H186.416V50.5508H188.684V52.291H191.883ZM185.274 63.5586C185.274 61.6426 187.383 60.5615 190.776 60.5527C194.186 60.5615 196.287 61.6426 196.295 63.5586C196.287 65.501 194.186 66.626 190.776 66.6172C187.383 66.626 185.274 65.501 185.274 63.5586ZM187.506 63.5586C187.506 64.4375 188.658 64.9121 190.776 64.9121C192.938 64.9121 194.054 64.4375 194.063 63.5586C194.054 62.7061 192.938 62.2754 190.776 62.2754C188.658 62.2754 187.506 62.7061 187.506 63.5586ZM191.409 56.7031V54.9102H194.01V50.6211H196.243V60.2891H194.01V56.7031H191.409Z" fill="#537C60"/>
<path d="M131.405 91.4375V92.4531H118.686V91.4375H124.373V88.0312H125.577V91.4375H131.405ZM125.608 82.3906C125.608 84.7188 128.358 86.75 130.78 87.1719L130.233 88.1875C128.116 87.7578 125.881 86.3203 124.983 84.3125C124.069 86.3125 121.85 87.7578 119.733 88.1875L119.186 87.1719C121.608 86.75 124.327 84.7188 124.327 82.3906V81.3281H125.608V82.3906ZM139.4 89.1094C142.26 89.1094 143.978 90.0469 143.978 91.6719C143.978 93.3125 142.26 94.25 139.4 94.2656C136.541 94.25 134.791 93.3125 134.791 91.6719C134.791 90.0469 136.541 89.1094 139.4 89.1094ZM139.4 90.0781C137.307 90.0938 136.01 90.6719 136.025 91.6719C136.01 92.6719 137.307 93.2656 139.4 93.2656C141.51 93.2656 142.791 92.6719 142.791 91.6719C142.791 90.6719 141.51 90.0938 139.4 90.0781ZM143.853 80.375V83.875H145.947V84.9219H143.853V88.7344H142.635V80.375H143.853ZM134.791 81.25V83.375H138.838V81.25H140.057V87.6562H133.588V81.25H134.791ZM134.791 86.6562H138.838V84.3438H134.791V86.6562ZM158.162 80.375V84.6094H160.255V85.6406H158.162V90.625H156.943V80.375H158.162ZM158.802 92.9375V93.9688H149.474V89.5625H150.677V92.9375H158.802ZM151.208 81.3594C153.287 81.3594 154.849 82.7656 154.865 84.7812C154.849 86.7969 153.287 88.2031 151.208 88.2031C149.13 88.2031 147.552 86.7969 147.568 84.7812C147.552 82.7656 149.13 81.3594 151.208 81.3594ZM151.208 82.4375C149.833 82.4375 148.755 83.4062 148.771 84.7812C148.755 86.1562 149.833 87.125 151.208 87.125C152.615 87.125 153.662 86.1562 153.662 84.7812C153.662 83.4062 152.615 82.4375 151.208 82.4375ZM173.126 80.3906V90.5781H171.892V85.25H169.032V84.2344H171.892V80.3906H173.126ZM173.517 92.9375V93.9688H164.204V89.6562H165.438V92.9375H173.517ZM166.438 83.25C166.438 85.0469 167.829 86.7969 169.86 87.4844L169.22 88.4688C167.649 87.9062 166.438 86.7344 165.845 85.2969C165.243 86.8984 163.962 88.1797 162.313 88.7969L161.673 87.7969C163.72 87.0781 165.204 85.25 165.204 83.25V82.5312H162.063V81.5156H169.548V82.5312H166.438V83.25ZM180.914 93L180.898 91.9688L184.758 87.9062C186.102 86.4844 186.742 85.7188 186.742 84.6719C186.742 83.5156 185.758 82.75 184.492 82.75C183.148 82.75 182.289 83.6094 182.289 84.875H180.961C180.945 82.875 182.492 81.5312 184.539 81.5312C186.586 81.5312 188.055 82.9062 188.055 84.6719C188.055 85.9375 187.461 86.9219 185.461 88.9844L182.867 91.6562V91.75H188.258V93H180.914ZM190.253 90.6875V89.5312L195.347 81.6875H197.082V89.4531H198.66V90.6875H197.082V93H195.738V90.6875H190.253ZM191.769 89.4531H195.738V83.4688H195.597L191.769 89.3594V89.4531ZM209.651 84.1094C209.651 86.5625 211.276 89.0781 213.245 90.0469L212.495 91.0312C210.963 90.2266 209.682 88.5859 209.073 86.6562C208.448 88.7109 207.135 90.4609 205.573 91.2969L204.792 90.3125C206.823 89.3125 208.432 86.6406 208.448 84.1094V81.5781H209.651V84.1094ZM215.745 80.375V86.0156H218.073V87.0781H215.745V94.2656H214.526V80.375H215.745ZM230.756 80.375V94.2969H229.522V80.375H230.756ZM223.365 81.4531C225.428 81.4688 226.912 83.3438 226.912 86.2969C226.912 89.25 225.428 91.125 223.365 91.125C221.287 91.125 219.818 89.25 219.818 86.2969C219.818 83.3438 221.287 81.4688 223.365 81.4531ZM223.365 82.5469C221.975 82.5625 221.006 84.0312 221.006 86.2969C221.006 88.5625 221.975 90.0312 223.365 90.0312C224.756 90.0312 225.725 88.5625 225.725 86.2969C225.725 84.0312 224.756 82.5625 223.365 82.5469ZM244.861 87.8906V88.8906H235.252V81.5781H244.705V82.6094H236.502V84.6719H244.408V85.6562H236.502V87.8906H244.861ZM246.33 91.4375V92.4531H233.611V91.4375H246.33Z" fill="black"/>
</g>
<g clip-path="url(#clip1_406_3411)">
<path d="M553.357 0.5L634.251 72.502L554.746 144.5H306.308L385.85 73.2227L386.264 72.8525L385.852 72.4795L306.299 0.5H553.357Z" fill="#E7F0EA" fill-opacity="0.75" stroke="#E7F0EA"/>
<path d="M485.058 50.6387V59.6562H482.808V50.6387H485.058ZM471.611 57.6172C474.292 56.8086 475.46 54.7607 475.46 52.7656V51.2188H477.798V52.7656C477.781 54.708 478.959 56.5713 481.542 57.3711L480.453 59.0762C478.625 58.5312 477.359 57.4238 476.638 55.9912C475.909 57.5469 474.608 58.7773 472.701 59.375L471.611 57.6172ZM474.335 66.4414V60.3945H485.058V66.4414H474.335ZM476.55 64.6484H482.861V62.1699H476.55V64.6484ZM493.649 54.2422C493.64 57.1074 494.862 59.999 497.428 61.2383L496.075 63.0312C494.361 62.1787 493.201 60.5967 492.541 58.6719C491.838 60.7373 490.608 62.4336 488.797 63.3301L487.409 61.5195C490.124 60.2715 491.399 57.2129 491.399 54.2422V51.8516H493.649V54.2422ZM498.131 66.6172V50.6211H500.381V56.791H502.737V58.6895H500.381V66.6172H498.131Z" fill="#537C60"/>
<path d="M412.425 91.4375V92.4531H399.706V91.4375H405.393V88.0312H406.597V91.4375H412.425ZM406.628 82.3906C406.628 84.7188 409.378 86.75 411.8 87.1719L411.253 88.1875C409.136 87.7578 406.901 86.3203 406.003 84.3125C405.089 86.3125 402.87 87.7578 400.753 88.1875L400.206 87.1719C402.628 86.75 405.347 84.7188 405.347 82.3906V81.3281H406.628V82.3906ZM420.42 89.1094C423.28 89.1094 424.998 90.0469 424.998 91.6719C424.998 93.3125 423.28 94.25 420.42 94.2656C417.561 94.25 415.811 93.3125 415.811 91.6719C415.811 90.0469 417.561 89.1094 420.42 89.1094ZM420.42 90.0781C418.327 90.0938 417.03 90.6719 417.045 91.6719C417.03 92.6719 418.327 93.2656 420.42 93.2656C422.53 93.2656 423.811 92.6719 423.811 91.6719C423.811 90.6719 422.53 90.0938 420.42 90.0781ZM424.873 80.375V83.875H426.967V84.9219H424.873V88.7344H423.655V80.375H424.873ZM415.811 81.25V83.375H419.858V81.25H421.077V87.6562H414.608V81.25H415.811ZM415.811 86.6562H419.858V84.3438H415.811V86.6562ZM439.182 80.375V84.6094H441.275V85.6406H439.182V90.625H437.963V80.375H439.182ZM439.822 92.9375V93.9688H430.494V89.5625H431.697V92.9375H439.822ZM432.228 81.3594C434.307 81.3594 435.869 82.7656 435.885 84.7812C435.869 86.7969 434.307 88.2031 432.228 88.2031C430.15 88.2031 428.572 86.7969 428.588 84.7812C428.572 82.7656 430.15 81.3594 432.228 81.3594ZM432.228 82.4375C430.853 82.4375 429.775 83.4062 429.791 84.7812C429.775 86.1562 430.853 87.125 432.228 87.125C433.635 87.125 434.682 86.1562 434.682 84.7812C434.682 83.4062 433.635 82.4375 432.228 82.4375ZM454.146 80.3906V90.5781H452.912V85.25H450.052V84.2344H452.912V80.3906H454.146ZM454.537 92.9375V93.9688H445.224V89.6562H446.458V92.9375H454.537ZM447.458 83.25C447.458 85.0469 448.849 86.7969 450.88 87.4844L450.24 88.4688C448.669 87.9062 447.458 86.7344 446.865 85.2969C446.263 86.8984 444.982 88.1797 443.333 88.7969L442.693 87.7969C444.74 87.0781 446.224 85.25 446.224 83.25V82.5312H443.083V81.5156H450.568V82.5312H447.458V83.25ZM461.642 83.0156C461.642 84.8281 463.001 86.4531 465.048 87.125L464.47 88.0938C462.868 87.5703 461.657 86.4609 461.063 85.0625C460.462 86.6562 459.181 87.8984 457.517 88.5L456.892 87.5156C458.97 86.8125 460.423 85.0156 460.438 83.0156V82.4219H457.267V81.4062H464.767V82.4219H461.642V83.0156ZM467.798 80.375V83.9219H469.892V84.9531H467.798V88.7656H466.579V80.375H467.798ZM463.345 89.1406C466.204 89.1406 467.923 90.0781 467.923 91.6719C467.923 93.2969 466.204 94.2344 463.345 94.2344C460.485 94.2344 458.735 93.2969 458.735 91.6719C458.735 90.0781 460.485 89.1406 463.345 89.1406ZM463.345 90.125C461.251 90.125 459.954 90.7031 459.97 91.6719C459.954 92.6719 461.251 93.25 463.345 93.25C465.454 93.25 466.735 92.6719 466.735 91.6719C466.735 90.7031 465.454 90.125 463.345 90.125ZM479.559 81.875V82.875H471.278V81.875H474.809V80.3125H476.028V81.875H479.559ZM475.418 83.5938C477.418 83.6094 478.747 84.5781 478.762 86.1094C478.747 87.625 477.418 88.6094 475.418 88.6094C473.418 88.6094 472.059 87.625 472.075 86.1094C472.059 84.5781 473.418 83.6094 475.418 83.5938ZM475.418 84.5469C474.106 84.5625 473.231 85.1719 473.247 86.1094C473.231 87.0312 474.106 87.625 475.418 87.625C476.715 87.625 477.59 87.0312 477.606 86.1094C477.59 85.1719 476.715 84.5625 475.418 84.5469ZM482.106 80.375V84.2344H484.2V85.2656H482.106V89.0625H480.887V80.375H482.106ZM482.106 89.8281V94.2656H480.887V90.8281H473.012V89.8281H482.106ZM489.695 83.1406C489.695 84.6719 490.773 86.2344 492.555 86.9062L491.914 87.8438C490.578 87.3281 489.617 86.3359 489.117 85.1406C488.602 86.4688 487.609 87.6484 486.242 88.2344L485.57 87.2812C487.398 86.4844 488.523 84.6875 488.523 83.1406V81.25H489.695V83.1406ZM497.352 80.3906V88.9688H496.18V85.1406H494.336V88.5312H493.18V80.6562H494.336V84.125H496.18V80.3906H497.352ZM492.758 89.2812C495.633 89.2812 497.43 90.1875 497.43 91.7656C497.43 93.3281 495.633 94.2344 492.758 94.2344C489.867 94.2344 488.086 93.3281 488.102 91.7656C488.086 90.1875 489.867 89.2812 492.758 89.2812ZM492.758 90.2188C490.633 90.2188 489.305 90.7969 489.32 91.7656C489.305 92.7188 490.633 93.2812 492.758 93.2812C494.867 93.2812 496.195 92.7188 496.211 91.7656C496.195 90.7969 494.867 90.2188 492.758 90.2188ZM515.827 80.3906V88.2812H514.608V80.3906H515.827ZM515.827 89.0781V94.0781H506.796V89.0781H515.827ZM507.999 90.0781V93.0781H514.624V90.0781H507.999ZM509.28 82.2969C509.265 84.2656 510.765 86 512.812 86.7188L512.187 87.6562C510.577 87.1016 509.296 85.9297 508.671 84.4062C508.054 86.0312 506.757 87.3125 505.093 87.9219L504.468 86.9531C506.577 86.2188 508.03 84.3438 508.03 82.2969V80.9375H509.28V82.2969ZM523.213 81.3906C525.401 81.3906 526.948 82.7188 526.948 84.6562C526.948 86.5938 525.401 87.9219 523.213 87.9219C521.026 87.9219 519.448 86.5938 519.463 84.6562C519.448 82.7188 521.026 81.3906 523.213 81.3906ZM523.213 82.4688C521.729 82.4688 520.651 83.3594 520.667 84.6562C520.651 85.9531 521.729 86.8438 523.213 86.8438C524.682 86.8438 525.745 85.9531 525.745 84.6562C525.745 83.3594 524.682 82.4688 523.213 82.4688ZM530.057 80.375V94.2969H528.838V80.375H530.057ZM518.745 90.1875C521.307 90.1875 524.838 90.1719 527.917 89.7188L528.01 90.625C524.838 91.2188 521.417 91.2344 518.917 91.2344L518.745 90.1875ZM537.553 81.0625C539.631 81.0469 541.115 82.1875 541.115 83.8906C541.115 85.5781 539.631 86.75 537.553 86.7344C535.475 86.75 533.99 85.5781 533.99 83.8906C533.99 82.1875 535.475 81.0469 537.553 81.0625ZM537.553 82.0625C536.162 82.0469 535.178 82.8125 535.193 83.8906C535.178 84.9844 536.162 85.7344 537.553 85.7188C538.959 85.7344 539.943 84.9844 539.943 83.8906C539.943 82.8125 538.959 82.0469 537.553 82.0625ZM544.428 80.3906V94.2812H543.225V80.3906H544.428ZM532.943 87.9219C535.553 87.9219 539.115 87.875 542.209 87.4219L542.287 88.3438C540.959 88.5859 539.576 88.7344 538.24 88.8125V93.8438H537.022V88.8906C535.608 88.9531 534.272 88.9609 533.115 88.9688L532.943 87.9219ZM558.736 80.3906V90.9375H557.502V89.5H554.627V88.6094H557.502V80.3906H558.736ZM559.08 92.9375V93.9688H549.205V89.9062H550.439V92.9375H559.08ZM547.205 86.8281C549.798 86.8125 553.267 86.7969 556.252 86.4219L556.33 87.3125C555.087 87.5078 553.791 87.6328 552.517 87.7031V90.4531H551.283V87.7656C549.877 87.8281 548.541 87.8359 547.377 87.8281L547.205 86.8281ZM551.767 80.9531C553.798 80.9531 555.189 81.9219 555.205 83.375C555.189 84.8594 553.798 85.7812 551.767 85.7812C549.72 85.7812 548.33 84.8594 548.33 83.375C548.33 81.9219 549.72 80.9531 551.767 80.9531ZM551.767 81.8906C550.408 81.875 549.486 82.4844 549.502 83.375C549.486 84.2812 550.408 84.875 551.767 84.875C553.08 84.875 554.017 84.2812 554.033 83.375C554.017 82.4844 553.08 81.875 551.767 81.8906ZM572.982 80.375V94.2656H571.763V80.375H572.982ZM561.669 90.5625C562.857 90.5547 564.216 90.5469 565.622 90.5V88.9844C563.958 88.8047 562.872 87.8594 562.888 86.4688C562.872 84.9062 564.216 83.8906 566.216 83.8906C568.216 83.8906 569.575 84.9062 569.575 86.4688C569.575 87.8438 568.497 88.7891 566.857 88.9688V90.4531C568.2 90.3984 569.56 90.2969 570.841 90.125L570.935 91.0625C567.841 91.5625 564.435 91.6094 561.857 91.6094L561.669 90.5625ZM570.482 82.0938V83.0938H561.966V82.0938H565.622V80.3906H566.857V82.0938H570.482ZM566.216 84.8438C564.935 84.8438 564.028 85.5 564.028 86.4688C564.028 87.4375 564.935 88.0625 566.216 88.0469C567.513 88.0625 568.403 87.4375 568.403 86.4688C568.403 85.5 567.513 84.8438 566.216 84.8438Z" fill="black"/>
</g>
<g clip-path="url(#clip2_406_3411)">
<path d="M858.357 0.5L939.251 72.502L859.746 144.5H611.308L690.85 73.2227L691.264 72.8525L690.852 72.4795L611.299 0.5H858.357Z" fill="#E7F0EA" fill-opacity="0.95" stroke="#E7F0EA"/>
<path d="M782.869 54.9805C782.86 57.5645 784.196 60.333 786.876 61.4492L785.664 63.207C783.783 62.4072 782.482 60.8164 781.761 58.8828C781.041 60.9834 779.713 62.7412 777.824 63.6113L776.541 61.8359C779.195 60.6494 780.566 57.6875 780.566 54.9805V53.9961H777.173V52.168H786.209V53.9961H782.869V54.9805ZM787.791 66.6172V50.6211H790.058V66.6172H787.791ZM796.715 59.7266V61.4316H803.377V59.7266H805.592V66.4414H794.518V59.7266H796.715ZM792.76 58.6719V56.8789H803.061C803.369 55.332 803.413 54.1367 803.43 53.0645H794.553V51.2715H805.663V52.5547C805.671 53.7676 805.671 55.0596 805.285 56.8789H807.403V58.6719H792.76ZM796.715 64.6309H803.377V63.1367H796.715V64.6309Z" fill="#537C60"/>
<path d="M719.722 83.0156C719.722 84.8281 721.081 86.4531 723.128 87.125L722.55 88.0938C720.948 87.5703 719.737 86.4609 719.143 85.0625C718.542 86.6562 717.261 87.8984 715.597 88.5L714.972 87.5156C717.05 86.8125 718.503 85.0156 718.518 83.0156V82.4219H715.347V81.4062H722.847V82.4219H719.722V83.0156ZM725.878 80.375V83.9219H727.972V84.9531H725.878V88.7656H724.659V80.375H725.878ZM721.425 89.1406C724.284 89.1406 726.003 90.0781 726.003 91.6719C726.003 93.2969 724.284 94.2344 721.425 94.2344C718.565 94.2344 716.815 93.2969 716.815 91.6719C716.815 90.0781 718.565 89.1406 721.425 89.1406ZM721.425 90.125C719.331 90.125 718.034 90.7031 718.05 91.6719C718.034 92.6719 719.331 93.25 721.425 93.25C723.534 93.25 724.815 92.6719 724.815 91.6719C724.815 90.7031 723.534 90.125 721.425 90.125ZM737.639 81.875V82.875H729.358V81.875H732.889V80.3125H734.108V81.875H737.639ZM733.498 83.5938C735.498 83.6094 736.827 84.5781 736.842 86.1094C736.827 87.625 735.498 88.6094 733.498 88.6094C731.498 88.6094 730.139 87.625 730.155 86.1094C730.139 84.5781 731.498 83.6094 733.498 83.5938ZM733.498 84.5469C732.186 84.5625 731.311 85.1719 731.327 86.1094C731.311 87.0312 732.186 87.625 733.498 87.625C734.795 87.625 735.67 87.0312 735.686 86.1094C735.67 85.1719 734.795 84.5625 733.498 84.5469ZM740.186 80.375V84.2344H742.28V85.2656H740.186V89.0625H738.967V80.375H740.186ZM740.186 89.8281V94.2656H738.967V90.8281H731.092V89.8281H740.186ZM756.291 86.9844V88H743.635V86.9844H756.291ZM749.963 89.2188C752.947 89.2188 754.728 90.1406 754.744 91.7344C754.728 93.3438 752.947 94.2344 749.963 94.2344C746.963 94.2344 745.166 93.3438 745.166 91.7344C745.166 90.1406 746.963 89.2188 749.963 89.2188ZM749.963 90.1875C747.728 90.2031 746.4 90.75 746.416 91.7344C746.4 92.7031 747.728 93.25 749.963 93.25C752.166 93.25 753.51 92.7031 753.51 91.7344C753.51 90.75 752.166 90.2031 749.963 90.1875ZM755.166 81.0938V82.1094H750.76C750.807 83.6875 753.119 84.8906 755.588 85.1719L755.135 86.1562C752.861 85.8672 750.728 84.8516 749.963 83.2969C749.205 84.8516 747.08 85.8672 744.791 86.1562L744.353 85.1719C746.775 84.8906 749.103 83.6875 749.166 82.1094H744.791V81.0938H755.166ZM762.833 84.1094C762.833 86.625 764.443 89.1562 766.458 90.0781L765.724 91.0781C764.146 90.2656 762.841 88.6016 762.224 86.625C761.607 88.7031 760.302 90.4844 758.724 91.3281L757.927 90.3438C759.958 89.3438 761.583 86.6719 761.583 84.1094V81.5781H762.833V84.1094ZM769.458 80.375V94.2969H768.24V86.125H764.943V85.125H768.24V80.375H769.458ZM783.997 81.2812V86.9375H777.481V81.2812H783.997ZM778.684 82.2812V85.9688H782.793V82.2812H778.684ZM788.2 80.375V88.3594H786.997V80.375H788.2ZM784.434 90.2656C784.434 91.625 786.653 92.9688 789.043 93.2656L788.622 94.2188C786.528 93.9375 784.622 92.9531 783.809 91.6562C782.965 92.9766 781.012 93.9375 778.918 94.2188L778.481 93.2656C780.872 93 783.168 91.6562 783.168 90.2656H779.059V89.3125H783.184V87.9531H784.403V89.3125H788.559V90.2656H784.434ZM800.253 83.0156C800.253 84.8281 801.613 86.4531 803.66 87.125L803.082 88.0938C801.48 87.5703 800.269 86.4609 799.675 85.0625C799.074 86.6562 797.793 87.8984 796.128 88.5L795.503 87.5156C797.582 86.8125 799.035 85.0156 799.05 83.0156V82.4219H795.878V81.4062H803.378V82.4219H800.253V83.0156ZM806.41 80.375V83.9219H808.503V84.9531H806.41V88.7656H805.191V80.375H806.41ZM801.957 89.1406C804.816 89.1406 806.535 90.0781 806.535 91.6719C806.535 93.2969 804.816 94.2344 801.957 94.2344C799.097 94.2344 797.347 93.2969 797.347 91.6719C797.347 90.0781 799.097 89.1406 801.957 89.1406ZM801.957 90.125C799.863 90.125 798.566 90.7031 798.582 91.6719C798.566 92.6719 799.863 93.25 801.957 93.25C804.066 93.25 805.347 92.6719 805.347 91.6719C805.347 90.7031 804.066 90.125 801.957 90.125ZM818.171 81.875V82.875H809.89V81.875H813.421V80.3125H814.64V81.875H818.171ZM814.03 83.5938C816.03 83.6094 817.358 84.5781 817.374 86.1094C817.358 87.625 816.03 88.6094 814.03 88.6094C812.03 88.6094 810.671 87.625 810.687 86.1094C810.671 84.5781 812.03 83.6094 814.03 83.5938ZM814.03 84.5469C812.718 84.5625 811.843 85.1719 811.858 86.1094C811.843 87.0312 812.718 87.625 814.03 87.625C815.327 87.625 816.202 87.0312 816.218 86.1094C816.202 85.1719 815.327 84.5625 814.03 84.5469ZM820.718 80.375V84.2344H822.812V85.2656H820.718V89.0625H819.499V80.375H820.718ZM820.718 89.8281V94.2656H819.499V90.8281H811.624V89.8281H820.718ZM835.213 81.125V82.1562C835.213 83.2344 835.213 84.5 834.854 86.2344H836.885V87.25H824.167V86.2344H833.62C833.995 84.4922 833.995 83.2344 833.995 82.1562V82.1406H825.776V81.125H835.213ZM835.276 89.1719V94.0781H825.729V89.1719H835.276ZM826.948 90.1406V93.0781H834.057V90.1406H826.948ZM847.939 84.6406C847.939 87 849.658 89.3906 851.705 90.2812L851.017 91.25C849.392 90.5078 847.986 88.9062 847.345 86.9844C846.689 89.0234 845.291 90.7969 843.705 91.5938L842.97 90.625C844.955 89.6719 846.689 87.0469 846.705 84.6406V82.8281H843.423V81.8125H851.252V82.8281H847.939V84.6406ZM854.423 80.375V94.2656H853.189V80.375H854.423ZM860.153 88.3281V90.1719H867.107V88.3281H868.325V94.0781H858.935V88.3281H860.153ZM860.153 93.0781H867.107V91.1406H860.153V93.0781ZM868.325 81.0156V82.0312C868.325 83.0938 868.325 84.3281 867.95 86.0625H869.997V87.0781H857.278V86.0625H866.747C867.107 84.3359 867.107 83.0938 867.107 82.0312H858.888V81.0156H868.325Z" fill="black"/>
</g>
<defs>
<clipPath id="clip0_406_3411">
<rect width="330" height="145" fill="white"/>
</clipPath>
<clipPath id="clip1_406_3411">
<rect width="330" height="145" fill="white" transform="translate(305)"/>
</clipPath>
<clipPath id="clip2_406_3411">
<rect width="330" height="145" fill="white" transform="translate(610)"/>
</clipPath>
</defs>
</svg>
