<svg width="940" height="145" viewBox="0 0 940 145" fill="none" xmlns="http://www.w3.org/2000/svg">
<g clip-path="url(#clip0_5024_66826)">
<path d="M0 0L80.5162 72.8507L0 145H249.939L330 72.5L248.547 0H0Z" fill="#5F9B7A"/>
<path d="M180.058 49.6387V61.3105H177.808V49.6387H180.058ZM180.48 63.543V65.3359H169.335V60.1855H171.603V63.543H180.48ZM172.798 52.0645C172.781 54.1738 173.906 56.248 176.542 57.0918L175.4 58.8496C173.598 58.252 172.35 57.0566 171.638 55.5273C170.926 57.1709 169.643 58.4893 167.771 59.1309L166.611 57.3555C169.3 56.459 170.46 54.2266 170.46 52.0645V50.5176H172.798V52.0645ZM191.883 51.291V53.0488H188.649C188.666 54.6924 189.879 56.3623 192.446 57.0215L191.409 58.7441C189.589 58.2871 188.306 57.2764 187.577 55.9668C186.882 57.4609 185.599 58.6299 183.709 59.166L182.655 57.4258C185.221 56.6963 186.399 54.8682 186.416 53.0488H183.2V51.291H186.416V49.5508H188.684V51.291H191.883ZM196.243 49.6211V59.2891H194.01V55.7031H191.409V53.9102H194.01V49.6211H196.243ZM190.776 59.5527C194.186 59.5703 196.278 60.6426 196.295 62.5586C196.278 64.4922 194.186 65.6172 190.776 65.6172C187.383 65.6172 185.274 64.4922 185.274 62.5586C185.274 60.6426 187.383 59.5703 190.776 59.5527ZM190.776 61.2754C188.649 61.2754 187.506 61.6973 187.506 62.5586C187.506 63.4375 188.649 63.9121 190.776 63.9121C192.938 63.9121 194.063 63.4375 194.063 62.5586C194.063 61.6973 192.938 61.2754 190.776 61.2754Z" fill="white"/>
<path d="M131.405 91.4375V92.4531H118.686V91.4375H124.373V88.0312H125.577V91.4375H131.405ZM119.186 87.1719C121.616 86.7578 124.319 84.7266 124.327 82.3906V81.3281H125.608V82.3906C125.616 84.7109 128.358 86.7578 130.78 87.1719L130.233 88.1875C128.116 87.75 125.881 86.3203 124.983 84.3203C124.069 86.3125 121.858 87.75 119.733 88.1875L119.186 87.1719ZM139.4 89.1094C142.252 89.1094 143.978 90.0469 143.978 91.6719C143.978 93.3125 142.252 94.25 139.4 94.2656C136.541 94.25 134.799 93.3125 134.791 91.6719C134.799 90.0469 136.541 89.1094 139.4 89.1094ZM133.588 87.6562V81.25H134.791V83.375H138.838V81.25H140.057V87.6562H133.588ZM134.791 86.6562H138.838V84.3438H134.791V86.6562ZM136.025 91.6719C136.01 92.6719 137.307 93.2656 139.4 93.2656C141.502 93.2656 142.783 92.6719 142.791 91.6719C142.783 90.6797 141.502 90.0938 139.4 90.0781C137.307 90.0938 136.01 90.6797 136.025 91.6719ZM142.635 88.7344V80.375H143.853V83.875H145.947V84.9219H143.853V88.7344H142.635ZM158.162 80.375V84.6094H160.255V85.6406H158.162V90.625H156.943V80.375H158.162ZM147.568 84.7812C147.56 82.7656 149.138 81.3672 151.208 81.3594C153.294 81.3672 154.849 82.7656 154.865 84.7812C154.849 86.7891 153.294 88.2031 151.208 88.2031C149.138 88.2031 147.56 86.7891 147.568 84.7812ZM148.771 84.7812C148.763 86.1484 149.833 87.125 151.208 87.125C152.607 87.125 153.654 86.1484 153.662 84.7812C153.654 83.4062 152.607 82.4375 151.208 82.4375C149.833 82.4375 148.763 83.4062 148.771 84.7812ZM149.474 93.9688V89.5625H150.677V92.9375H158.802V93.9688H149.474ZM173.126 80.3906V90.5781H171.892V85.25H169.032V84.2344H171.892V80.3906H173.126ZM161.673 87.7969C163.72 87.0781 165.204 85.2422 165.204 83.25V82.5312H162.063V81.5156H169.548V82.5312H166.438V83.25C166.438 85.0469 167.829 86.7891 169.86 87.4844L169.22 88.4688C167.657 87.8984 166.446 86.7344 165.845 85.2969C165.243 86.9062 163.962 88.1797 162.313 88.7969L161.673 87.7969ZM164.204 93.9688V89.6562H165.438V92.9375H173.517V93.9688H164.204ZM180.914 93L180.898 91.9688L184.758 87.9062C186.094 86.4844 186.734 85.7188 186.742 84.6719C186.734 83.5078 185.766 82.7578 184.492 82.75C183.141 82.7578 182.297 83.6094 182.289 84.875H180.961C180.945 82.875 182.492 81.5312 184.539 81.5312C186.594 81.5312 188.047 82.9141 188.055 84.6719C188.047 85.9375 187.461 86.9219 185.461 88.9844L182.867 91.6562V91.75H188.258V93H180.914ZM190.253 90.6875V89.5312L195.347 81.6875H197.082V89.4531H198.66V90.6875H197.082V93H195.738V90.6875H190.253ZM191.769 89.4531H195.738V83.4688H195.597L191.769 89.3594V89.4531ZM209.651 84.1094C209.651 86.5547 211.268 89.0781 213.245 90.0469L212.495 91.0312C210.963 90.2344 209.682 88.5859 209.065 86.6562C208.448 88.7031 207.135 90.4609 205.573 91.2969L204.792 90.3125C206.823 89.3125 208.432 86.6484 208.448 84.1094V81.5781H209.651V84.1094ZM214.526 94.2656V80.375H215.745V86.0156H218.073V87.0781H215.745V94.2656H214.526ZM230.756 80.375V94.2969H229.522V80.375H230.756ZM219.818 86.2969C219.826 83.3438 221.295 81.4609 223.365 81.4531C225.428 81.4609 226.92 83.3438 226.912 86.2969C226.92 89.2578 225.428 91.1328 223.365 91.125C221.295 91.1328 219.826 89.2578 219.818 86.2969ZM221.006 86.2969C221.006 88.5547 221.975 90.0391 223.365 90.0312C224.764 90.0391 225.725 88.5547 225.725 86.2969C225.725 84.0391 224.764 82.5547 223.365 82.5469C221.975 82.5547 221.006 84.0391 221.006 86.2969ZM244.861 87.8906V88.8906H235.252V81.5781H244.705V82.6094H236.502V84.6719H244.408V85.6562H236.502V87.8906H244.861ZM233.611 92.4531V91.4375H246.33V92.4531H233.611Z" fill="white"/>
</g>
<g clip-path="url(#clip1_5024_66826)">
<path d="M305 0L385.516 72.8507L305 145H554.939L635 72.5L553.547 0H305Z" fill="#518569"/>
<path d="M485.058 49.6387V58.6562H482.808V49.6387H485.058ZM485.058 59.3945V65.4414H474.335V59.3945H485.058ZM476.55 61.1699V63.6484H482.861V61.1699H476.55ZM477.798 51.7656C477.781 53.7168 478.959 55.5625 481.542 56.3711L480.453 58.0762C478.625 57.54 477.359 56.4326 476.638 55C475.909 56.5557 474.608 57.7861 472.701 58.375L471.611 56.6172C474.283 55.8086 475.46 53.7695 475.46 51.7656V50.2188H477.798V51.7656ZM493.649 53.2422C493.631 56.1074 494.862 59.0078 497.428 60.2383L496.075 62.0312C494.361 61.1875 493.209 59.6055 492.541 57.6719C491.847 59.7461 490.608 61.4424 488.797 62.3301L487.409 60.5195C490.116 59.2715 491.399 56.2129 491.399 53.2422V50.8516H493.649V53.2422ZM500.381 49.6211V55.791H502.737V57.6895H500.381V65.6172H498.131V49.6211H500.381Z" fill="white"/>
<path d="M412.425 91.4375V92.4531H399.706V91.4375H405.393V88.0312H406.597V91.4375H412.425ZM400.206 87.1719C402.636 86.7578 405.339 84.7266 405.347 82.3906V81.3281H406.628V82.3906C406.636 84.7109 409.378 86.7578 411.8 87.1719L411.253 88.1875C409.136 87.75 406.901 86.3203 406.003 84.3203C405.089 86.3125 402.878 87.75 400.753 88.1875L400.206 87.1719ZM420.42 89.1094C423.272 89.1094 424.998 90.0469 424.998 91.6719C424.998 93.3125 423.272 94.25 420.42 94.2656C417.561 94.25 415.819 93.3125 415.811 91.6719C415.819 90.0469 417.561 89.1094 420.42 89.1094ZM414.608 87.6562V81.25H415.811V83.375H419.858V81.25H421.077V87.6562H414.608ZM415.811 86.6562H419.858V84.3438H415.811V86.6562ZM417.045 91.6719C417.03 92.6719 418.327 93.2656 420.42 93.2656C422.522 93.2656 423.803 92.6719 423.811 91.6719C423.803 90.6797 422.522 90.0938 420.42 90.0781C418.327 90.0938 417.03 90.6797 417.045 91.6719ZM423.655 88.7344V80.375H424.873V83.875H426.967V84.9219H424.873V88.7344H423.655ZM439.182 80.375V84.6094H441.275V85.6406H439.182V90.625H437.963V80.375H439.182ZM428.588 84.7812C428.58 82.7656 430.158 81.3672 432.228 81.3594C434.314 81.3672 435.869 82.7656 435.885 84.7812C435.869 86.7891 434.314 88.2031 432.228 88.2031C430.158 88.2031 428.58 86.7891 428.588 84.7812ZM429.791 84.7812C429.783 86.1484 430.853 87.125 432.228 87.125C433.627 87.125 434.674 86.1484 434.682 84.7812C434.674 83.4062 433.627 82.4375 432.228 82.4375C430.853 82.4375 429.783 83.4062 429.791 84.7812ZM430.494 93.9688V89.5625H431.697V92.9375H439.822V93.9688H430.494ZM454.146 80.3906V90.5781H452.912V85.25H450.052V84.2344H452.912V80.3906H454.146ZM442.693 87.7969C444.74 87.0781 446.224 85.2422 446.224 83.25V82.5312H443.083V81.5156H450.568V82.5312H447.458V83.25C447.458 85.0469 448.849 86.7891 450.88 87.4844L450.24 88.4688C448.677 87.8984 447.466 86.7344 446.865 85.2969C446.263 86.9062 444.982 88.1797 443.333 88.7969L442.693 87.7969ZM445.224 93.9688V89.6562H446.458V92.9375H454.537V93.9688H445.224ZM461.642 83.0156C461.649 84.8359 463.009 86.4609 465.048 87.125L464.47 88.0938C462.868 87.5625 461.657 86.4609 461.056 85.0625C460.462 86.6562 459.181 87.8984 457.517 88.5L456.892 87.5156C458.97 86.8125 460.423 85.0234 460.438 83.0156V82.4219H457.267V81.4062H464.767V82.4219H461.642V83.0156ZM458.735 91.6719C458.743 90.0703 460.485 89.1406 463.345 89.1406C466.196 89.1406 467.923 90.0703 467.923 91.6719C467.923 93.2969 466.196 94.2344 463.345 94.2344C460.485 94.2344 458.743 93.2969 458.735 91.6719ZM459.97 91.6719C459.954 92.6719 461.251 93.2578 463.345 93.25C465.446 93.2578 466.728 92.6719 466.735 91.6719C466.728 90.7031 465.446 90.125 463.345 90.125C461.251 90.125 459.954 90.7031 459.97 91.6719ZM466.579 88.7656V80.375H467.798V83.9219H469.892V84.9531H467.798V88.7656H466.579ZM479.559 81.875V82.875H471.278V81.875H474.809V80.3125H476.028V81.875H479.559ZM472.075 86.1094C472.067 84.5781 473.411 83.6094 475.418 83.5938C477.411 83.6094 478.747 84.5781 478.762 86.1094C478.747 87.6172 477.411 88.6016 475.418 88.6094C473.411 88.6016 472.067 87.6172 472.075 86.1094ZM473.012 90.8281V89.8281H482.106V94.2656H480.887V90.8281H473.012ZM473.247 86.1094C473.239 87.0312 474.106 87.6328 475.418 87.625C476.715 87.6328 477.59 87.0312 477.606 86.1094C477.59 85.1641 476.715 84.5547 475.418 84.5469C474.106 84.5547 473.239 85.1641 473.247 86.1094ZM480.887 89.0625V80.375H482.106V84.2344H484.2V85.2656H482.106V89.0625H480.887ZM489.695 83.1406C489.703 84.6797 490.773 86.2344 492.555 86.9062L491.914 87.8438C490.578 87.3281 489.617 86.3359 489.117 85.1406C488.609 86.4609 487.609 87.6406 486.242 88.2344L485.57 87.2812C487.398 86.4844 488.516 84.6875 488.523 83.1406V81.25H489.695V83.1406ZM488.102 91.7656C488.086 90.1953 489.867 89.2734 492.758 89.2812C495.633 89.2734 497.422 90.1953 497.43 91.7656C497.422 93.3203 495.633 94.2344 492.758 94.2344C489.867 94.2344 488.086 93.3203 488.102 91.7656ZM489.32 91.7656C489.305 92.7109 490.625 93.2891 492.758 93.2812C494.867 93.2891 496.195 92.7109 496.211 91.7656C496.195 90.8047 494.867 90.2266 492.758 90.2188C490.625 90.2266 489.305 90.8047 489.32 91.7656ZM493.18 88.5312V80.6562H494.336V84.125H496.18V80.3906H497.352V88.9688H496.18V85.1406H494.336V88.5312H493.18ZM515.827 80.3906V88.2812H514.608V80.3906H515.827ZM504.468 86.9531C506.569 86.2188 508.03 84.3359 508.03 82.2969V80.9375H509.28V82.2969C509.265 84.2578 510.765 85.9922 512.812 86.7188L512.187 87.6562C510.577 87.1016 509.288 85.9297 508.663 84.4141C508.046 86.0234 506.749 87.3047 505.093 87.9219L504.468 86.9531ZM506.796 94.0781V89.0781H515.827V94.0781H506.796ZM507.999 93.0781H514.624V90.0781H507.999V93.0781ZM523.213 81.3906C525.393 81.3984 526.94 82.7266 526.948 84.6562C526.94 86.5938 525.393 87.9141 523.213 87.9219C521.018 87.9141 519.456 86.5938 519.463 84.6562C519.456 82.7266 521.018 81.3984 523.213 81.3906ZM518.745 90.1875C521.307 90.1953 524.846 90.1719 527.917 89.7188L528.01 90.625C524.831 91.2188 521.417 91.2344 518.917 91.2344L518.745 90.1875ZM520.667 84.6562C520.659 85.9531 521.729 86.8438 523.213 86.8438C524.682 86.8438 525.753 85.9531 525.745 84.6562C525.753 83.3672 524.682 82.4688 523.213 82.4688C521.729 82.4688 520.659 83.3672 520.667 84.6562ZM528.838 94.2969V80.375H530.057V94.2969H528.838ZM537.553 81.0625C539.631 81.0469 541.123 82.1953 541.115 83.8906C541.123 85.5859 539.631 86.7422 537.553 86.7344C535.475 86.7422 533.99 85.5859 533.99 83.8906C533.99 82.1953 535.475 81.0469 537.553 81.0625ZM532.943 87.9219C535.553 87.9297 539.123 87.875 542.209 87.4219L542.287 88.3438C540.959 88.5859 539.584 88.7344 538.24 88.8203V93.8438H537.022V88.8906C535.608 88.9531 534.272 88.9609 533.115 88.9688L532.943 87.9219ZM535.193 83.8906C535.178 84.9766 536.17 85.7266 537.553 85.7188C538.951 85.7266 539.951 84.9766 539.943 83.8906C539.951 82.8125 538.951 82.0469 537.553 82.0625C536.17 82.0469 535.178 82.8125 535.193 83.8906ZM543.225 94.2812V80.3906H544.428V94.2812H543.225ZM558.736 80.3906V90.9375H557.502V89.5H554.627V88.6094H557.502V80.3906H558.736ZM547.205 86.8281C549.791 86.8125 553.275 86.7891 556.252 86.4219L556.33 87.3125C555.095 87.5078 553.791 87.6328 552.517 87.7109V90.4531H551.283V87.7734C549.877 87.8281 548.541 87.8281 547.377 87.8281L547.205 86.8281ZM548.33 83.375C548.322 81.9141 549.712 80.9531 551.767 80.9531C553.806 80.9531 555.197 81.9141 555.205 83.375C555.197 84.8594 553.806 85.7812 551.767 85.7812C549.712 85.7812 548.322 84.8594 548.33 83.375ZM549.205 93.9688V89.9062H550.439V92.9375H559.08V93.9688H549.205ZM549.502 83.375C549.486 84.2812 550.408 84.8672 551.767 84.875C553.087 84.8672 554.025 84.2812 554.033 83.375C554.025 82.4844 553.087 81.875 551.767 81.8906C550.408 81.875 549.486 82.4844 549.502 83.375ZM572.982 80.375V94.2656H571.763V80.375H572.982ZM561.669 90.5625C562.857 90.5547 564.216 90.5469 565.622 90.5V88.9844C563.95 88.8125 562.872 87.8594 562.888 86.4688C562.872 84.8984 564.208 83.8828 566.216 83.8906C568.224 83.8828 569.583 84.8984 569.575 86.4688C569.583 87.8438 568.505 88.7969 566.857 88.9844V90.4531C568.2 90.3906 569.56 90.2969 570.841 90.125L570.935 91.0625C567.833 91.5625 564.435 91.6094 561.857 91.6094L561.669 90.5625ZM561.966 83.0938V82.0938H565.622V80.3906H566.857V82.0938H570.482V83.0938H561.966ZM564.028 86.4688C564.021 87.4297 564.927 88.0625 566.216 88.0469C567.513 88.0625 568.411 87.4297 568.403 86.4688C568.411 85.5 567.513 84.8438 566.216 84.8438C564.927 84.8438 564.021 85.5 564.028 86.4688Z" fill="white"/>
</g>
<g clip-path="url(#clip2_5024_66826)">
<path d="M610 0L690.516 72.8507L610 145H859.939L940 72.5L858.547 0H610Z" fill="#48755C"/>
<path d="M782.869 53.9805C782.869 56.5645 784.187 59.3242 786.876 60.4492L785.664 62.207C783.774 61.4072 782.473 59.8164 781.761 57.8652C781.032 59.9834 779.705 61.7412 777.824 62.6113L776.541 60.8359C779.195 59.6582 780.566 56.6875 780.566 53.9805V52.9961H777.173V51.168H786.209V52.9961H782.869V53.9805ZM790.058 49.6211V65.6172H787.791V49.6211H790.058ZM796.715 58.7266V60.4316H803.377V58.7266H805.592V65.4414H794.518V58.7266H796.715ZM796.715 63.6309H803.377V62.1367H796.715V63.6309ZM805.663 50.2715V51.5547C805.663 52.7676 805.663 54.0684 805.293 55.8789H807.403V57.6719H792.76V55.8789H803.061C803.377 54.332 803.421 53.1279 803.43 52.0645H794.553V50.2715H805.663Z" fill="white"/>
<path d="M719.722 83.0156C719.729 84.8359 721.089 86.4609 723.128 87.125L722.55 88.0938C720.948 87.5625 719.737 86.4609 719.136 85.0625C718.542 86.6562 717.261 87.8984 715.597 88.5L714.972 87.5156C717.05 86.8125 718.503 85.0234 718.518 83.0156V82.4219H715.347V81.4062H722.847V82.4219H719.722V83.0156ZM716.815 91.6719C716.823 90.0703 718.565 89.1406 721.425 89.1406C724.276 89.1406 726.003 90.0703 726.003 91.6719C726.003 93.2969 724.276 94.2344 721.425 94.2344C718.565 94.2344 716.823 93.2969 716.815 91.6719ZM718.05 91.6719C718.034 92.6719 719.331 93.2578 721.425 93.25C723.526 93.2578 724.808 92.6719 724.815 91.6719C724.808 90.7031 723.526 90.125 721.425 90.125C719.331 90.125 718.034 90.7031 718.05 91.6719ZM724.659 88.7656V80.375H725.878V83.9219H727.972V84.9531H725.878V88.7656H724.659ZM737.639 81.875V82.875H729.358V81.875H732.889V80.3125H734.108V81.875H737.639ZM730.155 86.1094C730.147 84.5781 731.491 83.6094 733.498 83.5938C735.491 83.6094 736.827 84.5781 736.842 86.1094C736.827 87.6172 735.491 88.6016 733.498 88.6094C731.491 88.6016 730.147 87.6172 730.155 86.1094ZM731.092 90.8281V89.8281H740.186V94.2656H738.967V90.8281H731.092ZM731.327 86.1094C731.319 87.0312 732.186 87.6328 733.498 87.625C734.795 87.6328 735.67 87.0312 735.686 86.1094C735.67 85.1641 734.795 84.5547 733.498 84.5469C732.186 84.5547 731.319 85.1641 731.327 86.1094ZM738.967 89.0625V80.375H740.186V84.2344H742.28V85.2656H740.186V89.0625H738.967ZM756.291 86.9844V88H743.635V86.9844H756.291ZM744.353 85.1719C746.775 84.8906 749.111 83.6953 749.166 82.1094H744.791V81.0938H755.166V82.1094H750.76C750.814 83.6797 753.127 84.8906 755.588 85.1719L755.135 86.1562C752.861 85.8672 750.728 84.8438 749.963 83.3047C749.197 84.8438 747.08 85.8672 744.791 86.1562L744.353 85.1719ZM745.166 91.7344C745.158 90.1406 746.963 89.2188 749.963 89.2188C752.939 89.2188 754.728 90.1406 754.744 91.7344C754.728 93.3438 752.939 94.2344 749.963 94.2344C746.963 94.2344 745.158 93.3438 745.166 91.7344ZM746.416 91.7344C746.4 92.7031 747.736 93.2578 749.963 93.25C752.166 93.2578 753.502 92.7031 753.51 91.7344C753.502 90.7578 752.166 90.2031 749.963 90.1875C747.736 90.2031 746.4 90.7578 746.416 91.7344ZM762.833 84.1094C762.826 86.625 764.443 89.1562 766.458 90.0781L765.724 91.0781C764.146 90.2656 762.841 88.6094 762.224 86.6328C761.607 88.7109 760.302 90.4922 758.724 91.3281L757.927 90.3438C759.966 89.3438 761.576 86.6719 761.583 84.1094V81.5781H762.833V84.1094ZM764.943 86.125V85.125H768.24V80.375H769.458V94.2969H768.24V86.125H764.943ZM783.997 81.2812V86.9375H777.481V81.2812H783.997ZM778.481 93.2656C780.872 93 783.168 91.6484 783.168 90.2656H779.059V89.3125H783.184V87.9531H784.403V89.3125H788.559V90.2656H784.434C784.426 91.6172 786.661 92.9688 789.043 93.2656L788.622 94.2188C786.536 93.9297 784.629 92.9453 783.801 91.6641C782.965 92.9766 781.012 93.9297 778.918 94.2188L778.481 93.2656ZM778.684 85.9688H782.793V82.2812H778.684V85.9688ZM786.997 88.3594V80.375H788.2V88.3594H786.997ZM800.253 83.0156C800.261 84.8359 801.621 86.4609 803.66 87.125L803.082 88.0938C801.48 87.5625 800.269 86.4609 799.668 85.0625C799.074 86.6562 797.793 87.8984 796.128 88.5L795.503 87.5156C797.582 86.8125 799.035 85.0234 799.05 83.0156V82.4219H795.878V81.4062H803.378V82.4219H800.253V83.0156ZM797.347 91.6719C797.355 90.0703 799.097 89.1406 801.957 89.1406C804.808 89.1406 806.535 90.0703 806.535 91.6719C806.535 93.2969 804.808 94.2344 801.957 94.2344C799.097 94.2344 797.355 93.2969 797.347 91.6719ZM798.582 91.6719C798.566 92.6719 799.863 93.2578 801.957 93.25C804.058 93.2578 805.339 92.6719 805.347 91.6719C805.339 90.7031 804.058 90.125 801.957 90.125C799.863 90.125 798.566 90.7031 798.582 91.6719ZM805.191 88.7656V80.375H806.41V83.9219H808.503V84.9531H806.41V88.7656H805.191ZM818.171 81.875V82.875H809.89V81.875H813.421V80.3125H814.64V81.875H818.171ZM810.687 86.1094C810.679 84.5781 812.022 83.6094 814.03 83.5938C816.022 83.6094 817.358 84.5781 817.374 86.1094C817.358 87.6172 816.022 88.6016 814.03 88.6094C812.022 88.6016 810.679 87.6172 810.687 86.1094ZM811.624 90.8281V89.8281H820.718V94.2656H819.499V90.8281H811.624ZM811.858 86.1094C811.851 87.0312 812.718 87.6328 814.03 87.625C815.327 87.6328 816.202 87.0312 816.218 86.1094C816.202 85.1641 815.327 84.5547 814.03 84.5469C812.718 84.5547 811.851 85.1641 811.858 86.1094ZM819.499 89.0625V80.375H820.718V84.2344H822.812V85.2656H820.718V89.0625H819.499ZM835.213 81.125V82.1562C835.213 83.2344 835.213 84.5 834.846 86.2344H836.885V87.25H824.167V86.2344H833.612C834.003 84.4844 834.003 83.2344 833.995 82.1562V82.1406H825.776V81.125H835.213ZM825.729 94.0781V89.1719H835.276V94.0781H825.729ZM826.948 93.0781H834.057V90.1406H826.948V93.0781ZM847.939 84.6406C847.947 87 849.658 89.3984 851.705 90.2812L851.017 91.25C849.392 90.5156 847.994 88.9141 847.345 86.9922C846.697 89.0312 845.291 90.7969 843.705 91.5938L842.97 90.625C844.962 89.6719 846.697 87.0469 846.705 84.6406V82.8281H843.423V81.8125H851.252V82.8281H847.939V84.6406ZM853.189 94.2656V80.375H854.423V94.2656H853.189ZM860.153 88.3281V90.1719H867.107V88.3281H868.325V94.0781H858.935V88.3281H860.153ZM857.278 87.0781V86.0625H866.739C867.114 84.3359 867.114 83.0938 867.107 82.0312H858.888V81.0156H868.325V82.0312C868.325 83.0938 868.325 84.3281 867.943 86.0625H869.997V87.0781H857.278ZM860.153 93.0781H867.107V91.1406H860.153V93.0781Z" fill="white"/>
</g>
<defs>
<clipPath id="clip0_5024_66826">
<rect width="330" height="145" fill="white"/>
</clipPath>
<clipPath id="clip1_5024_66826">
<rect width="330" height="145" fill="white" transform="translate(305)"/>
</clipPath>
<clipPath id="clip2_5024_66826">
<rect width="330" height="145" fill="white" transform="translate(610)"/>
</clipPath>
</defs>
</svg>
