<svg width="240" height="560" viewBox="0 0 240 560" fill="none" xmlns="http://www.w3.org/2000/svg">
<g clip-path="url(#clip0_406_3658)">
<path d="M239.5 150.299L120 199.46L0.5 151.141V0.744141L119.23 49.2607L119.419 49.3379L119.607 49.2607L239.5 0.742188V150.299Z" fill="#E7F0EA" fill-opacity="0.5" stroke="#E7F0EA"/>
<path d="M118.058 88.6387V100.311H115.808V88.6387H118.058ZM104.611 96.3555C107.292 95.459 108.46 93.2354 108.46 91.0645V89.5176H110.798V91.0645C110.781 93.1826 111.915 95.248 114.542 96.0918L113.4 97.8496C111.589 97.252 110.35 96.0566 109.638 94.5361C108.917 96.1709 107.643 97.4893 105.771 98.1309L104.611 96.3555ZM107.335 104.336V99.1855H109.603V102.543H118.48V104.336H107.335ZM129.883 90.291V92.0488H126.649C126.675 93.6924 127.871 95.3623 130.446 96.0215L129.409 97.7441C127.581 97.2871 126.306 96.2764 125.577 94.9756C124.882 96.4521 123.599 97.6211 121.709 98.166L120.655 96.4258C123.212 95.6875 124.399 93.8594 124.416 92.0488H121.2V90.291H124.416V88.5508H126.684V90.291H129.883ZM123.274 101.559C123.274 99.6426 125.383 98.5615 128.776 98.5527C132.186 98.5615 134.287 99.6426 134.295 101.559C134.287 103.501 132.186 104.626 128.776 104.617C125.383 104.626 123.274 103.501 123.274 101.559ZM125.506 101.559C125.506 102.438 126.658 102.912 128.776 102.912C130.938 102.912 132.054 102.438 132.063 101.559C132.054 100.706 130.938 100.275 128.776 100.275C126.658 100.275 125.506 100.706 125.506 101.559ZM129.409 94.7031V92.9102H132.01V88.6211H134.243V98.2891H132.01V94.7031H129.409Z" fill="#537C60"/>
<path d="M69.4047 129.438V130.453H56.6859V129.438H62.3734V126.031H63.5766V129.438H69.4047ZM63.6078 120.391C63.6078 122.719 66.3578 124.75 68.7797 125.172L68.2328 126.188C66.1156 125.758 63.8812 124.32 62.9828 122.312C62.0687 124.312 59.85 125.758 57.7328 126.188L57.1859 125.172C59.6078 124.75 62.3266 122.719 62.3266 120.391V119.328H63.6078V120.391ZM77.4003 127.109C80.2597 127.109 81.9784 128.047 81.9784 129.672C81.9784 131.312 80.2597 132.25 77.4003 132.266C74.5409 132.25 72.7909 131.312 72.7909 129.672C72.7909 128.047 74.5409 127.109 77.4003 127.109ZM77.4003 128.078C75.3066 128.094 74.0097 128.672 74.0253 129.672C74.0097 130.672 75.3066 131.266 77.4003 131.266C79.5097 131.266 80.7909 130.672 80.7909 129.672C80.7909 128.672 79.5097 128.094 77.4003 128.078ZM81.8534 118.375V121.875H83.9472V122.922H81.8534V126.734H80.6347V118.375H81.8534ZM72.7909 119.25V121.375H76.8378V119.25H78.0566V125.656H71.5878V119.25H72.7909ZM72.7909 124.656H76.8378V122.344H72.7909V124.656ZM96.1616 118.375V122.609H98.2553V123.641H96.1616V128.625H94.9428V118.375H96.1616ZM96.8022 130.938V131.969H87.4741V127.562H88.6772V130.938H96.8022ZM89.2084 119.359C91.2866 119.359 92.8491 120.766 92.8647 122.781C92.8491 124.797 91.2866 126.203 89.2084 126.203C87.1303 126.203 85.5522 124.797 85.5678 122.781C85.5522 120.766 87.1303 119.359 89.2084 119.359ZM89.2084 120.438C87.8334 120.438 86.7553 121.406 86.7709 122.781C86.7553 124.156 87.8334 125.125 89.2084 125.125C90.6147 125.125 91.6616 124.156 91.6616 122.781C91.6616 121.406 90.6147 120.438 89.2084 120.438ZM111.126 118.391V128.578H109.892V123.25H107.032V122.234H109.892V118.391H111.126ZM111.517 130.938V131.969H102.204V127.656H103.438V130.938H111.517ZM104.438 121.25C104.438 123.047 105.829 124.797 107.86 125.484L107.22 126.469C105.649 125.906 104.438 124.734 103.845 123.297C103.243 124.898 101.962 126.18 100.313 126.797L99.6728 125.797C101.72 125.078 103.204 123.25 103.204 121.25V120.531H100.063V119.516H107.548V120.531H104.438V121.25ZM118.914 131L118.898 129.969L122.758 125.906C124.102 124.484 124.742 123.719 124.742 122.672C124.742 121.516 123.758 120.75 122.492 120.75C121.148 120.75 120.289 121.609 120.289 122.875H118.961C118.945 120.875 120.492 119.531 122.539 119.531C124.586 119.531 126.055 120.906 126.055 122.672C126.055 123.938 125.461 124.922 123.461 126.984L120.867 129.656V129.75H126.258V131H118.914ZM128.253 128.688V127.531L133.347 119.688H135.082V127.453H136.66V128.688H135.082V131H133.738V128.688H128.253ZM129.769 127.453H133.738V121.469H133.597L129.769 127.359V127.453ZM147.651 122.109C147.651 124.562 149.276 127.078 151.245 128.047L150.495 129.031C148.963 128.227 147.682 126.586 147.073 124.656C146.448 126.711 145.135 128.461 143.573 129.297L142.792 128.312C144.823 127.312 146.432 124.641 146.448 122.109V119.578H147.651V122.109ZM153.745 118.375V124.016H156.073V125.078H153.745V132.266H152.526V118.375H153.745ZM168.756 118.375V132.297H167.522V118.375H168.756ZM161.365 119.453C163.428 119.469 164.912 121.344 164.912 124.297C164.912 127.25 163.428 129.125 161.365 129.125C159.287 129.125 157.818 127.25 157.818 124.297C157.818 121.344 159.287 119.469 161.365 119.453ZM161.365 120.547C159.975 120.562 159.006 122.031 159.006 124.297C159.006 126.562 159.975 128.031 161.365 128.031C162.756 128.031 163.725 126.562 163.725 124.297C163.725 122.031 162.756 120.562 161.365 120.547ZM182.861 125.891V126.891H173.252V119.578H182.705V120.609H174.502V122.672H182.408V123.656H174.502V125.891H182.861ZM184.33 129.438V130.453H171.611V129.438H184.33Z" fill="black"/>
</g>
<g clip-path="url(#clip1_406_3658)">
<path d="M239.5 330.299L120 379.46L0.5 331.141V180.744L119.23 229.261L119.419 229.338L119.607 229.261L239.5 180.742V330.299Z" fill="#E7F0EA" fill-opacity="0.75" stroke="#E7F0EA"/>
<path d="M118.058 268.639V277.656H115.808V268.639H118.058ZM104.611 275.617C107.292 274.809 108.46 272.761 108.46 270.766V269.219H110.798V270.766C110.781 272.708 111.959 274.571 114.542 275.371L113.453 277.076C111.625 276.531 110.359 275.424 109.638 273.991C108.909 275.547 107.608 276.777 105.701 277.375L104.611 275.617ZM107.335 284.441V278.395H118.058V284.441H107.335ZM109.55 282.648H115.861V280.17H109.55V282.648ZM126.649 272.242C126.64 275.107 127.862 277.999 130.428 279.238L129.075 281.031C127.361 280.179 126.201 278.597 125.541 276.672C124.838 278.737 123.608 280.434 121.797 281.33L120.409 279.52C123.124 278.271 124.399 275.213 124.399 272.242V269.852H126.649V272.242ZM131.131 284.617V268.621H133.381V274.791H135.737V276.689H133.381V284.617H131.131Z" fill="#537C60"/>
<path d="M45.4247 309.438V310.453H32.7059V309.438H38.3934V306.031H39.5966V309.438H45.4247ZM39.6278 300.391C39.6278 302.719 42.3778 304.75 44.7997 305.172L44.2528 306.188C42.1356 305.758 39.9013 304.32 39.0028 302.312C38.0888 304.312 35.87 305.758 33.7528 306.188L33.2059 305.172C35.6278 304.75 38.3466 302.719 38.3466 300.391V299.328H39.6278V300.391ZM53.4203 307.109C56.2797 307.109 57.9984 308.047 57.9984 309.672C57.9984 311.312 56.2797 312.25 53.4203 312.266C50.5609 312.25 48.8109 311.312 48.8109 309.672C48.8109 308.047 50.5609 307.109 53.4203 307.109ZM53.4203 308.078C51.3266 308.094 50.0297 308.672 50.0453 309.672C50.0297 310.672 51.3266 311.266 53.4203 311.266C55.5297 311.266 56.8109 310.672 56.8109 309.672C56.8109 308.672 55.5297 308.094 53.4203 308.078ZM57.8734 298.375V301.875H59.9672V302.922H57.8734V306.734H56.6547V298.375H57.8734ZM48.8109 299.25V301.375H52.8578V299.25H54.0766V305.656H47.6078V299.25H48.8109ZM48.8109 304.656H52.8578V302.344H48.8109V304.656ZM72.1816 298.375V302.609H74.2753V303.641H72.1816V308.625H70.9628V298.375H72.1816ZM72.8222 310.938V311.969H63.4941V307.562H64.6972V310.938H72.8222ZM65.2284 299.359C67.3066 299.359 68.8691 300.766 68.8847 302.781C68.8691 304.797 67.3066 306.203 65.2284 306.203C63.1503 306.203 61.5722 304.797 61.5878 302.781C61.5722 300.766 63.1503 299.359 65.2284 299.359ZM65.2284 300.438C63.8534 300.438 62.7753 301.406 62.7909 302.781C62.7753 304.156 63.8534 305.125 65.2284 305.125C66.6347 305.125 67.6816 304.156 67.6816 302.781C67.6816 301.406 66.6347 300.438 65.2284 300.438ZM87.1459 298.391V308.578H85.9116V303.25H83.0522V302.234H85.9116V298.391H87.1459ZM87.5366 310.938V311.969H78.2241V307.656H79.4584V310.938H87.5366ZM80.4584 301.25C80.4584 303.047 81.8491 304.797 83.8803 305.484L83.2397 306.469C81.6694 305.906 80.4584 304.734 79.8647 303.297C79.2631 304.898 77.9819 306.18 76.3334 306.797L75.6928 305.797C77.7397 305.078 79.2241 303.25 79.2241 301.25V300.531H76.0834V299.516H83.5678V300.531H80.4584V301.25ZM94.6416 301.016C94.6416 302.828 96.0009 304.453 98.0478 305.125L97.4697 306.094C95.8681 305.57 94.6572 304.461 94.0634 303.062C93.4619 304.656 92.1806 305.898 90.5166 306.5L89.8916 305.516C91.9697 304.812 93.4228 303.016 93.4384 301.016V300.422H90.2666V299.406H97.7666V300.422H94.6416V301.016ZM100.798 298.375V301.922H102.892V302.953H100.798V306.766H99.5791V298.375H100.798ZM96.3447 307.141C99.2041 307.141 100.923 308.078 100.923 309.672C100.923 311.297 99.2041 312.234 96.3447 312.234C93.4853 312.234 91.7353 311.297 91.7353 309.672C91.7353 308.078 93.4853 307.141 96.3447 307.141ZM96.3447 308.125C94.2509 308.125 92.9541 308.703 92.9697 309.672C92.9541 310.672 94.2509 311.25 96.3447 311.25C98.4541 311.25 99.7353 310.672 99.7353 309.672C99.7353 308.703 98.4541 308.125 96.3447 308.125ZM112.559 299.875V300.875H104.278V299.875H107.809V298.312H109.028V299.875H112.559ZM108.418 301.594C110.418 301.609 111.747 302.578 111.762 304.109C111.747 305.625 110.418 306.609 108.418 306.609C106.418 306.609 105.059 305.625 105.075 304.109C105.059 302.578 106.418 301.609 108.418 301.594ZM108.418 302.547C107.106 302.562 106.231 303.172 106.247 304.109C106.231 305.031 107.106 305.625 108.418 305.625C109.715 305.625 110.59 305.031 110.606 304.109C110.59 303.172 109.715 302.562 108.418 302.547ZM115.106 298.375V302.234H117.2V303.266H115.106V307.062H113.887V298.375H115.106ZM115.106 307.828V312.266H113.887V308.828H106.012V307.828H115.106ZM122.695 301.141C122.695 302.672 123.773 304.234 125.555 304.906L124.914 305.844C123.578 305.328 122.617 304.336 122.117 303.141C121.602 304.469 120.609 305.648 119.242 306.234L118.57 305.281C120.398 304.484 121.523 302.688 121.523 301.141V299.25H122.695V301.141ZM130.352 298.391V306.969H129.18V303.141H127.336V306.531H126.18V298.656H127.336V302.125H129.18V298.391H130.352ZM125.758 307.281C128.633 307.281 130.43 308.188 130.43 309.766C130.43 311.328 128.633 312.234 125.758 312.234C122.867 312.234 121.086 311.328 121.102 309.766C121.086 308.188 122.867 307.281 125.758 307.281ZM125.758 308.219C123.633 308.219 122.305 308.797 122.32 309.766C122.305 310.719 123.633 311.281 125.758 311.281C127.867 311.281 129.195 310.719 129.211 309.766C129.195 308.797 127.867 308.219 125.758 308.219ZM148.827 298.391V306.281H147.608V298.391H148.827ZM148.827 307.078V312.078H139.796V307.078H148.827ZM140.999 308.078V311.078H147.624V308.078H140.999ZM142.28 300.297C142.265 302.266 143.765 304 145.812 304.719L145.187 305.656C143.577 305.102 142.296 303.93 141.671 302.406C141.054 304.031 139.757 305.312 138.093 305.922L137.468 304.953C139.577 304.219 141.03 302.344 141.03 300.297V298.938H142.28V300.297ZM156.213 299.391C158.401 299.391 159.948 300.719 159.948 302.656C159.948 304.594 158.401 305.922 156.213 305.922C154.026 305.922 152.448 304.594 152.463 302.656C152.448 300.719 154.026 299.391 156.213 299.391ZM156.213 300.469C154.729 300.469 153.651 301.359 153.667 302.656C153.651 303.953 154.729 304.844 156.213 304.844C157.682 304.844 158.745 303.953 158.745 302.656C158.745 301.359 157.682 300.469 156.213 300.469ZM163.057 298.375V312.297H161.838V298.375H163.057ZM151.745 308.188C154.307 308.188 157.838 308.172 160.917 307.719L161.01 308.625C157.838 309.219 154.417 309.234 151.917 309.234L151.745 308.188ZM170.553 299.062C172.631 299.047 174.115 300.188 174.115 301.891C174.115 303.578 172.631 304.75 170.553 304.734C168.475 304.75 166.99 303.578 166.99 301.891C166.99 300.188 168.475 299.047 170.553 299.062ZM170.553 300.062C169.162 300.047 168.178 300.812 168.193 301.891C168.178 302.984 169.162 303.734 170.553 303.719C171.959 303.734 172.943 302.984 172.943 301.891C172.943 300.812 171.959 300.047 170.553 300.062ZM177.428 298.391V312.281H176.225V298.391H177.428ZM165.943 305.922C168.553 305.922 172.115 305.875 175.209 305.422L175.287 306.344C173.959 306.586 172.576 306.734 171.24 306.812V311.844H170.022V306.891C168.608 306.953 167.272 306.961 166.115 306.969L165.943 305.922ZM191.736 298.391V308.938H190.502V307.5H187.627V306.609H190.502V298.391H191.736ZM192.08 310.938V311.969H182.205V307.906H183.439V310.938H192.08ZM180.205 304.828C182.798 304.812 186.267 304.797 189.252 304.422L189.33 305.312C188.087 305.508 186.791 305.633 185.517 305.703V308.453H184.283V305.766C182.877 305.828 181.541 305.836 180.377 305.828L180.205 304.828ZM184.767 298.953C186.798 298.953 188.189 299.922 188.205 301.375C188.189 302.859 186.798 303.781 184.767 303.781C182.72 303.781 181.33 302.859 181.33 301.375C181.33 299.922 182.72 298.953 184.767 298.953ZM184.767 299.891C183.408 299.875 182.486 300.484 182.502 301.375C182.486 302.281 183.408 302.875 184.767 302.875C186.08 302.875 187.017 302.281 187.033 301.375C187.017 300.484 186.08 299.875 184.767 299.891ZM205.982 298.375V312.266H204.763V298.375H205.982ZM194.669 308.562C195.857 308.555 197.216 308.547 198.622 308.5V306.984C196.958 306.805 195.872 305.859 195.888 304.469C195.872 302.906 197.216 301.891 199.216 301.891C201.216 301.891 202.575 302.906 202.575 304.469C202.575 305.844 201.497 306.789 199.857 306.969V308.453C201.2 308.398 202.56 308.297 203.841 308.125L203.935 309.062C200.841 309.562 197.435 309.609 194.857 309.609L194.669 308.562ZM203.482 300.094V301.094H194.966V300.094H198.622V298.391H199.857V300.094H203.482ZM199.216 302.844C197.935 302.844 197.028 303.5 197.028 304.469C197.028 305.438 197.935 306.062 199.216 306.047C200.513 306.062 201.403 305.438 201.403 304.469C201.403 303.5 200.513 302.844 199.216 302.844Z" fill="black"/>
</g>
<g clip-path="url(#clip2_406_3658)">
<path d="M239.5 510.299L120 559.46L0.5 511.141V360.744L119.23 409.261L119.419 409.338L119.607 409.261L239.5 360.742V510.299Z" fill="#E7F0EA" fill-opacity="0.95" stroke="#E7F0EA"/>
<path d="M109.869 452.98C109.86 455.564 111.196 458.333 113.876 459.449L112.664 461.207C110.783 460.407 109.482 458.816 108.761 456.883C108.041 458.983 106.713 460.741 104.824 461.611L103.541 459.836C106.195 458.649 107.566 455.688 107.566 452.98V451.996H104.173V450.168H113.209V451.996H109.869V452.98ZM114.791 464.617V448.621H117.058V464.617H114.791ZM123.715 457.727V459.432H130.377V457.727H132.592V464.441H121.518V457.727H123.715ZM119.76 456.672V454.879H130.061C130.369 453.332 130.413 452.137 130.43 451.064H121.553V449.271H132.663V450.555C132.671 451.768 132.671 453.06 132.285 454.879H134.403V456.672H119.76ZM123.715 462.631H130.377V461.137H123.715V462.631Z" fill="#537C60"/>
<path d="M46.7216 481.016C46.7216 482.828 48.0809 484.453 50.1278 485.125L49.5497 486.094C47.9481 485.57 46.7372 484.461 46.1434 483.062C45.5419 484.656 44.2606 485.898 42.5966 486.5L41.9716 485.516C44.0497 484.812 45.5028 483.016 45.5184 481.016V480.422H42.3466V479.406H49.8466V480.422H46.7216V481.016ZM52.8778 478.375V481.922H54.9716V482.953H52.8778V486.766H51.6591V478.375H52.8778ZM48.4247 487.141C51.2841 487.141 53.0028 488.078 53.0028 489.672C53.0028 491.297 51.2841 492.234 48.4247 492.234C45.5653 492.234 43.8153 491.297 43.8153 489.672C43.8153 488.078 45.5653 487.141 48.4247 487.141ZM48.4247 488.125C46.3309 488.125 45.0341 488.703 45.0497 489.672C45.0341 490.672 46.3309 491.25 48.4247 491.25C50.5341 491.25 51.8153 490.672 51.8153 489.672C51.8153 488.703 50.5341 488.125 48.4247 488.125ZM64.6391 479.875V480.875H56.3578V479.875H59.8891V478.312H61.1078V479.875H64.6391ZM60.4984 481.594C62.4984 481.609 63.8266 482.578 63.8422 484.109C63.8266 485.625 62.4984 486.609 60.4984 486.609C58.4984 486.609 57.1391 485.625 57.1547 484.109C57.1391 482.578 58.4984 481.609 60.4984 481.594ZM60.4984 482.547C59.1859 482.562 58.3109 483.172 58.3266 484.109C58.3109 485.031 59.1859 485.625 60.4984 485.625C61.7953 485.625 62.6703 485.031 62.6859 484.109C62.6703 483.172 61.7953 482.562 60.4984 482.547ZM67.1859 478.375V482.234H69.2797V483.266H67.1859V487.062H65.9672V478.375H67.1859ZM67.1859 487.828V492.266H65.9672V488.828H58.0922V487.828H67.1859ZM83.2909 484.984V486H70.6347V484.984H83.2909ZM76.9628 487.219C79.9472 487.219 81.7284 488.141 81.7441 489.734C81.7284 491.344 79.9472 492.234 76.9628 492.234C73.9628 492.234 72.1659 491.344 72.1659 489.734C72.1659 488.141 73.9628 487.219 76.9628 487.219ZM76.9628 488.188C74.7284 488.203 73.4003 488.75 73.4159 489.734C73.4003 490.703 74.7284 491.25 76.9628 491.25C79.1659 491.25 80.5097 490.703 80.5097 489.734C80.5097 488.75 79.1659 488.203 76.9628 488.188ZM82.1659 479.094V480.109H77.7597C77.8066 481.688 80.1191 482.891 82.5878 483.172L82.1347 484.156C79.8613 483.867 77.7284 482.852 76.9628 481.297C76.205 482.852 74.08 483.867 71.7909 484.156L71.3534 483.172C73.7753 482.891 76.1034 481.688 76.1659 480.109H71.7909V479.094H82.1659ZM89.8334 482.109C89.8334 484.625 91.4428 487.156 93.4584 488.078L92.7241 489.078C91.1459 488.266 89.8413 486.602 89.2241 484.625C88.6069 486.703 87.3022 488.484 85.7241 489.328L84.9272 488.344C86.9584 487.344 88.5834 484.672 88.5834 482.109V479.578H89.8334V482.109ZM96.4584 478.375V492.297H95.2397V484.125H91.9428V483.125H95.2397V478.375H96.4584ZM110.997 479.281V484.938H104.481V479.281H110.997ZM105.684 480.281V483.969H109.793V480.281H105.684ZM115.2 478.375V486.359H113.997V478.375H115.2ZM111.434 488.266C111.434 489.625 113.653 490.969 116.043 491.266L115.622 492.219C113.528 491.938 111.622 490.953 110.809 489.656C109.965 490.977 108.012 491.938 105.918 492.219L105.481 491.266C107.872 491 110.168 489.656 110.168 488.266H106.059V487.312H110.184V485.953H111.403V487.312H115.559V488.266H111.434ZM127.253 481.016C127.253 482.828 128.613 484.453 130.66 485.125L130.082 486.094C128.48 485.57 127.269 484.461 126.675 483.062C126.074 484.656 124.793 485.898 123.128 486.5L122.503 485.516C124.582 484.812 126.035 483.016 126.05 481.016V480.422H122.878V479.406H130.378V480.422H127.253V481.016ZM133.41 478.375V481.922H135.503V482.953H133.41V486.766H132.191V478.375H133.41ZM128.957 487.141C131.816 487.141 133.535 488.078 133.535 489.672C133.535 491.297 131.816 492.234 128.957 492.234C126.097 492.234 124.347 491.297 124.347 489.672C124.347 488.078 126.097 487.141 128.957 487.141ZM128.957 488.125C126.863 488.125 125.566 488.703 125.582 489.672C125.566 490.672 126.863 491.25 128.957 491.25C131.066 491.25 132.347 490.672 132.347 489.672C132.347 488.703 131.066 488.125 128.957 488.125ZM145.171 479.875V480.875H136.89V479.875H140.421V478.312H141.64V479.875H145.171ZM141.03 481.594C143.03 481.609 144.358 482.578 144.374 484.109C144.358 485.625 143.03 486.609 141.03 486.609C139.03 486.609 137.671 485.625 137.687 484.109C137.671 482.578 139.03 481.609 141.03 481.594ZM141.03 482.547C139.718 482.562 138.843 483.172 138.858 484.109C138.843 485.031 139.718 485.625 141.03 485.625C142.327 485.625 143.202 485.031 143.218 484.109C143.202 483.172 142.327 482.562 141.03 482.547ZM147.718 478.375V482.234H149.812V483.266H147.718V487.062H146.499V478.375H147.718ZM147.718 487.828V492.266H146.499V488.828H138.624V487.828H147.718ZM162.213 479.125V480.156C162.213 481.234 162.213 482.5 161.854 484.234H163.885V485.25H151.167V484.234H160.62C160.995 482.492 160.995 481.234 160.995 480.156V480.141H152.776V479.125H162.213ZM162.276 487.172V492.078H152.729V487.172H162.276ZM153.948 488.141V491.078H161.057V488.141H153.948ZM174.939 482.641C174.939 485 176.658 487.391 178.705 488.281L178.017 489.25C176.392 488.508 174.986 486.906 174.345 484.984C173.689 487.023 172.291 488.797 170.705 489.594L169.97 488.625C171.955 487.672 173.689 485.047 173.705 482.641V480.828H170.423V479.812H178.252V480.828H174.939V482.641ZM181.423 478.375V492.266H180.189V478.375H181.423ZM187.153 486.328V488.172H194.107V486.328H195.325V492.078H185.935V486.328H187.153ZM187.153 491.078H194.107V489.141H187.153V491.078ZM195.325 479.016V480.031C195.325 481.094 195.325 482.328 194.95 484.062H196.997V485.078H184.278V484.062H193.747C194.107 482.336 194.107 481.094 194.107 480.031H185.888V479.016H195.325Z" fill="black"/>
</g>
<defs>
<clipPath id="clip0_406_3658">
<rect width="200" height="240" fill="white" transform="matrix(0 1 -1 0 240 0)"/>
</clipPath>
<clipPath id="clip1_406_3658">
<rect width="200" height="240" fill="white" transform="matrix(0 1 -1 0 240 180)"/>
</clipPath>
<clipPath id="clip2_406_3658">
<rect width="200" height="240" fill="white" transform="matrix(0 1 -1 0 240 360)"/>
</clipPath>
</defs>
</svg>
