<svg width="240" height="560" viewBox="0 0 240 560" fill="none" xmlns="http://www.w3.org/2000/svg">
<g clip-path="url(#clip0_5024_66909)">
<path d="M240 0L119.419 48.7977L0 0V151.478L120 200L240 150.635V0Z" fill="#5F9B7A"/>
<path d="M118.058 87.6387V99.3105H115.808V87.6387H118.058ZM118.48 101.543V103.336H107.335V98.1855H109.603V101.543H118.48ZM110.798 90.0645C110.781 92.1738 111.906 94.248 114.542 95.0918L113.4 96.8496C111.598 96.252 110.35 95.0566 109.638 93.5273C108.926 95.1709 107.643 96.4893 105.771 97.1309L104.611 95.3555C107.3 94.459 108.46 92.2266 108.46 90.0645V88.5176H110.798V90.0645ZM129.883 89.291V91.0488H126.649C126.666 92.6924 127.879 94.3623 130.446 95.0215L129.409 96.7441C127.589 96.2871 126.306 95.2764 125.577 93.9668C124.882 95.4609 123.599 96.6299 121.709 97.166L120.655 95.4258C123.221 94.6963 124.399 92.8682 124.416 91.0488H121.2V89.291H124.416V87.5508H126.684V89.291H129.883ZM134.243 87.6211V97.2891H132.01V93.7031H129.409V91.9102H132.01V87.6211H134.243ZM128.776 97.5527C132.186 97.5703 134.278 98.6426 134.295 100.559C134.278 102.492 132.186 103.617 128.776 103.617C125.383 103.617 123.274 102.492 123.274 100.559C123.274 98.6426 125.383 97.5703 128.776 97.5527ZM128.776 99.2754C126.649 99.2754 125.506 99.6973 125.506 100.559C125.506 101.438 126.649 101.912 128.776 101.912C130.938 101.912 132.063 101.438 132.063 100.559C132.063 99.6973 130.938 99.2754 128.776 99.2754Z" fill="white"/>
<path d="M69.4047 129.438V130.453H56.6859V129.438H62.3734V126.031H63.5766V129.438H69.4047ZM57.1859 125.172C59.6156 124.758 62.3187 122.727 62.3266 120.391V119.328H63.6078V120.391C63.6156 122.711 66.3578 124.758 68.7797 125.172L68.2328 126.188C66.1156 125.75 63.8812 124.32 62.9828 122.32C62.0687 124.312 59.8578 125.75 57.7328 126.188L57.1859 125.172ZM77.4003 127.109C80.2519 127.109 81.9784 128.047 81.9784 129.672C81.9784 131.312 80.2519 132.25 77.4003 132.266C74.5409 132.25 72.7987 131.312 72.7909 129.672C72.7987 128.047 74.5409 127.109 77.4003 127.109ZM71.5878 125.656V119.25H72.7909V121.375H76.8378V119.25H78.0566V125.656H71.5878ZM72.7909 124.656H76.8378V122.344H72.7909V124.656ZM74.0253 129.672C74.0097 130.672 75.3066 131.266 77.4003 131.266C79.5019 131.266 80.7831 130.672 80.7909 129.672C80.7831 128.68 79.5019 128.094 77.4003 128.078C75.3066 128.094 74.0097 128.68 74.0253 129.672ZM80.6347 126.734V118.375H81.8534V121.875H83.9472V122.922H81.8534V126.734H80.6347ZM96.1616 118.375V122.609H98.2553V123.641H96.1616V128.625H94.9428V118.375H96.1616ZM85.5678 122.781C85.56 120.766 87.1381 119.367 89.2084 119.359C91.2944 119.367 92.8491 120.766 92.8647 122.781C92.8491 124.789 91.2944 126.203 89.2084 126.203C87.1381 126.203 85.56 124.789 85.5678 122.781ZM86.7709 122.781C86.7631 124.148 87.8334 125.125 89.2084 125.125C90.6069 125.125 91.6537 124.148 91.6616 122.781C91.6537 121.406 90.6069 120.438 89.2084 120.438C87.8334 120.438 86.7631 121.406 86.7709 122.781ZM87.4741 131.969V127.562H88.6772V130.938H96.8022V131.969H87.4741ZM111.126 118.391V128.578H109.892V123.25H107.032V122.234H109.892V118.391H111.126ZM99.6728 125.797C101.72 125.078 103.204 123.242 103.204 121.25V120.531H100.063V119.516H107.548V120.531H104.438V121.25C104.438 123.047 105.829 124.789 107.86 125.484L107.22 126.469C105.657 125.898 104.446 124.734 103.845 123.297C103.243 124.906 101.962 126.18 100.313 126.797L99.6728 125.797ZM102.204 131.969V127.656H103.438V130.938H111.517V131.969H102.204ZM118.914 131L118.898 129.969L122.758 125.906C124.094 124.484 124.734 123.719 124.742 122.672C124.734 121.508 123.766 120.758 122.492 120.75C121.141 120.758 120.297 121.609 120.289 122.875H118.961C118.945 120.875 120.492 119.531 122.539 119.531C124.594 119.531 126.047 120.914 126.055 122.672C126.047 123.938 125.461 124.922 123.461 126.984L120.867 129.656V129.75H126.258V131H118.914ZM128.253 128.688V127.531L133.347 119.688H135.082V127.453H136.66V128.688H135.082V131H133.738V128.688H128.253ZM129.769 127.453H133.738V121.469H133.597L129.769 127.359V127.453ZM147.651 122.109C147.651 124.555 149.268 127.078 151.245 128.047L150.495 129.031C148.963 128.234 147.682 126.586 147.065 124.656C146.448 126.703 145.135 128.461 143.573 129.297L142.792 128.312C144.823 127.312 146.432 124.648 146.448 122.109V119.578H147.651V122.109ZM152.526 132.266V118.375H153.745V124.016H156.073V125.078H153.745V132.266H152.526ZM168.756 118.375V132.297H167.522V118.375H168.756ZM157.818 124.297C157.826 121.344 159.295 119.461 161.365 119.453C163.428 119.461 164.92 121.344 164.912 124.297C164.92 127.258 163.428 129.133 161.365 129.125C159.295 129.133 157.826 127.258 157.818 124.297ZM159.006 124.297C159.006 126.555 159.975 128.039 161.365 128.031C162.764 128.039 163.725 126.555 163.725 124.297C163.725 122.039 162.764 120.555 161.365 120.547C159.975 120.555 159.006 122.039 159.006 124.297ZM182.861 125.891V126.891H173.252V119.578H182.705V120.609H174.502V122.672H182.408V123.656H174.502V125.891H182.861ZM171.611 130.453V129.438H184.33V130.453H171.611Z" fill="white"/>
</g>
<g clip-path="url(#clip1_5024_66909)">
<path d="M240 180L119.419 228.798L0 180V331.478L120 380L240 330.635V180Z" fill="#518569"/>
<path d="M118.058 267.639V276.656H115.808V267.639H118.058ZM118.058 277.395V283.441H107.335V277.395H118.058ZM109.55 279.17V281.648H115.861V279.17H109.55ZM110.798 269.766C110.781 271.717 111.959 273.562 114.542 274.371L113.453 276.076C111.625 275.54 110.359 274.433 109.638 273C108.909 274.556 107.608 275.786 105.701 276.375L104.611 274.617C107.283 273.809 108.46 271.77 108.46 269.766V268.219H110.798V269.766ZM126.649 271.242C126.631 274.107 127.862 277.008 130.428 278.238L129.075 280.031C127.361 279.188 126.209 277.605 125.541 275.672C124.847 277.746 123.608 279.442 121.797 280.33L120.409 278.52C123.116 277.271 124.399 274.213 124.399 271.242V268.852H126.649V271.242ZM133.381 267.621V273.791H135.737V275.689H133.381V283.617H131.131V267.621H133.381Z" fill="white"/>
<path d="M45.4247 309.438V310.453H32.7059V309.438H38.3934V306.031H39.5966V309.438H45.4247ZM33.2059 305.172C35.6356 304.758 38.3388 302.727 38.3466 300.391V299.328H39.6278V300.391C39.6356 302.711 42.3778 304.758 44.7997 305.172L44.2528 306.188C42.1356 305.75 39.9013 304.32 39.0028 302.32C38.0888 304.312 35.8778 305.75 33.7528 306.188L33.2059 305.172ZM53.4203 307.109C56.2719 307.109 57.9984 308.047 57.9984 309.672C57.9984 311.312 56.2719 312.25 53.4203 312.266C50.5609 312.25 48.8188 311.312 48.8109 309.672C48.8188 308.047 50.5609 307.109 53.4203 307.109ZM47.6078 305.656V299.25H48.8109V301.375H52.8578V299.25H54.0766V305.656H47.6078ZM48.8109 304.656H52.8578V302.344H48.8109V304.656ZM50.0453 309.672C50.0297 310.672 51.3266 311.266 53.4203 311.266C55.5219 311.266 56.8031 310.672 56.8109 309.672C56.8031 308.68 55.5219 308.094 53.4203 308.078C51.3266 308.094 50.0297 308.68 50.0453 309.672ZM56.6547 306.734V298.375H57.8734V301.875H59.9672V302.922H57.8734V306.734H56.6547ZM72.1816 298.375V302.609H74.2753V303.641H72.1816V308.625H70.9628V298.375H72.1816ZM61.5878 302.781C61.58 300.766 63.1581 299.367 65.2284 299.359C67.3144 299.367 68.8691 300.766 68.8847 302.781C68.8691 304.789 67.3144 306.203 65.2284 306.203C63.1581 306.203 61.58 304.789 61.5878 302.781ZM62.7909 302.781C62.7831 304.148 63.8534 305.125 65.2284 305.125C66.6269 305.125 67.6738 304.148 67.6816 302.781C67.6738 301.406 66.6269 300.438 65.2284 300.438C63.8534 300.438 62.7831 301.406 62.7909 302.781ZM63.4941 311.969V307.562H64.6972V310.938H72.8222V311.969H63.4941ZM87.1459 298.391V308.578H85.9116V303.25H83.0522V302.234H85.9116V298.391H87.1459ZM75.6928 305.797C77.7397 305.078 79.2241 303.242 79.2241 301.25V300.531H76.0834V299.516H83.5678V300.531H80.4584V301.25C80.4584 303.047 81.8491 304.789 83.8803 305.484L83.2397 306.469C81.6772 305.898 80.4663 304.734 79.8647 303.297C79.2631 304.906 77.9819 306.18 76.3334 306.797L75.6928 305.797ZM78.2241 311.969V307.656H79.4584V310.938H87.5366V311.969H78.2241ZM94.6416 301.016C94.6494 302.836 96.0088 304.461 98.0478 305.125L97.4697 306.094C95.8681 305.562 94.6572 304.461 94.0556 303.062C93.4619 304.656 92.1806 305.898 90.5166 306.5L89.8916 305.516C91.9697 304.812 93.4228 303.023 93.4384 301.016V300.422H90.2666V299.406H97.7666V300.422H94.6416V301.016ZM91.7353 309.672C91.7431 308.07 93.4853 307.141 96.3447 307.141C99.1963 307.141 100.923 308.07 100.923 309.672C100.923 311.297 99.1963 312.234 96.3447 312.234C93.4853 312.234 91.7431 311.297 91.7353 309.672ZM92.9697 309.672C92.9541 310.672 94.2509 311.258 96.3447 311.25C98.4463 311.258 99.7275 310.672 99.7353 309.672C99.7275 308.703 98.4463 308.125 96.3447 308.125C94.2509 308.125 92.9541 308.703 92.9697 309.672ZM99.5791 306.766V298.375H100.798V301.922H102.892V302.953H100.798V306.766H99.5791ZM112.559 299.875V300.875H104.278V299.875H107.809V298.312H109.028V299.875H112.559ZM105.075 304.109C105.067 302.578 106.411 301.609 108.418 301.594C110.411 301.609 111.747 302.578 111.762 304.109C111.747 305.617 110.411 306.602 108.418 306.609C106.411 306.602 105.067 305.617 105.075 304.109ZM106.012 308.828V307.828H115.106V312.266H113.887V308.828H106.012ZM106.247 304.109C106.239 305.031 107.106 305.633 108.418 305.625C109.715 305.633 110.59 305.031 110.606 304.109C110.59 303.164 109.715 302.555 108.418 302.547C107.106 302.555 106.239 303.164 106.247 304.109ZM113.887 307.062V298.375H115.106V302.234H117.2V303.266H115.106V307.062H113.887ZM122.695 301.141C122.703 302.68 123.773 304.234 125.555 304.906L124.914 305.844C123.578 305.328 122.617 304.336 122.117 303.141C121.609 304.461 120.609 305.641 119.242 306.234L118.57 305.281C120.398 304.484 121.516 302.688 121.523 301.141V299.25H122.695V301.141ZM121.102 309.766C121.086 308.195 122.867 307.273 125.758 307.281C128.633 307.273 130.422 308.195 130.43 309.766C130.422 311.32 128.633 312.234 125.758 312.234C122.867 312.234 121.086 311.32 121.102 309.766ZM122.32 309.766C122.305 310.711 123.625 311.289 125.758 311.281C127.867 311.289 129.195 310.711 129.211 309.766C129.195 308.805 127.867 308.227 125.758 308.219C123.625 308.227 122.305 308.805 122.32 309.766ZM126.18 306.531V298.656H127.336V302.125H129.18V298.391H130.352V306.969H129.18V303.141H127.336V306.531H126.18ZM148.827 298.391V306.281H147.608V298.391H148.827ZM137.468 304.953C139.569 304.219 141.03 302.336 141.03 300.297V298.938H142.28V300.297C142.265 302.258 143.765 303.992 145.812 304.719L145.187 305.656C143.577 305.102 142.288 303.93 141.663 302.414C141.046 304.023 139.749 305.305 138.093 305.922L137.468 304.953ZM139.796 312.078V307.078H148.827V312.078H139.796ZM140.999 311.078H147.624V308.078H140.999V311.078ZM156.213 299.391C158.393 299.398 159.94 300.727 159.948 302.656C159.94 304.594 158.393 305.914 156.213 305.922C154.018 305.914 152.456 304.594 152.463 302.656C152.456 300.727 154.018 299.398 156.213 299.391ZM151.745 308.188C154.307 308.195 157.846 308.172 160.917 307.719L161.01 308.625C157.831 309.219 154.417 309.234 151.917 309.234L151.745 308.188ZM153.667 302.656C153.659 303.953 154.729 304.844 156.213 304.844C157.682 304.844 158.753 303.953 158.745 302.656C158.753 301.367 157.682 300.469 156.213 300.469C154.729 300.469 153.659 301.367 153.667 302.656ZM161.838 312.297V298.375H163.057V312.297H161.838ZM170.553 299.062C172.631 299.047 174.123 300.195 174.115 301.891C174.123 303.586 172.631 304.742 170.553 304.734C168.475 304.742 166.99 303.586 166.99 301.891C166.99 300.195 168.475 299.047 170.553 299.062ZM165.943 305.922C168.553 305.93 172.123 305.875 175.209 305.422L175.287 306.344C173.959 306.586 172.584 306.734 171.24 306.82V311.844H170.022V306.891C168.608 306.953 167.272 306.961 166.115 306.969L165.943 305.922ZM168.193 301.891C168.178 302.977 169.17 303.727 170.553 303.719C171.951 303.727 172.951 302.977 172.943 301.891C172.951 300.812 171.951 300.047 170.553 300.062C169.17 300.047 168.178 300.812 168.193 301.891ZM176.225 312.281V298.391H177.428V312.281H176.225ZM191.736 298.391V308.938H190.502V307.5H187.627V306.609H190.502V298.391H191.736ZM180.205 304.828C182.791 304.812 186.275 304.789 189.252 304.422L189.33 305.312C188.095 305.508 186.791 305.633 185.517 305.711V308.453H184.283V305.773C182.877 305.828 181.541 305.828 180.377 305.828L180.205 304.828ZM181.33 301.375C181.322 299.914 182.712 298.953 184.767 298.953C186.806 298.953 188.197 299.914 188.205 301.375C188.197 302.859 186.806 303.781 184.767 303.781C182.712 303.781 181.322 302.859 181.33 301.375ZM182.205 311.969V307.906H183.439V310.938H192.08V311.969H182.205ZM182.502 301.375C182.486 302.281 183.408 302.867 184.767 302.875C186.087 302.867 187.025 302.281 187.033 301.375C187.025 300.484 186.087 299.875 184.767 299.891C183.408 299.875 182.486 300.484 182.502 301.375ZM205.982 298.375V312.266H204.763V298.375H205.982ZM194.669 308.562C195.857 308.555 197.216 308.547 198.622 308.5V306.984C196.95 306.812 195.872 305.859 195.888 304.469C195.872 302.898 197.208 301.883 199.216 301.891C201.224 301.883 202.583 302.898 202.575 304.469C202.583 305.844 201.505 306.797 199.857 306.984V308.453C201.2 308.391 202.56 308.297 203.841 308.125L203.935 309.062C200.833 309.562 197.435 309.609 194.857 309.609L194.669 308.562ZM194.966 301.094V300.094H198.622V298.391H199.857V300.094H203.482V301.094H194.966ZM197.028 304.469C197.021 305.43 197.927 306.062 199.216 306.047C200.513 306.062 201.411 305.43 201.403 304.469C201.411 303.5 200.513 302.844 199.216 302.844C197.927 302.844 197.021 303.5 197.028 304.469Z" fill="white"/>
</g>
<g clip-path="url(#clip2_5024_66909)">
<path d="M240 360L119.419 408.798L0 360V511.478L120 560L240 510.635V360Z" fill="#48755C"/>
<path d="M109.869 451.98C109.869 454.564 111.187 457.324 113.876 458.449L112.664 460.207C110.774 459.407 109.473 457.816 108.761 455.865C108.032 457.983 106.705 459.741 104.824 460.611L103.541 458.836C106.195 457.658 107.566 454.688 107.566 451.98V450.996H104.173V449.168H113.209V450.996H109.869V451.98ZM117.058 447.621V463.617H114.791V447.621H117.058ZM123.715 456.727V458.432H130.377V456.727H132.592V463.441H121.518V456.727H123.715ZM123.715 461.631H130.377V460.137H123.715V461.631ZM132.663 448.271V449.555C132.663 450.768 132.663 452.068 132.293 453.879H134.403V455.672H119.76V453.879H130.061C130.377 452.332 130.421 451.128 130.43 450.064H121.553V448.271H132.663Z" fill="white"/>
<path d="M46.7216 481.016C46.7294 482.836 48.0888 484.461 50.1278 485.125L49.5497 486.094C47.9481 485.562 46.7372 484.461 46.1356 483.062C45.5419 484.656 44.2606 485.898 42.5966 486.5L41.9716 485.516C44.0497 484.812 45.5028 483.023 45.5184 481.016V480.422H42.3466V479.406H49.8466V480.422H46.7216V481.016ZM43.8153 489.672C43.8231 488.07 45.5653 487.141 48.4247 487.141C51.2763 487.141 53.0028 488.07 53.0028 489.672C53.0028 491.297 51.2763 492.234 48.4247 492.234C45.5653 492.234 43.8231 491.297 43.8153 489.672ZM45.0497 489.672C45.0341 490.672 46.3309 491.258 48.4247 491.25C50.5263 491.258 51.8075 490.672 51.8153 489.672C51.8075 488.703 50.5263 488.125 48.4247 488.125C46.3309 488.125 45.0341 488.703 45.0497 489.672ZM51.6591 486.766V478.375H52.8778V481.922H54.9716V482.953H52.8778V486.766H51.6591ZM64.6391 479.875V480.875H56.3578V479.875H59.8891V478.312H61.1078V479.875H64.6391ZM57.1547 484.109C57.1469 482.578 58.4906 481.609 60.4984 481.594C62.4906 481.609 63.8266 482.578 63.8422 484.109C63.8266 485.617 62.4906 486.602 60.4984 486.609C58.4906 486.602 57.1469 485.617 57.1547 484.109ZM58.0922 488.828V487.828H67.1859V492.266H65.9672V488.828H58.0922ZM58.3266 484.109C58.3188 485.031 59.1859 485.633 60.4984 485.625C61.7953 485.633 62.6703 485.031 62.6859 484.109C62.6703 483.164 61.7953 482.555 60.4984 482.547C59.1859 482.555 58.3188 483.164 58.3266 484.109ZM65.9672 487.062V478.375H67.1859V482.234H69.2797V483.266H67.1859V487.062H65.9672ZM83.2909 484.984V486H70.6347V484.984H83.2909ZM71.3534 483.172C73.7753 482.891 76.1113 481.695 76.1659 480.109H71.7909V479.094H82.1659V480.109H77.7597C77.8144 481.68 80.1269 482.891 82.5878 483.172L82.1347 484.156C79.8613 483.867 77.7284 482.844 76.9628 481.305C76.1972 482.844 74.08 483.867 71.7909 484.156L71.3534 483.172ZM72.1659 489.734C72.1581 488.141 73.9628 487.219 76.9628 487.219C79.9394 487.219 81.7284 488.141 81.7441 489.734C81.7284 491.344 79.9394 492.234 76.9628 492.234C73.9628 492.234 72.1581 491.344 72.1659 489.734ZM73.4159 489.734C73.4003 490.703 74.7363 491.258 76.9628 491.25C79.1659 491.258 80.5019 490.703 80.5097 489.734C80.5019 488.758 79.1659 488.203 76.9628 488.188C74.7363 488.203 73.4003 488.758 73.4159 489.734ZM89.8334 482.109C89.8256 484.625 91.4428 487.156 93.4584 488.078L92.7241 489.078C91.1459 488.266 89.8413 486.609 89.2241 484.633C88.6069 486.711 87.3022 488.492 85.7241 489.328L84.9272 488.344C86.9663 487.344 88.5756 484.672 88.5834 482.109V479.578H89.8334V482.109ZM91.9428 484.125V483.125H95.2397V478.375H96.4584V492.297H95.2397V484.125H91.9428ZM110.997 479.281V484.938H104.481V479.281H110.997ZM105.481 491.266C107.872 491 110.168 489.648 110.168 488.266H106.059V487.312H110.184V485.953H111.403V487.312H115.559V488.266H111.434C111.426 489.617 113.661 490.969 116.043 491.266L115.622 492.219C113.536 491.93 111.629 490.945 110.801 489.664C109.965 490.977 108.012 491.93 105.918 492.219L105.481 491.266ZM105.684 483.969H109.793V480.281H105.684V483.969ZM113.997 486.359V478.375H115.2V486.359H113.997ZM127.253 481.016C127.261 482.836 128.621 484.461 130.66 485.125L130.082 486.094C128.48 485.562 127.269 484.461 126.668 483.062C126.074 484.656 124.793 485.898 123.128 486.5L122.503 485.516C124.582 484.812 126.035 483.023 126.05 481.016V480.422H122.878V479.406H130.378V480.422H127.253V481.016ZM124.347 489.672C124.355 488.07 126.097 487.141 128.957 487.141C131.808 487.141 133.535 488.07 133.535 489.672C133.535 491.297 131.808 492.234 128.957 492.234C126.097 492.234 124.355 491.297 124.347 489.672ZM125.582 489.672C125.566 490.672 126.863 491.258 128.957 491.25C131.058 491.258 132.339 490.672 132.347 489.672C132.339 488.703 131.058 488.125 128.957 488.125C126.863 488.125 125.566 488.703 125.582 489.672ZM132.191 486.766V478.375H133.41V481.922H135.503V482.953H133.41V486.766H132.191ZM145.171 479.875V480.875H136.89V479.875H140.421V478.312H141.64V479.875H145.171ZM137.687 484.109C137.679 482.578 139.022 481.609 141.03 481.594C143.022 481.609 144.358 482.578 144.374 484.109C144.358 485.617 143.022 486.602 141.03 486.609C139.022 486.602 137.679 485.617 137.687 484.109ZM138.624 488.828V487.828H147.718V492.266H146.499V488.828H138.624ZM138.858 484.109C138.851 485.031 139.718 485.633 141.03 485.625C142.327 485.633 143.202 485.031 143.218 484.109C143.202 483.164 142.327 482.555 141.03 482.547C139.718 482.555 138.851 483.164 138.858 484.109ZM146.499 487.062V478.375H147.718V482.234H149.812V483.266H147.718V487.062H146.499ZM162.213 479.125V480.156C162.213 481.234 162.213 482.5 161.846 484.234H163.885V485.25H151.167V484.234H160.612C161.003 482.484 161.003 481.234 160.995 480.156V480.141H152.776V479.125H162.213ZM152.729 492.078V487.172H162.276V492.078H152.729ZM153.948 491.078H161.057V488.141H153.948V491.078ZM174.939 482.641C174.947 485 176.658 487.398 178.705 488.281L178.017 489.25C176.392 488.516 174.994 486.914 174.345 484.992C173.697 487.031 172.291 488.797 170.705 489.594L169.97 488.625C171.962 487.672 173.697 485.047 173.705 482.641V480.828H170.423V479.812H178.252V480.828H174.939V482.641ZM180.189 492.266V478.375H181.423V492.266H180.189ZM187.153 486.328V488.172H194.107V486.328H195.325V492.078H185.935V486.328H187.153ZM184.278 485.078V484.062H193.739C194.114 482.336 194.114 481.094 194.107 480.031H185.888V479.016H195.325V480.031C195.325 481.094 195.325 482.328 194.943 484.062H196.997V485.078H184.278ZM187.153 491.078H194.107V489.141H187.153V491.078Z" fill="white"/>
</g>
<defs>
<clipPath id="clip0_5024_66909">
<rect width="200" height="240" fill="white" transform="matrix(0 1 -1 0 240 0)"/>
</clipPath>
<clipPath id="clip1_5024_66909">
<rect width="200" height="240" fill="white" transform="matrix(0 1 -1 0 240 180)"/>
</clipPath>
<clipPath id="clip2_5024_66909">
<rect width="200" height="240" fill="white" transform="matrix(0 1 -1 0 240 360)"/>
</clipPath>
</defs>
</svg>
