<svg width="24" height="19" viewBox="0 0 24 19" fill="none" xmlns="http://www.w3.org/2000/svg">
<g id="Frame 2894">
<path id="Vector" d="M16 1C14.4178 1 12.871 1.46919 11.5554 2.34824C10.2398 3.22729 9.21447 4.47672 8.60897 5.93853C8.00347 7.40034 7.84504 9.00887 8.15372 10.5607C8.4624 12.1126 9.22433 13.538 10.3431 14.6569C11.462 15.7757 12.8874 16.5376 14.4393 16.8463C15.9911 17.155 17.5997 16.9965 19.0615 16.391C20.5233 15.7855 21.7727 14.7602 22.6518 13.4446C23.5308 12.129 24 10.5822 24 9C24 7.94942 23.7931 6.90914 23.391 5.93853C22.989 4.96793 22.3997 4.08601 21.6569 3.34315C20.914 2.60028 20.0321 2.011 19.0615 1.60896C18.0909 1.20693 17.0506 1 16 1ZM14.4 12.6V5.4L19.2 9L14.4 12.6Z" fill="#444444"/>
</g>
</svg>
