<svg width="60" height="50" viewBox="0 0 60 50" fill="none" xmlns="http://www.w3.org/2000/svg">
<path d="M21 34.6527V15.3446C21.0004 15.103 21.0668 14.866 21.1923 14.6584C21.3178 14.4507 21.4977 14.2801 21.7132 14.1645C21.9287 14.0488 22.1719 13.9923 22.4172 14.0009C22.6625 14.0094 22.901 14.0828 23.1076 14.2133L38.3697 23.8646C38.563 23.9865 38.722 24.1542 38.8321 24.3524C38.9423 24.5505 39 24.7728 39 24.9987C39 25.2245 38.9423 25.4468 38.8321 25.6449C38.722 25.8431 38.563 26.0108 38.3697 26.1327L23.1076 35.7867C22.901 35.9172 22.6625 35.9906 22.4172 35.9992C22.1719 36.0077 21.9287 35.9512 21.7132 35.8355C21.4977 35.7199 21.3178 35.5493 21.1923 35.3416C21.0668 35.134 21.0004 34.897 21 34.6554V34.6527Z" fill="white"/>
</svg>
