<svg width="26" height="23" viewBox="0 0 26 23" fill="none" xmlns="http://www.w3.org/2000/svg">
<g clip-path="url(#clip0_2413_665)">
<path d="M7.40271 6.507H0V16.5145H7.40271L15.0169 23V11.5107V0L7.40271 6.507Z" fill="white"/>
<path d="M21.6853 11.5094C21.6853 8.97532 20.0567 6.80632 17.7936 6.05469V9.4263C18.3646 9.94171 18.7454 10.6719 18.7454 11.5309C18.7454 12.3684 18.3646 13.12 17.7936 13.6355V16.9641C20.0567 16.2125 21.6853 14.0435 21.6853 11.5094Z" fill="white"/>
<path d="M26 11.5114C26 6.52913 22.4467 2.38441 17.7936 1.54688V4.59636C20.8181 5.39095 23.0812 8.2042 23.0812 11.5329C23.0812 14.8615 20.8393 17.6533 17.7936 18.4694V21.4759C22.4467 20.6169 26 16.4722 26 11.5114Z" fill="white"/>
</g>
<defs>
<clipPath id="clip0_2413_665">
<rect width="26" height="23" fill="white"/>
</clipPath>
</defs>
</svg>
