<svg width="70" height="70" viewBox="0 0 70 70" fill="none" xmlns="http://www.w3.org/2000/svg">
<path d="M2.91666 35C2.91666 17.2812 17.2812 2.91663 35 2.91663C52.7187 2.91663 67.0833 17.2812 67.0833 35C67.0833 52.7187 52.7187 67.0833 35 67.0833C17.2812 67.0833 2.91666 52.7187 2.91666 35ZM35 7.29163C27.6513 7.29163 20.6036 10.2109 15.4072 15.4072C10.2109 20.6035 7.29166 27.6513 7.29166 35C7.29166 42.3487 10.2109 49.3964 15.4072 54.5927C20.6036 59.789 27.6513 62.7083 35 62.7083C42.3487 62.7083 49.3964 59.789 54.5927 54.5927C59.7891 49.3964 62.7083 42.3487 62.7083 35C62.7083 27.6513 59.7891 20.6035 54.5927 15.4072C49.3964 10.2109 42.3487 7.29163 35 7.29163Z" fill="#666666"/>
<path d="M31.374 23H25V46.2846H31.374V23Z" fill="#666666"/>
<path d="M45.0001 23H38.6261V46.2846H45.0001V23Z" fill="#666666"/>
</svg>
