<svg width="70" height="70" viewBox="0 0 70 70" fill="none" xmlns="http://www.w3.org/2000/svg">
<path d="M27.7083 45.4533V24.5467C27.7087 24.2851 27.7795 24.0284 27.9132 23.8036C28.047 23.5788 28.2387 23.3941 28.4683 23.2688C28.698 23.1436 28.9571 23.0824 29.2185 23.0917C29.4799 23.101 29.734 23.1804 29.9541 23.3217L46.2175 33.7721C46.4234 33.904 46.5928 34.0856 46.7102 34.3002C46.8276 34.5148 46.8891 34.7554 46.8891 35C46.8891 35.2446 46.8276 35.4852 46.7102 35.6998C46.5928 35.9144 46.4234 36.096 46.2175 36.2279L29.9541 46.6812C29.734 46.8225 29.4799 46.9019 29.2185 46.9112C28.9571 46.9205 28.698 46.8593 28.4683 46.7341C28.2387 46.6088 28.047 46.4241 27.9132 46.1993C27.7795 45.9745 27.7087 45.7178 27.7083 45.4562V45.4533Z" fill="#666666"/>
<path d="M2.91666 35C2.91666 17.2812 17.2812 2.91666 35 2.91666C52.7187 2.91666 67.0833 17.2812 67.0833 35C67.0833 52.7187 52.7187 67.0833 35 67.0833C17.2812 67.0833 2.91666 52.7187 2.91666 35ZM35 7.29166C27.6513 7.29166 20.6036 10.2109 15.4072 15.4072C10.2109 20.6036 7.29166 27.6513 7.29166 35C7.29166 42.3487 10.2109 49.3964 15.4072 54.5927C20.6036 59.7891 27.6513 62.7083 35 62.7083C42.3487 62.7083 49.3964 59.7891 54.5927 54.5927C59.7891 49.3964 62.7083 42.3487 62.7083 35C62.7083 27.6513 59.7891 20.6036 54.5927 15.4072C49.3964 10.2109 42.3487 7.29166 35 7.29166Z" fill="#666666"/>
</svg>
