<svg width="145" height="31" viewBox="0 0 145 31" fill="none" xmlns="http://www.w3.org/2000/svg">
<path d="M10.6811 16.4237C10.6811 13.3555 12.6697 10.7419 15.4538 9.8896C16.3061 8.07141 16.9879 6.02596 17.4993 3.75323C17.6697 3.07141 17.5561 2.84414 17.5561 2.84414C17.5561 2.84414 17.5561 2.84414 17.4993 2.84414C10.0561 2.78732 3.97656 8.92369 3.97656 16.4237C3.97656 20.1169 5.45384 23.4691 7.8402 25.9123L13.6357 22.0487C11.8743 20.7987 10.6811 18.7532 10.6811 16.4237Z" fill="#8BC53F"/>
<path d="M21.8164 3.46875L20.1119 10.0028C22.6687 11.0256 24.4869 13.4688 24.4869 16.4233C24.4869 20.2301 21.4187 23.2983 17.6119 23.2983C17.3846 23.2983 17.1573 23.2983 16.9869 23.2415C14.3732 25.5142 11.8164 26.821 9.94141 27.6165C12.1573 29.0938 14.771 30.0028 17.6119 30.0028C25.1119 30.0028 31.1914 23.9233 31.1914 16.4233C31.1914 10.4006 27.271 5.28693 21.8164 3.46875Z" fill="#8BC53F"/>
<path d="M24.6591 0H17.3864L17.1023 1.19318C18.6932 1.42045 19.2614 2.21591 18.8636 4.03409C15.7386 17.7273 5.625 24.4318 5.625 24.4318L5.34091 24.6591C5.51136 24.6023 5.56818 24.7159 5.39773 24.8295L5.17045 24.9432L5.05682 24.8864C5.05682 24.9432 5.05682 25 5.05682 25L5.11364 25.0568L4.88636 25.1136L4.82955 25C4.82955 25.3409 4.43182 25.3409 4.20455 25.3977C3.35227 25.8523 2.32955 26.1364 1.36364 26.25C1.70455 26.3636 2.04545 26.0795 2.38636 26.1932C2.44318 26.3636 2.32955 26.4205 2.32955 26.5341C2.04545 26.4205 1.93182 27.2159 1.64773 26.6477V26.7614C0.965909 26.7614 0.511364 27.1023 0 27.1591C0.852273 27.1023 1.70455 27.1591 2.5 26.9886C2.89773 26.9886 3.35227 26.9318 3.75 26.875C3.80682 26.9886 3.69318 27.1023 3.69318 27.1591C3.40909 27.0455 3.29545 27.8409 3.01136 27.2727V27.3864C2.32955 27.3864 1.875 27.6705 1.36364 27.7841C2.21591 27.7273 3.06818 27.7841 3.86364 27.6136C4.77273 27.6136 5.68182 27.5568 6.47727 27.1023C6.53409 27.1023 6.70455 27.0455 6.70455 27.0455C8.01136 26.7614 20.0568 23.6932 25.1136 7.32955C25.3409 6.59091 26.0795 4.03409 26.4205 1.64773C26.5341 1.76136 26.875 0 24.6591 0Z" fill="url(#paint0_linear_5089_76813)"/>
<path d="M57.9883 22.6758V24.668H41.7188V22.6758H48.5156V18.6523H50.9961V22.6758H57.9883ZM51.0742 11.3086C51.0742 13.8477 53.3594 16.5234 57.4219 17.1484L56.3672 19.2188C53.2422 18.6523 50.918 16.9824 49.7461 14.7656C48.5742 16.9727 46.2695 18.6621 43.1641 19.2188L42.1094 17.1484C46.1328 16.5234 48.3984 13.8281 48.418 11.3086V10.0391H51.0742V11.3086ZM67.2852 19.9023C70.9766 19.9023 73.2812 21.1719 73.2812 23.3398C73.2812 25.5469 70.9766 26.8164 67.2852 26.8164C63.5156 26.8164 61.1914 25.5469 61.1914 23.3398C61.1914 21.1719 63.5156 19.9023 67.2852 19.9023ZM67.2852 21.8359C64.9414 21.8359 63.6719 22.3242 63.6914 23.3398C63.6719 24.3555 64.9414 24.8828 67.2852 24.8828C69.5898 24.8828 70.8203 24.3555 70.8203 23.3398C70.8203 22.3242 69.5898 21.8359 67.2852 21.8359ZM73.1055 9.02344V13.1445H75.5078V15.2344H73.1055V19.5117H70.6055V9.02344H73.1055ZM62.0117 10.1367V12.3828H65.6445V10.1367H68.1445V18.4961H59.5312V10.1367H62.0117ZM62.0117 16.5234H65.6445V14.3164H62.0117V16.5234ZM90.3906 9.02344V14.1211H92.793V16.1914H90.3906V21.9727H87.8906V9.02344H90.3906ZM91.0352 24.4922V26.4844H78.8672V20.6055H81.3477V24.4922H91.0352ZM81.2891 10.1758C84.0039 10.1758 86.1328 12.0508 86.1328 14.6875C86.1328 17.2852 84.0039 19.1992 81.2891 19.1992C78.5547 19.1992 76.4062 17.2852 76.4062 14.6875C76.4062 12.0508 78.5547 10.1758 81.2891 10.1758ZM81.2891 12.3438C79.9414 12.3242 78.8477 13.2031 78.8672 14.6875C78.8477 16.1328 79.9414 17.0312 81.2891 17.0312C82.6562 17.0312 83.6914 16.1328 83.7109 14.6875C83.6914 13.2031 82.6562 12.3242 81.2891 12.3438ZM108.555 9.04297V22.0117H106.074V15.6445H103.164V13.6328H106.074V9.04297H108.555ZM108.984 24.4922V26.4844H96.7578V20.8789H99.2578V24.4922H108.984ZM100.293 12.5195C100.293 14.5703 101.543 16.7773 104.375 17.6953L103.145 19.668C101.172 19.0332 99.8242 17.7344 99.043 16.1133C98.2617 17.9102 96.8457 19.3359 94.7461 20.0391L93.4766 18.0078C96.4062 17.0898 97.7344 14.7656 97.7539 12.5V12.2266H94.1797V10.2344H103.828V12.2266H100.293V12.5195Z" fill="#005AA9"/>
<path d="M112.379 25L112.354 22.2324L118.955 16.1641C120.682 14.5137 121.596 13.498 121.596 12.0508C121.596 10.4258 120.352 9.41016 118.676 9.41016C116.95 9.41016 115.832 10.502 115.832 12.2539H112.202C112.176 8.64844 114.842 6.36328 118.727 6.36328C122.662 6.36328 125.278 8.59766 125.278 11.7969C125.278 13.8789 124.262 15.6055 120.479 19.0332L117.686 21.75V21.8516H125.532V25H112.379ZM127.537 21.75V18.7285L135.307 6.61719H140.106V18.6777H142.442V21.75H140.106V25H136.475V21.75H127.537ZM131.397 18.6777H136.526V10.8066H136.348L131.397 18.5254V18.6777Z" fill="#8BC53F"/>
<defs>
<linearGradient id="paint0_linear_5089_76813" x1="8.46182" y1="24.1569" x2="20.6746" y2="6.0779" gradientUnits="userSpaceOnUse">
<stop stop-color="#0094D0"/>
<stop offset="1" stop-color="#0071BB"/>
</linearGradient>
</defs>
</svg>
