<svg width="38" height="38" viewBox="0 0 38 38" fill="none" xmlns="http://www.w3.org/2000/svg">
<g clip-path="url(#clip0_766_246)">
<path d="M18.9783 37.9567C29.4598 37.9567 37.9567 29.4598 37.9567 18.9783C37.9567 8.49689 29.4598 0 18.9783 0C8.49689 0 0 8.49689 0 18.9783C0 29.4598 8.49689 37.9567 18.9783 37.9567Z" fill="#F8E049"/>
<path d="M18.9783 7.79932C12.2623 7.79932 6.80273 12.1323 6.80273 17.4185C6.80273 20.8848 9.0992 23.9179 12.5656 25.6078C12.3056 26.561 11.6556 29.0308 11.5257 29.5941C11.3523 30.244 11.7856 30.244 12.0456 30.0707C12.2623 29.9407 15.382 27.8176 16.7252 26.9076C17.4618 27.0376 18.1984 27.081 18.9783 27.081C25.6944 27.081 31.1539 22.7913 31.1539 17.4618C31.1539 12.1323 25.6944 7.79932 18.9783 7.79932Z" fill="#371C1D"/>
</g>
<defs>
<clipPath id="clip0_766_246">
<rect width="38" height="38" fill="white"/>
</clipPath>
</defs>
</svg>
