<svg width="15" height="18" viewBox="0 0 15 18" fill="none" xmlns="http://www.w3.org/2000/svg">
<g id="Vector">
<path d="M11.2653 1.36326L11.358 1.41673C12.1582 1.87875 12.8256 2.26401 13.3142 2.64109C13.83 3.03911 14.2394 3.49596 14.4108 4.13586C14.5823 4.77577 14.4562 5.37609 14.2085 5.97867C14.0366 6.39692 13.7839 6.86692 13.4793 7.40304L12.8259 7.01468L12.8175 7.00974L5.6949 2.89753L5.02881 2.50494C5.33744 1.97929 5.61553 1.53033 5.8893 1.17556C6.28732 0.659791 6.74417 0.250426 7.38407 0.0789635C8.02398 -0.0924988 8.6243 0.0335982 9.22688 0.281258C9.79776 0.515891 10.4651 0.901201 11.2653 1.36326Z" fill="black"/>
<path d="M4.25598 3.84019L0.678938 10.0357C0.372669 10.5652 0.130502 10.9838 0.040782 11.46C-0.0489384 11.9362 0.0242764 12.4143 0.116871 13.0189L0.141818 13.1823C0.312738 14.3047 0.45362 15.2299 0.666105 15.9315C0.888332 16.6653 1.22995 17.3004 1.90183 17.6883C2.57371 18.0762 3.29453 18.0545 4.0411 17.8801C4.75493 17.7133 5.62661 17.3727 6.68412 16.9595L6.83814 16.8994C7.40805 16.6773 7.85868 16.5017 8.22621 16.1859C8.59375 15.8701 8.83523 15.451 9.14063 14.921L12.7092 8.73998L12.0419 8.34333L4.91455 4.22838L4.25598 3.84019Z" fill="black"/>
</g>
</svg>
