<svg width="30" height="30" viewBox="0 0 30 30" fill="none" xmlns="http://www.w3.org/2000/svg">
<path d="M6.51909 26.2773L6.95993 25.6706L6.51909 26.2773ZM5.16712 24.9254L5.77388 24.4845L5.16712 24.9254ZM24.8329 24.9254L24.2261 24.4845L24.8329 24.9254ZM23.4809 26.2773L23.0401 25.6706L23.4809 26.2773ZM23.4809 4.16712L23.9217 3.56036L23.4809 4.16712ZM24.8329 5.51909L24.2261 5.95993L24.8329 5.51909ZM6.51909 4.16712L6.95993 4.77388L6.51909 4.16712ZM5.16712 5.51909L5.77388 5.95993L5.16712 5.51909ZM16.4008 8.61649L16.5182 9.35726L16.5182 9.35726L16.4008 8.61649ZM14.4889 8.61649L14.3715 9.35726L14.3715 9.35726L14.4889 8.61649ZM10.1111 21.8056C9.6969 21.8056 9.36111 22.1413 9.36111 22.5556C9.36111 22.9698 9.6969 23.3056 10.1111 23.3056V21.8056ZM19.8889 23.3056C20.3031 23.3056 20.6389 22.9698 20.6389 22.5556C20.6389 22.1413 20.3031 21.8056 19.8889 21.8056V23.3056ZM10.1111 16.9167C9.6969 16.9167 9.36111 17.2525 9.36111 17.6667C9.36111 18.0809 9.6969 18.4167 10.1111 18.4167V16.9167ZM19.8889 18.4167C20.3031 18.4167 20.6389 18.0809 20.6389 17.6667C20.6389 17.2525 20.3031 16.9167 19.8889 16.9167V18.4167ZM10.1111 12.0278C9.6969 12.0278 9.36111 12.3636 9.36111 12.7778C9.36111 13.192 9.6969 13.5278 10.1111 13.5278V12.0278ZM19.8889 13.5278C20.3031 13.5278 20.6389 13.192 20.6389 12.7778C20.6389 12.3636 20.3031 12.0278 19.8889 12.0278V13.5278ZM26 14H25.25V16.4444H26H26.75V14H26ZM4 16.4444H4.75V14H4H3.25V16.4444H4ZM15 27.4444V26.6944C12.6918 26.6944 11.0209 26.6934 9.7241 26.5529C8.44136 26.4139 7.61397 26.1458 6.95993 25.6706L6.51909 26.2773L6.07825 26.8841C7.03061 27.576 8.15217 27.8914 9.56253 28.0442C10.9589 28.1955 12.7252 28.1944 15 28.1944V27.4444ZM4 16.4444H3.25C3.25 18.7192 3.24897 20.4856 3.40025 21.8819C3.55306 23.2923 3.86843 24.4138 4.56036 25.3662L5.16712 24.9254L5.77388 24.4845C5.29869 23.8305 5.0305 23.0031 4.89153 21.7203C4.75103 20.4236 4.75 18.7527 4.75 16.4444H4ZM6.51909 26.2773L6.95993 25.6706C6.5048 25.3399 6.10455 24.9396 5.77388 24.4845L5.16712 24.9254L4.56036 25.3662C4.98355 25.9487 5.49578 26.4609 6.07825 26.8841L6.51909 26.2773ZM26 16.4444H25.25C25.25 18.7527 25.249 20.4236 25.1085 21.7203C24.9695 23.0031 24.7013 23.8305 24.2261 24.4845L24.8329 24.9254L25.4396 25.3662C26.1316 24.4138 26.4469 23.2923 26.5997 21.8819C26.751 20.4856 26.75 18.7192 26.75 16.4444H26ZM15 27.4444V28.1944C17.2748 28.1944 19.0411 28.1955 20.4375 28.0442C21.8478 27.8914 22.9694 27.576 23.9217 26.8841L23.4809 26.2773L23.0401 25.6706C22.386 26.1458 21.5586 26.4139 20.2759 26.5529C18.9791 26.6934 17.3082 26.6944 15 26.6944V27.4444ZM24.8329 24.9254L24.2261 24.4845C23.8954 24.9396 23.4952 25.3399 23.0401 25.6706L23.4809 26.2773L23.9217 26.8841C24.5042 26.4609 25.0165 25.9487 25.4396 25.3662L24.8329 24.9254ZM26 14H26.75C26.75 11.7252 26.751 9.95886 26.5997 8.56253C26.4469 7.15217 26.1316 6.03061 25.4396 5.07825L24.8329 5.51909L24.2261 5.95993C24.7013 6.61397 24.9695 7.44136 25.1085 8.7241C25.249 10.0209 25.25 11.6918 25.25 14H26ZM23.4809 4.16712L23.0401 4.77388C23.4952 5.10455 23.8954 5.5048 24.2261 5.95993L24.8329 5.51909L25.4396 5.07825C25.0165 4.49578 24.5042 3.98355 23.9217 3.56036L23.4809 4.16712ZM4 14H4.75C4.75 11.6918 4.75103 10.0209 4.89153 8.7241C5.0305 7.44136 5.29869 6.61397 5.77388 5.95993L5.16712 5.51909L4.56036 5.07825C3.86843 6.03061 3.55306 7.15217 3.40025 8.56253C3.24897 9.95886 3.25 11.7252 3.25 14H4ZM6.51909 4.16712L6.07825 3.56036C5.49578 3.98355 4.98355 4.49578 4.56036 5.07825L5.16712 5.51909L5.77388 5.95993C6.10455 5.5048 6.5048 5.10455 6.95993 4.77388L6.51909 4.16712ZM16.4008 8.61649L16.2835 7.87572C15.7279 7.96373 15.1618 7.96373 14.6062 7.87572L14.4889 8.61649L14.3715 9.35726C15.0826 9.46988 15.8071 9.46988 16.5182 9.35726L16.4008 8.61649ZM22.8717 3.7961L22.3416 3.26558C20.8278 4.77825 19.7157 5.87367 18.7522 6.63248C17.7998 7.3825 17.0526 7.75391 16.2835 7.87572L16.4008 8.61649L16.5182 9.35726C17.6381 9.17988 18.6217 8.64456 19.6803 7.81091C20.7277 6.98606 21.9065 5.82088 23.4018 4.32662L22.8717 3.7961ZM15 3V3.75C17.0285 3.75 18.5677 3.75053 19.7979 3.84721C21.0257 3.94369 21.8721 4.132 22.534 4.46577L22.8717 3.7961L23.2094 3.12642C22.2926 2.6641 21.2203 2.45436 19.9154 2.35182C18.6131 2.24947 17.0058 2.25 15 2.25V3ZM22.8717 3.7961L22.534 4.46577C22.7134 4.55623 22.881 4.6583 23.0401 4.77388L23.4809 4.16712L23.9217 3.56036C23.6962 3.39647 23.4595 3.25252 23.2094 3.12642L22.8717 3.7961ZM7.75494 3.53312L7.22462 4.06346C8.80445 5.64322 10.0352 6.87168 11.1178 7.73813C12.2114 8.61342 13.2194 9.17478 14.3715 9.35726L14.4889 8.61649L14.6062 7.87572C13.815 7.75041 13.0471 7.36101 12.0551 6.56703C11.052 5.76421 9.88742 4.60488 8.28525 3.00278L7.75494 3.53312ZM15 3V2.25C13.2428 2.25 11.7937 2.24973 10.5909 2.31784C9.38878 2.3859 8.3795 2.52423 7.51031 2.82414L7.75494 3.53312L7.99957 4.2421C8.67545 4.00889 9.52393 3.88065 10.6757 3.81544C11.8267 3.75027 13.2276 3.75 15 3.75V3ZM7.75494 3.53312L7.51031 2.82414C6.98586 3.00509 6.51305 3.24446 6.07825 3.56036L6.51909 4.16712L6.95993 4.77388C7.26363 4.55323 7.60171 4.37938 7.99957 4.2421L7.75494 3.53312ZM10.1111 22.5556V23.3056H19.8889V22.5556V21.8056H10.1111V22.5556ZM10.1111 17.6667V18.4167H19.8889V17.6667V16.9167H10.1111V17.6667ZM10.1111 12.7778V13.5278H19.8889V12.7778V12.0278H10.1111V12.7778Z" fill="#333333"/>
</svg>
