<svg width="30" height="30" viewBox="0 0 30 30" fill="none" xmlns="http://www.w3.org/2000/svg">
<path d="M6.10233 21.5625L6.44282 20.8943L6.10233 21.5625ZM3.61928 19.0795L4.28754 18.739L3.61928 19.0795ZM27.3807 19.0795L26.7125 18.739L27.3807 19.0795ZM24.8977 21.5625L24.5572 20.8943L24.8977 21.5625ZM24.8977 4.61928L24.5572 5.28754L24.8977 4.61928ZM27.3807 7.10233L26.7125 7.44282L27.3807 7.10233ZM6.10233 4.61928L6.44282 5.28754L6.10233 4.61928ZM3.61928 7.10233L4.28754 7.44282L3.61928 7.10233ZM10.7726 25.9997C10.3708 26.1001 10.1265 26.5073 10.2269 26.9092C10.3274 27.311 10.7346 27.5553 11.1364 27.4549L10.7726 25.9997ZM12.7439 26.2799L12.562 25.5523L12.7439 26.2799ZM18.2561 26.2799L18.438 25.5523L18.2561 26.2799ZM19.8636 27.4549C20.2654 27.5553 20.6726 27.311 20.7731 26.9092C20.8735 26.5073 20.6292 26.1001 20.2274 25.9997L19.8636 27.4549ZM16.25 22.1818C16.25 21.7676 15.9142 21.4318 15.5 21.4318C15.0858 21.4318 14.75 21.7676 14.75 22.1818H16.25ZM15.5 18.0227C15.0858 18.0227 14.75 18.3585 14.75 18.7727C14.75 19.1869 15.0858 19.5227 15.5 19.5227L15.5 18.0227ZM22.3182 19.5227C22.7324 19.5227 23.0682 19.1869 23.0682 18.7727C23.0682 18.3585 22.7324 18.0227 22.3182 18.0227V19.5227ZM15.5 25.9406L15.5 26.6906L15.5 25.9406ZM12.0909 4V4.75H18.9091V4V3.25H12.0909V4ZM18.9091 22.1818V21.4318H12.0909V22.1818V22.9318H18.9091V22.1818ZM12.0909 22.1818V21.4318C10.4875 21.4318 9.33001 21.4312 8.42018 21.3569C7.5191 21.2833 6.92717 21.1411 6.44282 20.8943L6.10233 21.5625L5.76183 22.2308C6.49289 22.6033 7.30419 22.7707 8.29803 22.8519C9.28311 22.9324 10.5122 22.9318 12.0909 22.9318V22.1818ZM3 13.0909H2.25C2.25 14.6696 2.24942 15.8987 2.3299 16.8838C2.4111 17.8776 2.57854 18.6889 2.95103 19.42L3.61928 19.0795L4.28754 18.739C4.04075 18.2546 3.89854 17.6627 3.82492 16.7616C3.75058 15.8518 3.75 14.6943 3.75 13.0909H3ZM6.10233 21.5625L6.44282 20.8943C5.51484 20.4215 4.76037 19.667 4.28754 18.739L3.61928 19.0795L2.95103 19.42C3.56767 20.6302 4.55161 21.6142 5.76183 22.2308L6.10233 21.5625ZM28 13.0909H27.25C27.25 14.6943 27.2494 15.8518 27.1751 16.7616C27.1015 17.6627 26.9593 18.2546 26.7125 18.739L27.3807 19.0795L28.049 19.42C28.4215 18.6889 28.5889 17.8776 28.6701 16.8838C28.7506 15.8987 28.75 14.6696 28.75 13.0909H28ZM18.9091 22.1818V22.9318C20.4878 22.9318 21.7169 22.9324 22.702 22.8519C23.6958 22.7707 24.5071 22.6033 25.2382 22.2308L24.8977 21.5625L24.5572 20.8943C24.0728 21.1411 23.4809 21.2833 22.5798 21.3569C21.67 21.4312 20.5125 21.4318 18.9091 21.4318V22.1818ZM27.3807 19.0795L26.7125 18.739C26.2396 19.667 25.4852 20.4215 24.5572 20.8943L24.8977 21.5625L25.2382 22.2308C26.4484 21.6142 27.4323 20.6302 28.049 19.42L27.3807 19.0795ZM18.9091 4V4.75C20.5125 4.75 21.67 4.75058 22.5798 4.82492C23.4809 4.89854 24.0728 5.04075 24.5572 5.28754L24.8977 4.61928L25.2382 3.95103C24.5071 3.57854 23.6958 3.4111 22.702 3.3299C21.7169 3.24942 20.4878 3.25 18.9091 3.25V4ZM28 13.0909H28.75C28.75 11.5122 28.7506 10.2831 28.6701 9.29803C28.5889 8.30419 28.4215 7.49289 28.049 6.76183L27.3807 7.10233L26.7125 7.44282C26.9593 7.92717 27.1015 8.5191 27.1751 9.42018C27.2494 10.33 27.25 11.4875 27.25 13.0909H28ZM24.8977 4.61928L24.5572 5.28754C25.4852 5.76037 26.2396 6.51484 26.7125 7.44282L27.3807 7.10233L28.049 6.76183C27.4323 5.55161 26.4484 4.56767 25.2382 3.95103L24.8977 4.61928ZM12.0909 4V3.25C10.5122 3.25 9.28311 3.24942 8.29803 3.3299C7.30419 3.4111 6.49289 3.57854 5.76183 3.95103L6.10233 4.61928L6.44282 5.28754C6.92717 5.04075 7.5191 4.89854 8.42018 4.82492C9.33001 4.75058 10.4875 4.75 12.0909 4.75V4ZM3 13.0909H3.75C3.75 11.4875 3.75058 10.33 3.82492 9.42018C3.89854 8.5191 4.04075 7.92717 4.28754 7.44282L3.61928 7.10233L2.95103 6.76183C2.57854 7.49289 2.4111 8.30419 2.3299 9.29803C2.24942 10.2831 2.25 11.5122 2.25 13.0909H3ZM6.10233 4.61928L5.76183 3.95103C4.55161 4.56767 3.56767 5.55161 2.95103 6.76183L3.61928 7.10233L4.28754 7.44282C4.76037 6.51484 5.51484 5.76037 6.44282 5.28754L6.10233 4.61928ZM10.9545 26.7273L11.1364 27.4549L12.9258 27.0075L12.7439 26.2799L12.562 25.5523L10.7726 25.9997L10.9545 26.7273ZM18.2561 26.2799L18.0742 27.0075L19.8636 27.4549L20.0455 26.7273L20.2274 25.9997L18.438 25.5523L18.2561 26.2799ZM15.5 25.5909H16.25V22.1818H15.5H14.75V25.5909H15.5ZM15.5 18.7727L15.5 19.5227L22.3182 19.5227V18.7727V18.0227L15.5 18.0227V18.7727ZM12.7439 26.2799L12.9258 27.0075C13.7709 26.7963 14.6354 26.6906 15.5 26.6906L15.5 25.9406V25.1906C14.5133 25.1906 13.5265 25.3112 12.562 25.5523L12.7439 26.2799ZM15.5 25.9406L15.5 26.6906C16.3646 26.6906 17.2291 26.7963 18.0742 27.0075L18.2561 26.2799L18.438 25.5523C17.4735 25.3112 16.4867 25.1906 15.5 25.1906V25.9406ZM15.5 25.5909H14.75V25.9406H15.5H16.25V25.5909H15.5Z" fill="white"/>
<path d="M10.9546 18.7713C10.9546 19.3988 10.4458 19.9076 9.81825 19.9076C9.19065 19.9076 8.68188 19.3988 8.68188 18.7713C8.68188 18.1437 9.19065 17.6349 9.81825 17.6349C10.4458 17.6349 10.9546 18.1437 10.9546 18.7713Z" fill="white"/>
</svg>
