<svg width="126" height="30" viewBox="0 0 126 30" fill="none" xmlns="http://www.w3.org/2000/svg">
<g clip-path="url(#clip0_1434_2292)">
<path d="M10.625 16.4198C10.625 13.3516 12.6136 10.738 15.3977 9.88569C16.25 8.06751 16.9318 6.02205 17.4431 3.74933C17.6136 3.06751 17.5 2.84024 17.5 2.84024C17.5 2.84024 17.5 2.84024 17.4431 2.84024C9.99996 2.78342 3.92041 8.91978 3.92041 16.4198C3.92041 20.113 5.39768 23.4652 7.78405 25.9084L13.5795 22.0448C11.8181 20.7948 10.625 18.7493 10.625 16.4198Z" fill="#8BC53F"/>
<path d="M21.7612 3.4668L20.0567 10.0009C22.6135 11.0236 24.4317 13.4668 24.4317 16.4213C24.4317 20.2282 21.3635 23.2963 17.5567 23.2963C17.3294 23.2963 17.1021 23.2963 16.9317 23.2395C14.318 25.5123 11.7612 26.8191 9.88623 27.6145C12.1021 29.0918 14.7158 30.0009 17.5567 30.0009C25.0567 30.0009 31.1362 23.9213 31.1362 16.4213C31.1362 10.3986 27.2158 5.28498 21.7612 3.4668Z" fill="#8BC53F"/>
<path d="M24.602 0H17.3292L17.0451 1.19318C18.6361 1.42045 19.2042 2.21591 18.8065 4.03409C15.6815 17.7273 5.56787 24.4318 5.56787 24.4318L5.28378 24.6591C5.45423 24.6023 5.51105 24.7159 5.3406 24.8295L5.11333 24.9432L4.99969 24.8864C4.99969 24.9432 4.99969 25 4.99969 25L5.05651 25.0568L4.82923 25.1136L4.77242 25C4.77242 25.3409 4.37469 25.3409 4.14742 25.3977C3.29514 25.8523 2.27242 26.1364 1.30651 26.25C1.64742 26.3636 1.98833 26.0795 2.32923 26.1932C2.38605 26.3636 2.27242 26.4205 2.27242 26.5341C1.98833 26.4205 1.87469 27.2159 1.5906 26.6477V26.7614C0.90878 26.7614 0.454235 27.1023 -0.0571289 27.1591C0.795144 27.1023 1.64742 27.1591 2.44287 26.9886C2.89742 26.9886 3.29514 26.9318 3.69287 26.875C3.74969 26.9886 3.63605 27.1023 3.63605 27.1591C3.35196 27.0455 3.23833 27.8409 2.95423 27.2727V27.3864C2.27242 27.3864 1.87469 27.6705 1.30651 27.7841C2.15878 27.7273 3.01105 27.7841 3.80651 27.6136C4.7156 27.6136 5.62469 27.5568 6.42014 27.1023C6.47696 27.1023 6.64742 27.0455 6.64742 27.0455C7.95423 26.7614 19.9997 23.6932 25.0565 7.32955C25.2838 6.59091 26.0224 4.03409 26.3633 1.64773C26.477 1.76136 26.8179 0 24.602 0Z" fill="url(#paint0_linear_1434_2292)"/>
<path d="M42.7271 5.85352H38.1816V7.0467H42.7271V5.85352Z" fill="#005AA9"/>
<path d="M44.4316 8.01172H36.4771V9.26172H38.2384C37.9543 9.54581 37.7271 9.8299 37.5566 10.1708C37.3861 10.5117 37.3293 10.8526 37.3293 11.1935C37.3293 11.5344 37.3861 11.8754 37.5566 12.2163C37.7271 12.5572 37.9543 12.8413 38.1816 13.1254C38.4657 13.4094 38.8066 13.5799 39.1475 13.7504C39.5452 13.9208 39.943 13.9776 40.3975 13.9776C40.8521 13.9776 41.2498 13.9208 41.6475 13.7504C42.0452 13.5799 42.3293 13.4094 42.6134 13.1254C42.8975 12.8413 43.1248 12.5572 43.2952 12.2163C43.4657 11.8754 43.5225 11.5344 43.5225 11.1935C43.5225 10.8526 43.4657 10.5117 43.2952 10.1708C43.1248 9.8299 42.8975 9.54581 42.6134 9.26172H44.3748V8.01172H44.4316ZM41.4771 12.2163C41.193 12.5572 40.8521 12.7276 40.4543 12.7276C40.0566 12.7276 39.7157 12.5572 39.4316 12.2163C39.1475 11.8754 39.0339 11.4776 39.0339 11.0231C39.0339 10.5685 39.2043 10.1708 39.4316 9.8299C39.7157 9.48899 40.0566 9.31854 40.4543 9.31854C40.8521 9.31854 41.193 9.48899 41.4771 9.8299C41.7611 10.1708 41.9316 10.5685 41.9316 11.0231C41.9316 11.4776 41.7611 11.8754 41.4771 12.2163Z" fill="#005AA9"/>
<path d="M38.8633 18.7504V14.8867H40.511V17.5004H47.4996V18.7504H38.8633Z" fill="#005AA9"/>
<path d="M47.1588 15.4547H45.5679V5.56836H47.1588V8.75018H49.1474V10.057H47.1588V15.4547Z" fill="#005AA9"/>
<path d="M60.5112 5.91016C60.5112 6.25107 60.4544 6.64879 60.4544 7.04652C60.3976 7.44425 60.3976 7.84197 60.3408 8.29652C60.284 8.69425 60.2271 9.09198 60.1703 9.4897C60.1135 9.88743 60.0567 10.2283 59.9999 10.5692H62.2158V11.8761H57.1021V14.092H60.3408V18.9783H58.693V15.342H51.4203V14.092H55.3408V11.8761H49.8862V10.5692H58.3521C58.4658 10.0579 58.5226 9.4897 58.6362 8.92152C58.693 8.29652 58.7499 7.78516 58.8067 7.21697H51.534V5.91016H60.5112Z" fill="#005AA9"/>
<path d="M68.1817 16.4199V13.2949H69.8863V16.4199H75.1704V17.7267H62.8408V16.4199H68.1817Z" fill="#005AA9"/>
<path d="M69.8859 6.08008V7.72781C69.8859 8.18235 69.9996 8.6369 70.2268 9.09144C70.4541 9.54599 70.795 10.0005 71.1927 10.3983C71.5905 10.796 72.1018 11.1937 72.67 11.5346C73.2382 11.8755 73.8064 12.1028 74.4314 12.3301L73.4086 13.3528C72.3291 13.0119 71.42 12.5005 70.7382 11.9324C69.9996 11.3642 69.4314 10.6824 69.0336 9.94371C68.6359 10.6824 68.0109 11.3074 67.2723 11.9324C66.5336 12.5005 65.6246 12.9551 64.6018 13.3528L63.5791 12.3301C64.2041 12.1596 64.7723 11.8755 65.3405 11.5346C65.9086 11.1937 66.3632 10.8528 66.8177 10.3983C67.2155 10.0005 67.5564 9.54599 67.8405 9.09144C68.0677 8.6369 68.2382 8.18235 68.2382 7.72781V6.08008H69.8859Z" fill="#005AA9"/>
<path d="M80.6249 5.91016V8.18288H77.6136V5.91016H75.9658V12.6147H82.2158V5.91016H80.6249ZM80.6249 11.3079H77.6136V9.4897H80.6249V11.3079Z" fill="#005AA9"/>
<path d="M85.1132 15.3418C84.9428 14.9441 84.6587 14.66 84.3746 14.3759C84.0905 14.0918 83.6928 13.8645 83.2951 13.6941C82.8973 13.5236 82.4428 13.4668 81.9314 13.4668C81.4201 13.4668 80.9655 13.5236 80.5678 13.6941C80.1701 13.8645 79.7723 14.0918 79.4314 14.3759C79.1473 14.66 78.8632 15.0009 78.6928 15.3418C78.5223 15.7395 78.4087 16.1373 78.4087 16.535C78.4087 16.9327 78.5223 17.3304 78.6928 17.7282C78.8632 18.0691 79.0905 18.41 79.4314 18.6941C79.7723 18.9782 80.1132 19.2054 80.5678 19.3759C80.9655 19.5463 81.4769 19.6032 81.9314 19.6032C82.386 19.6032 82.8405 19.5463 83.2951 19.3759C83.6928 19.2054 84.0905 18.9782 84.3746 18.6941C84.7155 18.41 84.9428 18.0691 85.1132 17.7282C85.2837 17.3873 85.3973 16.9895 85.3973 16.535C85.3973 16.1373 85.3405 15.7395 85.1132 15.3418ZM83.2382 17.785C82.8973 18.1259 82.4428 18.2963 81.9314 18.2963C81.4201 18.2963 81.0223 18.1259 80.6246 17.785C80.2837 17.4441 80.1132 16.9895 80.1132 16.4782C80.1132 16.0236 80.2837 15.5691 80.6246 15.2282C80.9655 14.8873 81.4201 14.66 81.9314 14.66C82.4428 14.66 82.8973 14.8304 83.2382 15.2282C83.5791 15.5691 83.7496 16.0236 83.7496 16.4782C83.7496 17.0463 83.5791 17.4441 83.2382 17.785Z" fill="#005AA9"/>
<path d="M85.6817 13.4661H84.0908V5.56836H85.6817V8.29563H87.6135V9.65927H85.6817V13.4661Z" fill="#005AA9"/>
<path d="M95.284 7.95561C95.1135 7.55788 94.8294 7.21697 94.5453 6.93288C94.2044 6.64879 93.8635 6.42152 93.4658 6.19425C93.068 6.02379 92.6135 5.91016 92.1021 5.91016C91.5908 5.91016 91.1362 6.02379 90.7385 6.19425C90.3408 6.3647 89.9431 6.59197 89.659 6.93288C89.3749 7.21697 89.0908 7.55788 88.9203 7.95561C88.7499 8.35334 88.6362 8.75107 88.6362 9.20561C88.6362 9.66016 88.7499 10.0579 88.9203 10.4556C89.0908 10.8533 89.3181 11.1942 89.659 11.4783C89.9431 11.7624 90.3408 11.9897 90.7385 12.1602C91.1362 12.3306 91.6476 12.4442 92.1021 12.4442C92.5567 12.4442 93.0112 12.3306 93.4658 12.1602C93.8635 11.9897 94.2612 11.7624 94.5453 11.4783C94.8294 11.1942 95.1135 10.8533 95.284 10.4556C95.4544 10.0579 95.568 9.66016 95.568 9.20561C95.568 8.75107 95.4544 8.35334 95.284 7.95561ZM93.693 10.0011C93.5794 10.2283 93.4658 10.4556 93.3521 10.6261C93.1817 10.7965 93.0112 10.967 92.784 11.0806C92.5567 11.1942 92.3294 11.2511 92.1021 11.2511C91.5908 11.2511 91.193 11.0806 90.8521 10.6829C90.5112 10.2852 90.3408 9.83061 90.3408 9.26243C90.3408 8.69425 90.5112 8.2397 90.8521 7.84197C91.193 7.44425 91.5908 7.27379 92.1021 7.27379C92.5567 7.27379 93.0112 7.50107 93.3521 7.84197C93.6931 8.2397 93.8635 8.69425 93.8635 9.26243C93.8635 9.4897 93.8067 9.71697 93.693 10.0011Z" fill="#005AA9"/>
<path d="M90.6816 18.7495V14.5449H92.3294V17.4995H99.318V18.7495H90.6816Z" fill="#005AA9"/>
<path d="M104.318 18.7495V14.5449H105.966V17.4995H112.954V18.7495H104.318Z" fill="#005AA9"/>
<path d="M116.818 18.75V15.625H118.466V17.5H125.568V18.75H116.818Z" fill="#005AA9"/>
<path d="M98.9771 5.56836V8.35245H100.966V9.60245H98.9771V15.1138H97.3862V5.56836H98.9771Z" fill="#005AA9"/>
<path d="M109.261 7.38672H106.647V8.69354C106.647 9.14808 106.761 9.60263 106.931 10.0572C107.102 10.4549 107.329 10.8526 107.67 11.2504C107.954 11.5913 108.295 11.9322 108.693 12.2731C109.091 12.5572 109.488 12.8413 109.943 13.0685L108.75 14.0344C108.068 13.6367 107.5 13.1822 106.988 12.7276C106.477 12.2731 106.079 11.7617 105.852 11.2504C105.568 11.8754 105.113 12.4435 104.602 12.9549C104.034 13.4663 103.409 13.9208 102.784 14.3185L101.534 13.3526C102.045 13.1254 102.5 12.8413 102.897 12.5004C103.352 12.1594 103.693 11.8185 104.034 11.4208C104.375 11.0231 104.602 10.6254 104.772 10.1708C104.943 9.71626 105.056 9.26172 105.056 8.75036V7.38672H102.443V6.13672H109.261V7.38672Z" fill="#005AA9"/>
<path d="M111.136 10.057H108.636V8.75018H111.136V5.56836H112.727V15.2843H111.136V10.057Z" fill="#005AA9"/>
<path d="M117.557 15V13.0682H114.545V11.8182H117.5C117.841 11.8182 118.239 11.8182 118.693 11.7614C119.148 11.7614 119.659 11.7045 120.114 11.6477C120.625 11.5909 121.079 11.5341 121.591 11.4773C122.102 11.4205 122.557 11.3636 122.954 11.25V12.5C122.386 12.6136 121.818 12.7273 121.136 12.7841C120.511 12.8409 119.829 12.8977 119.148 12.9545V15H117.557Z" fill="#005AA9"/>
<path d="M121.647 7.27308C121.477 6.93217 121.25 6.64808 120.965 6.36399C120.681 6.13672 120.34 5.90945 119.943 5.73899C119.545 5.56854 119.147 5.51172 118.693 5.51172C118.238 5.51172 117.784 5.56854 117.386 5.73899C116.988 5.90945 116.647 6.0799 116.363 6.36399C116.079 6.64808 115.852 6.93217 115.681 7.27308C115.511 7.61399 115.454 7.9549 115.454 8.35263C115.454 8.75036 115.511 9.09126 115.681 9.43217C115.852 9.77308 116.079 10.0572 116.363 10.2844C116.647 10.5685 116.988 10.739 117.386 10.9094C117.784 11.0799 118.181 11.1367 118.693 11.1367C119.147 11.1367 119.545 11.0799 119.943 10.9094C120.34 10.739 120.681 10.5685 120.965 10.2844C121.25 10.0572 121.477 9.71626 121.647 9.43217C121.818 9.09126 121.931 8.75036 121.931 8.35263C121.875 8.01172 121.818 7.61399 121.647 7.27308ZM119.772 9.43217C119.431 9.77308 119.09 9.88672 118.636 9.88672C118.181 9.88672 117.84 9.71626 117.5 9.43217C117.215 9.09126 117.045 8.75036 117.045 8.35263C117.045 7.9549 117.215 7.55717 117.5 7.27308C117.784 6.93217 118.181 6.81854 118.636 6.81854C119.09 6.81854 119.431 6.98899 119.772 7.27308C120.113 7.61399 120.227 7.9549 120.227 8.35263C120.227 8.75036 120.056 9.14808 119.772 9.43217Z" fill="#005AA9"/>
<path d="M123.75 14.6593H120.738V13.4093H123.75V5.56836H125.341V15.8524H123.75V14.6593Z" fill="#005AA9"/>
<path d="M41.7611 27.2161H40.7384L39.6589 25.4547L39.2611 25.7388V27.2729H38.3521V23.0684H39.2611V25.0002L39.602 24.4888L40.7384 23.0684H41.7043L40.2271 24.9434L41.7611 27.2161Z" fill="#005AA9"/>
<path d="M46.0793 25.0577C46.0793 25.7395 45.9089 26.3077 45.568 26.6486C45.227 27.0463 44.7157 27.2168 44.0907 27.2168C43.4657 27.2168 42.9543 27.0463 42.6134 26.6486C42.2725 26.2509 42.1021 25.7395 42.1021 25.0009C42.1021 24.3191 42.2725 23.7509 42.6134 23.41C42.9543 23.0123 43.4657 22.8418 44.0907 22.8418C44.7157 22.8418 45.227 23.0123 45.568 23.41C45.9089 23.8645 46.0793 24.3759 46.0793 25.0577ZM43.068 25.0577C43.068 25.5123 43.1816 25.91 43.3521 26.1373C43.5225 26.3645 43.8066 26.4782 44.1475 26.4782C44.8293 26.4782 45.2271 26.0236 45.2271 25.0577C45.2271 24.0918 44.8861 23.6373 44.1475 23.6373C43.8066 23.6373 43.5225 23.7509 43.3521 23.9782C43.1248 24.2623 43.068 24.6032 43.068 25.0577Z" fill="#005AA9"/>
<path d="M47.8407 25.5685V27.2163H46.9316V23.0117H48.1248C48.693 23.0117 49.0907 23.1254 49.3748 23.3526C49.6589 23.5799 49.7725 23.864 49.7725 24.3185C49.7725 24.5458 49.7157 24.7731 49.5453 25.0004C49.4316 25.1708 49.2044 25.3413 48.9771 25.4549C49.6021 26.4208 49.9998 27.0458 50.2271 27.2731H49.2612L48.3521 25.5685H47.8407ZM47.8407 24.8299H48.1248C48.4089 24.8299 48.6362 24.7731 48.7498 24.6594C48.8635 24.5458 48.9771 24.4322 48.9771 24.2049C48.9771 23.9776 48.9203 23.864 48.7498 23.7504C48.6362 23.6935 48.4089 23.6367 48.1248 23.6367H47.8407V24.8299Z" fill="#005AA9"/>
<path d="M53.2384 27.2163H50.8521V23.0117H53.2384V23.7504H51.7043V24.6594H53.1248V25.3981H51.7043V26.4776H53.2384V27.2163Z" fill="#005AA9"/>
<path d="M56.7041 27.2164L56.42 26.1937H54.8859L54.545 27.2164H53.5791L55.0564 22.9551H56.1359L57.6132 27.2164H56.7041ZM56.1927 25.4551C55.9086 24.546 55.7382 24.0346 55.7382 23.921C55.6814 23.8073 55.6814 23.6937 55.6814 23.6369C55.6246 23.8642 55.4541 24.4892 55.1132 25.4551H56.1927Z" fill="#005AA9"/>
<path d="M60.5681 27.2163H59.7158V23.0117H62.1022V23.7504H60.5681V24.8299H61.9885V25.5685H60.5681V27.2163Z" fill="#005AA9"/>
<path d="M62.8975 27.2163V23.0117H63.8066V27.2163H62.8975Z" fill="#005AA9"/>
<path d="M65.7382 25.5685V27.2163H64.8291V23.0117H66.0223C66.5905 23.0117 66.9882 23.1254 67.2723 23.3526C67.5564 23.5799 67.67 23.864 67.67 24.3185C67.67 24.5458 67.6132 24.7731 67.4427 25.0004C67.3291 25.1708 67.1018 25.3413 66.8746 25.4549C67.4996 26.4208 67.8973 27.0458 68.1246 27.2731H67.1586L66.1359 25.6254H65.7382V25.5685ZM65.7382 24.8299H66.0223C66.3064 24.8299 66.5336 24.7731 66.6473 24.6594C66.7609 24.5458 66.8746 24.4322 66.8746 24.2049C66.8746 23.9776 66.8177 23.864 66.6473 23.7504C66.5336 23.6935 66.3064 23.6367 66.0223 23.6367H65.7382V24.8299Z" fill="#005AA9"/>
<path d="M71.1364 27.2163H68.75V23.0117H71.1364V23.7504H69.6023V24.6594H71.0227V25.3981H69.6023V26.4776H71.1364V27.2163Z" fill="#005AA9"/>
<path d="M76.0227 26.0234C76.0227 26.4212 75.909 26.7053 75.625 26.9325C75.3409 27.1598 75 27.2734 74.4886 27.2734C74.034 27.2734 73.6363 27.2166 73.2954 27.0462V26.1939C73.5795 26.3075 73.8068 26.4212 74.034 26.478C74.2045 26.5348 74.4318 26.5348 74.5454 26.5348C74.7159 26.5348 74.8863 26.478 75 26.4212C75.1136 26.3643 75.1704 26.2507 75.1704 26.0803C75.1704 26.0234 75.1704 25.9098 75.1136 25.853C75.0568 25.7962 75 25.7393 74.8863 25.6825C74.7727 25.6257 74.6022 25.5121 74.3181 25.3984C74.034 25.2848 73.8636 25.1712 73.75 25.0575C73.6363 24.9439 73.5227 24.8303 73.4659 24.6598C73.409 24.4893 73.3522 24.3189 73.3522 24.1484C73.3522 23.7507 73.4659 23.4666 73.75 23.2393C73.9772 23.0121 74.375 22.8984 74.7727 22.8984C75 22.8984 75.1704 22.8984 75.3977 22.9553C75.5681 23.0121 75.7954 23.0689 76.0227 23.1825L75.7386 23.8643C75.5113 23.7507 75.3409 23.6939 75.1704 23.6939C75 23.6371 74.8863 23.6371 74.7159 23.6371C74.5454 23.6371 74.4318 23.6939 74.3181 23.7507C74.2045 23.8075 74.2045 23.9212 74.2045 24.0348C74.2045 24.0916 74.2045 24.2053 74.2613 24.2621C74.3181 24.3189 74.375 24.3757 74.4318 24.4325C74.4886 24.4893 74.7159 24.603 75 24.7166C75.3977 24.8871 75.6818 25.1143 75.7954 25.2848C75.909 25.5121 76.0227 25.7393 76.0227 26.0234Z" fill="#005AA9"/>
<path d="M79.3182 27.2164L79.0341 26.1937H77.5L77.2159 27.2164H76.25L77.7273 22.9551H78.8068L80.2841 27.2164H79.3182ZM78.8068 25.4551C78.5227 24.546 78.3523 24.0346 78.3523 23.921C78.2955 23.8073 78.2955 23.6937 78.2955 23.6369C78.2386 23.8642 78.0682 24.4892 77.7273 25.4551H78.8068Z" fill="#005AA9"/>
<path d="M81.6477 27.2163H80.7954V23.0117H83.1818V23.7504H81.6477V24.8299H83.0681V25.5685H81.6477V27.2163Z" fill="#005AA9"/>
<path d="M86.4201 27.2163H84.0337V23.0117H86.4201V23.7504H84.886V24.6594H86.3064V25.3981H84.886V26.4776H86.4201V27.2163Z" fill="#005AA9"/>
<path d="M88.9205 27.2163H88.0114V23.7504H86.875V23.0117H90.0568V23.7504H88.9205V27.2163Z" fill="#005AA9"/>
<path d="M91.9886 24.7164L92.8409 22.9551H93.8068L92.4431 25.5119V27.1596H91.5341V25.5687L90.1704 22.9551H91.1363L91.9886 24.7164Z" fill="#005AA9"/>
<path d="M95.8521 27.2163V23.0117H96.7611V27.2163H95.8521Z" fill="#005AA9"/>
<path d="M101.534 27.2163H100.398L98.5795 24.0344C98.6363 24.6026 98.6363 25.0004 98.6363 25.2276V27.2163H97.8408V23.0117H98.9772L100.795 26.1935C100.739 25.6254 100.739 25.2844 100.739 25.0572V23.0685H101.534V27.2163Z" fill="#005AA9"/>
<path d="M105.056 26.0234C105.056 26.4212 104.943 26.7053 104.659 26.9325C104.375 27.1598 104.034 27.2734 103.522 27.2734C103.068 27.2734 102.67 27.2166 102.329 27.0462V26.1939C102.613 26.3075 102.84 26.4212 103.068 26.478C103.238 26.5348 103.465 26.5348 103.579 26.5348C103.75 26.5348 103.92 26.478 104.034 26.4212C104.147 26.3643 104.204 26.2507 104.204 26.0803C104.204 26.0234 104.204 25.9098 104.147 25.853C104.09 25.7962 104.034 25.7393 103.92 25.6825C103.806 25.6257 103.636 25.5121 103.352 25.3984C103.068 25.2848 102.897 25.1712 102.784 25.0575C102.67 24.9439 102.556 24.8303 102.5 24.6598C102.443 24.4893 102.386 24.3189 102.386 24.1484C102.386 23.7507 102.5 23.4666 102.784 23.2393C103.011 23.0121 103.409 22.8984 103.806 22.8984C104.034 22.8984 104.204 22.8984 104.431 22.9553C104.602 23.0121 104.829 23.0689 105.056 23.1825L104.772 23.8643C104.545 23.7507 104.375 23.6939 104.204 23.6939C104.034 23.6371 103.92 23.6371 103.75 23.6371C103.579 23.6371 103.465 23.6939 103.352 23.7507C103.238 23.8075 103.238 23.9212 103.238 24.0348C103.238 24.0916 103.238 24.2053 103.295 24.2621C103.352 24.3189 103.409 24.3757 103.465 24.4325C103.522 24.4893 103.75 24.603 104.034 24.7166C104.431 24.8871 104.715 25.1143 104.829 25.2848C105 25.5121 105.056 25.7393 105.056 26.0234Z" fill="#005AA9"/>
<path d="M107.443 27.2163H106.534V23.7504H105.397V23.0117H108.579V23.7504H107.443V27.2163Z" fill="#005AA9"/>
<path d="M109.204 27.2163V23.0117H110.113V27.2163H109.204Z" fill="#005AA9"/>
<path d="M112.784 27.2163H111.875V23.7504H110.738V23.0117H113.92V23.7504H112.784V27.2163Z" fill="#005AA9"/>
<path d="M117.954 22.9551V25.6824C117.954 25.9664 117.897 26.2505 117.727 26.4778C117.613 26.7051 117.386 26.8755 117.102 27.046C116.818 27.1596 116.534 27.2164 116.193 27.2164C115.681 27.2164 115.227 27.1028 114.943 26.8187C114.659 26.5346 114.488 26.1369 114.488 25.6824V22.9551H115.397V25.5687C115.397 25.9096 115.454 26.1369 115.568 26.3073C115.681 26.4778 115.909 26.5346 116.193 26.5346C116.477 26.5346 116.704 26.4778 116.818 26.3073C116.931 26.1369 116.988 25.9096 116.988 25.5687V23.0119H117.954V22.9551Z" fill="#005AA9"/>
<path d="M120.568 27.2163H119.659V23.7504H118.522V23.0117H121.704V23.7504H120.568V27.2163Z" fill="#005AA9"/>
<path d="M124.773 27.2163H122.386V23.0117H124.773V23.7504H123.239V24.6594H124.659V25.3981H123.239V26.4776H124.773V27.2163Z" fill="#005AA9"/>
</g>
<defs>
<linearGradient id="paint0_linear_1434_2292" x1="8.40378" y1="24.1552" x2="20.6158" y2="6.07733" gradientUnits="userSpaceOnUse">
<stop stop-color="#0094D0"/>
<stop offset="1" stop-color="#0071BB"/>
</linearGradient>
<clipPath id="clip0_1434_2292">
<rect width="125.568" height="30" fill="white"/>
</clipPath>
</defs>
</svg>
